%TF.GenerationSoftware,KiCad,Pcbnew,8.0.7*%
%TF.CreationDate,2024-12-26T08:41:20+02:00*%
%TF.ProjectId,STM32F405RGT6_BlackPill,53544d33-3246-4343-9035-524754365f42,rev?*%
%TF.SameCoordinates,Original*%
%TF.FileFunction,Copper,L4,Bot*%
%TF.FilePolarity,Positive*%
%FSLAX46Y46*%
G04 Gerber Fmt 4.6, Leading zero omitted, Abs format (unit mm)*
G04 Created by KiCad (PCBNEW 8.0.7) date 2024-12-26 08:41:20*
%MOMM*%
%LPD*%
G01*
G04 APERTURE LIST*
%TA.AperFunction,ComponentPad*%
%ADD10C,2.000000*%
%TD*%
%TA.AperFunction,ComponentPad*%
%ADD11R,1.700000X1.700000*%
%TD*%
%TA.AperFunction,ComponentPad*%
%ADD12O,1.700000X1.700000*%
%TD*%
%TA.AperFunction,ComponentPad*%
%ADD13O,2.100000X1.000000*%
%TD*%
%TA.AperFunction,ComponentPad*%
%ADD14O,1.600000X1.000000*%
%TD*%
%TA.AperFunction,ViaPad*%
%ADD15C,0.600000*%
%TD*%
%TA.AperFunction,Conductor*%
%ADD16C,0.500000*%
%TD*%
%TA.AperFunction,Conductor*%
%ADD17C,0.300000*%
%TD*%
G04 APERTURE END LIST*
D10*
%TO.P,SW102,1,1*%
%TO.N,PC13*%
X79750000Y-52700000D03*
X86250000Y-52700000D03*
%TO.P,SW102,2,2*%
%TO.N,+3.3V*%
X79750000Y-57200000D03*
X86250000Y-57200000D03*
%TD*%
%TO.P,SW100,1,1*%
%TO.N,BOOT0*%
X84250000Y-43050000D03*
X84250000Y-49550000D03*
%TO.P,SW100,2,2*%
%TO.N,+3.3V*%
X79750000Y-43050000D03*
X79750000Y-49550000D03*
%TD*%
%TO.P,SW101,1,1*%
%TO.N,GND*%
X79800000Y-66900000D03*
X79800000Y-60400000D03*
%TO.P,SW101,2,2*%
%TO.N,NRST*%
X84300000Y-66900000D03*
X84300000Y-60400000D03*
%TD*%
D11*
%TO.P,J103,1,Pin_1*%
%TO.N,GND*%
X136100000Y-36900000D03*
D12*
%TO.P,J103,2,Pin_2*%
%TO.N,VBUS*%
X136100000Y-39440000D03*
%TD*%
D11*
%TO.P,J100,1,Pin_1*%
%TO.N,GND*%
X123620000Y-36900000D03*
D12*
%TO.P,J100,2,Pin_2*%
%TO.N,/MCU/SWCLK_CONN*%
X126160000Y-36900000D03*
%TO.P,J100,3,Pin_3*%
%TO.N,/MCU/SWDIO_CONN*%
X128700000Y-36900000D03*
%TO.P,J100,4,Pin_4*%
%TO.N,+3.3V*%
X131240000Y-36900000D03*
%TD*%
D13*
%TO.P,J200,S1,SHIELD*%
%TO.N,unconnected-(J200-SHIELD-PadS1)*%
X130695000Y-59320000D03*
D14*
%TO.N,unconnected-(J200-SHIELD-PadS1)_2*%
X134875000Y-59320000D03*
D13*
%TO.N,unconnected-(J200-SHIELD-PadS1)_3*%
X130695000Y-50680000D03*
D14*
%TO.N,unconnected-(J200-SHIELD-PadS1)_1*%
X134875000Y-50680000D03*
%TD*%
D11*
%TO.P,J102,1,Pin_1*%
%TO.N,GND*%
X97040000Y-39440000D03*
D12*
%TO.P,J102,2,Pin_2*%
%TO.N,+3.3V*%
X97040000Y-36900000D03*
%TO.P,J102,3,Pin_3*%
%TO.N,PB9*%
X99580000Y-39440000D03*
%TO.P,J102,4,Pin_4*%
%TO.N,PB8*%
X99580000Y-36900000D03*
%TO.P,J102,5,Pin_5*%
%TO.N,PB7*%
X102120000Y-39440000D03*
%TO.P,J102,6,Pin_6*%
%TO.N,PB6*%
X102120000Y-36900000D03*
%TO.P,J102,7,Pin_7*%
%TO.N,PB5*%
X104660000Y-39440000D03*
%TO.P,J102,8,Pin_8*%
%TO.N,PB4*%
X104660000Y-36900000D03*
%TO.P,J102,9,Pin_9*%
%TO.N,PB3*%
X107200000Y-39440000D03*
%TO.P,J102,10,Pin_10*%
%TO.N,PD2*%
X107200000Y-36900000D03*
%TO.P,J102,11,Pin_11*%
%TO.N,GND*%
X109740000Y-39440000D03*
%TO.P,J102,12,Pin_12*%
%TO.N,PC12*%
X109740000Y-36900000D03*
%TO.P,J102,13,Pin_13*%
%TO.N,PC11*%
X112280000Y-39440000D03*
%TO.P,J102,14,Pin_14*%
%TO.N,PC10*%
X112280000Y-36900000D03*
%TO.P,J102,15,Pin_15*%
%TO.N,PA15*%
X114820000Y-39440000D03*
%TO.P,J102,16,Pin_16*%
%TO.N,PA10*%
X114820000Y-36900000D03*
%TO.P,J102,17,Pin_17*%
%TO.N,PA9*%
X117360000Y-39440000D03*
%TO.P,J102,18,Pin_18*%
%TO.N,PA8*%
X117360000Y-36900000D03*
%TO.P,J102,19,Pin_19*%
%TO.N,GND*%
X119900000Y-39440000D03*
%TO.P,J102,20,Pin_20*%
%TO.N,+5V*%
X119900000Y-36900000D03*
%TD*%
D11*
%TO.P,J101,1,Pin_1*%
%TO.N,GND*%
X84380000Y-73040000D03*
D12*
%TO.P,J101,2,Pin_2*%
%TO.N,+3.3V*%
X84380000Y-70500000D03*
%TO.P,J101,3,Pin_3*%
%TO.N,PC1*%
X86920000Y-73040000D03*
%TO.P,J101,4,Pin_4*%
%TO.N,PC0*%
X86920000Y-70500000D03*
%TO.P,J101,5,Pin_5*%
%TO.N,PC3*%
X89460000Y-73040000D03*
%TO.P,J101,6,Pin_6*%
%TO.N,PC2*%
X89460000Y-70500000D03*
%TO.P,J101,7,Pin_7*%
%TO.N,PA1*%
X92000000Y-73040000D03*
%TO.P,J101,8,Pin_8*%
%TO.N,PA0*%
X92000000Y-70500000D03*
%TO.P,J101,9,Pin_9*%
%TO.N,PA3*%
X94540000Y-73040000D03*
%TO.P,J101,10,Pin_10*%
%TO.N,PA2*%
X94540000Y-70500000D03*
%TO.P,J101,11,Pin_11*%
%TO.N,PA5*%
X97080000Y-73040000D03*
%TO.P,J101,12,Pin_12*%
%TO.N,PA4*%
X97080000Y-70500000D03*
%TO.P,J101,13,Pin_13*%
%TO.N,PA7*%
X99620000Y-73040000D03*
%TO.P,J101,14,Pin_14*%
%TO.N,PA6*%
X99620000Y-70500000D03*
%TO.P,J101,15,Pin_15*%
%TO.N,PC5*%
X102160000Y-73040000D03*
%TO.P,J101,16,Pin_16*%
%TO.N,PC4*%
X102160000Y-70500000D03*
%TO.P,J101,17,Pin_17*%
%TO.N,PB1*%
X104700000Y-73040000D03*
%TO.P,J101,18,Pin_18*%
%TO.N,PB0*%
X104700000Y-70500000D03*
%TO.P,J101,19,Pin_19*%
%TO.N,PB11*%
X107240000Y-73040000D03*
%TO.P,J101,20,Pin_20*%
%TO.N,PB10*%
X107240000Y-70500000D03*
%TO.P,J101,21,Pin_21*%
%TO.N,PB13*%
X109780000Y-73040000D03*
%TO.P,J101,22,Pin_22*%
%TO.N,PB12*%
X109780000Y-70500000D03*
%TO.P,J101,23,Pin_23*%
%TO.N,PB15*%
X112320000Y-73040000D03*
%TO.P,J101,24,Pin_24*%
%TO.N,PB14*%
X112320000Y-70500000D03*
%TO.P,J101,25,Pin_25*%
%TO.N,PC7*%
X114860000Y-73040000D03*
%TO.P,J101,26,Pin_26*%
%TO.N,PC6*%
X114860000Y-70500000D03*
%TO.P,J101,27,Pin_27*%
%TO.N,PC9*%
X117400000Y-73040000D03*
%TO.P,J101,28,Pin_28*%
%TO.N,PC8*%
X117400000Y-70500000D03*
%TO.P,J101,29,Pin_29*%
%TO.N,GND*%
X119940000Y-73040000D03*
%TO.P,J101,30,Pin_30*%
%TO.N,+5V*%
X119940000Y-70500000D03*
%TD*%
D15*
%TO.N,GND*%
X99850000Y-48750000D03*
X114800000Y-63400000D03*
X122760000Y-40060000D03*
X114800000Y-62500000D03*
X127250000Y-54500000D03*
X130280000Y-61300000D03*
X129760000Y-41860000D03*
X98100000Y-48000000D03*
X121934749Y-52150000D03*
X119200000Y-45500000D03*
X128900000Y-58300000D03*
X90300000Y-49400000D03*
X80700000Y-70400000D03*
X130150000Y-48750000D03*
X130300000Y-62500000D03*
X93100000Y-37800000D03*
X90300000Y-50200000D03*
X122000000Y-58300000D03*
X123000000Y-68100000D03*
X94100000Y-57900000D03*
X104900000Y-50800000D03*
X92700000Y-52500000D03*
X102400000Y-61900000D03*
X125100000Y-63675000D03*
X93600000Y-60000000D03*
X124100000Y-64525000D03*
X135300000Y-46950000D03*
X122000000Y-57500000D03*
X128900000Y-51000000D03*
X113200000Y-48900000D03*
X86570000Y-61850000D03*
X124150000Y-63675000D03*
X118900000Y-49400000D03*
X90400000Y-43500000D03*
X120800000Y-46000000D03*
X122000000Y-59900000D03*
X102800000Y-46150000D03*
X131750000Y-73050000D03*
X128500000Y-50300000D03*
X111100000Y-54200000D03*
X133700000Y-44700000D03*
X93450000Y-47250000D03*
X111000000Y-55100000D03*
X104900000Y-59200000D03*
X122000000Y-59100000D03*
X115150000Y-61200000D03*
X116000000Y-61200000D03*
X128500000Y-59000000D03*
X93250000Y-53150000D03*
X88500000Y-53660000D03*
X86600000Y-45990000D03*
X87500000Y-67000000D03*
X90400000Y-44300000D03*
X129300000Y-48400000D03*
X92800000Y-46700000D03*
X115400000Y-50900000D03*
X100700000Y-48800000D03*
X131560000Y-42960000D03*
X94100000Y-57050000D03*
X108100000Y-67300000D03*
X109800000Y-58300000D03*
X122200000Y-46000000D03*
X117200000Y-54000000D03*
%TO.N,+3.3V*%
X103700000Y-46200000D03*
X81400000Y-69900000D03*
X132600000Y-45000000D03*
X97296701Y-48104052D03*
X93600000Y-59200000D03*
X128500000Y-73700000D03*
X123000000Y-69075000D03*
X114100000Y-48900000D03*
X115500000Y-60200000D03*
X130900000Y-73025000D03*
X86700000Y-68000000D03*
X94000000Y-37800000D03*
X102500000Y-62800000D03*
%TO.N,+5V*%
X127300000Y-61975000D03*
%TO.N,PA10*%
X116300000Y-53825000D03*
X120100000Y-45400000D03*
%TO.N,PA8*%
X111800000Y-55000000D03*
X122900000Y-45600000D03*
%TO.N,PA9*%
X111900000Y-54200000D03*
X121500000Y-45400000D03*
%TO.N,PB2*%
X129300000Y-47600000D03*
X109900000Y-59100000D03*
%TD*%
D16*
%TO.N,+3.3V*%
X132600000Y-45000000D02*
X130200000Y-45000000D01*
X88900000Y-68100000D02*
X88800000Y-68000000D01*
X94000000Y-40200000D02*
X94000000Y-37800000D01*
X129800000Y-44600000D02*
X116100000Y-44600000D01*
X130200000Y-45000000D02*
X129800000Y-44600000D01*
X82600000Y-68700000D02*
X81400000Y-69900000D01*
X121500000Y-68000000D02*
X121500000Y-65900000D01*
X98600000Y-45400000D02*
X104500000Y-45400000D01*
X128500000Y-73700000D02*
X124500000Y-73700000D01*
X130900000Y-73025000D02*
X124800000Y-73025000D01*
X98500000Y-45500000D02*
X98600000Y-45400000D01*
X121500000Y-70700000D02*
X121500000Y-68000000D01*
X88800000Y-66000000D02*
X88800000Y-60000000D01*
X109500000Y-65900000D02*
X107100000Y-63500000D01*
X121500000Y-65900000D02*
X121500000Y-62200000D01*
X86700000Y-68000000D02*
X86000000Y-68000000D01*
X121500000Y-62200000D02*
X119500000Y-60200000D01*
X107100000Y-63500000D02*
X103200000Y-63500000D01*
X121500000Y-68000000D02*
X121400000Y-68100000D01*
X114100000Y-48900000D02*
X114000000Y-48800000D01*
X88800000Y-68000000D02*
X88800000Y-66000000D01*
X105300000Y-46200000D02*
X103900000Y-46200000D01*
X113600000Y-46600000D02*
X113200000Y-46200000D01*
X89600000Y-59200000D02*
X93600000Y-59200000D01*
D17*
X116150000Y-60150000D02*
X116200000Y-60200000D01*
D16*
X97296701Y-48104052D02*
X97296701Y-46703299D01*
X104500000Y-45400000D02*
X105300000Y-46200000D01*
X113850000Y-46850000D02*
X113600000Y-46600000D01*
X123000000Y-71225000D02*
X123000000Y-69075000D01*
X98300000Y-45700000D02*
X98300000Y-44500000D01*
X121500000Y-65900000D02*
X109500000Y-65900000D01*
X124800000Y-73025000D02*
X123000000Y-71225000D01*
X86000000Y-68000000D02*
X85300000Y-68700000D01*
X119500000Y-60200000D02*
X116400000Y-60200000D01*
X113200000Y-46200000D02*
X105300000Y-46200000D01*
X85300000Y-68700000D02*
X82600000Y-68700000D01*
X88800000Y-60000000D02*
X89600000Y-59200000D01*
X114000000Y-47000000D02*
X113850000Y-46850000D01*
X103200000Y-63500000D02*
X102500000Y-62800000D01*
X97296701Y-46703299D02*
X98500000Y-45500000D01*
X116100000Y-44600000D02*
X113850000Y-46850000D01*
D17*
X116200000Y-60200000D02*
X116400000Y-60200000D01*
D16*
X121400000Y-68100000D02*
X88900000Y-68100000D01*
X114000000Y-48800000D02*
X114000000Y-47000000D01*
X116400000Y-60200000D02*
X115500000Y-60200000D01*
X88800000Y-68000000D02*
X86700000Y-68000000D01*
X98300000Y-44500000D02*
X94000000Y-40200000D01*
X124500000Y-73700000D02*
X121500000Y-70700000D01*
%TO.N,+5V*%
X136610000Y-43710000D02*
X136110000Y-43710000D01*
X128600000Y-60400000D02*
X132700000Y-60400000D01*
X132700000Y-60400000D02*
X133300000Y-59800000D01*
X133300000Y-59800000D02*
X133300000Y-55300000D01*
X127300000Y-61700000D02*
X128600000Y-60400000D01*
X127300000Y-61975000D02*
X127300000Y-61700000D01*
X137300000Y-51300000D02*
X137300000Y-44400000D01*
X123510000Y-43710000D02*
X121700000Y-41900000D01*
X121700000Y-41900000D02*
X121700000Y-38700000D01*
X137300000Y-44400000D02*
X136610000Y-43710000D01*
X133300000Y-55300000D02*
X137300000Y-51300000D01*
X136110000Y-43710000D02*
X123510000Y-43710000D01*
X121700000Y-38700000D02*
X119900000Y-36900000D01*
D17*
%TO.N,PA10*%
X120100000Y-50900000D02*
X120100000Y-45400000D01*
X117325000Y-52800000D02*
X118200000Y-52800000D01*
X118200000Y-52800000D02*
X120100000Y-50900000D01*
X116300000Y-53825000D02*
X117325000Y-52800000D01*
%TO.N,PA8*%
X112300000Y-55500000D02*
X117600000Y-55500000D01*
X117600000Y-55500000D02*
X122900000Y-50200000D01*
X111800000Y-55000000D02*
X112300000Y-55500000D01*
X122900000Y-50200000D02*
X122900000Y-45600000D01*
%TO.N,PA9*%
X111900000Y-53800000D02*
X111900000Y-54200000D01*
X115000000Y-53500000D02*
X112200000Y-53500000D01*
X116150000Y-54650000D02*
X115000000Y-53500000D01*
X121500000Y-50619239D02*
X117469239Y-54650000D01*
X117469239Y-54650000D02*
X116150000Y-54650000D01*
X112200000Y-53500000D02*
X111900000Y-53800000D01*
X121500000Y-45400000D02*
X121500000Y-50619239D01*
%TO.N,PB2*%
X119000000Y-56300000D02*
X123100000Y-52200000D01*
X110700000Y-59100000D02*
X112400000Y-57400000D01*
X112400000Y-57400000D02*
X113500000Y-56300000D01*
X127700000Y-47600000D02*
X129300000Y-47600000D01*
X117300000Y-56300000D02*
X119000000Y-56300000D01*
X109900000Y-59100000D02*
X110700000Y-59100000D01*
X113500000Y-56300000D02*
X117300000Y-56300000D01*
X123100000Y-52200000D02*
X127700000Y-47600000D01*
%TO.N,PC13*%
X79750000Y-52700000D02*
X86250000Y-52700000D01*
%TD*%
M02*
