M48
; DRILL file {KiCad 8.0.7} date 2024-12-25T08:40:17+0200
; FORMAT={-:-/ absolute / metric / decimal}
; #@! TF.CreationDate,2024-12-25T08:40:17+02:00
; #@! TF.GenerationSoftware,Kicad,Pcbnew,8.0.7
; #@! TF.FileFunction,MixedPlating,1,4
FMAT,2
METRIC
; #@! TA.AperFunction,Plated,PTH,ViaDrill
T1C0.300
; #@! TA.AperFunction,Plated,PTH,ComponentDrill
T2C0.600
; #@! TA.AperFunction,Plated,PTH,ComponentDrill
T3C1.000
; #@! TA.AperFunction,Plated,PTH,ComponentDrill
T4C1.100
; #@! TA.AperFunction,NonPlated,NPTH,ComponentDrill
T5C0.650
%
G90
G05
T1
X80.7Y-70.4
X81.4Y-69.9
X86.57Y-61.85
X86.6Y-45.99
X86.7Y-68.0
X87.5Y-67.0
X88.5Y-53.66
X90.3Y-49.4
X90.3Y-50.2
X90.4Y-43.5
X90.4Y-44.3
X92.7Y-52.5
X92.8Y-46.7
X93.1Y-37.8
X93.25Y-53.15
X93.45Y-47.25
X93.6Y-59.2
X93.6Y-60.0
X94.0Y-37.8
X94.1Y-57.05
X94.1Y-57.9
X97.297Y-48.104
X98.1Y-48.0
X99.85Y-48.75
X100.7Y-48.8
X102.4Y-61.9
X102.5Y-62.8
X102.8Y-46.15
X103.7Y-46.2
X104.9Y-50.8
X104.9Y-59.2
X108.1Y-67.3
X109.8Y-58.3
X109.9Y-59.1
X111.0Y-55.1
X111.1Y-54.2
X111.8Y-55.0
X111.9Y-54.2
X113.2Y-48.9
X114.1Y-48.9
X114.8Y-62.5
X114.8Y-63.4
X115.15Y-61.2
X115.4Y-50.9
X115.5Y-60.2
X116.0Y-61.2
X116.3Y-53.825
X117.2Y-54.0
X118.9Y-49.4
X119.2Y-45.5
X120.1Y-45.4
X120.8Y-46.0
X121.5Y-45.4
X121.935Y-52.15
X122.0Y-57.5
X122.0Y-58.3
X122.0Y-59.1
X122.0Y-59.9
X122.2Y-46.0
X122.76Y-40.06
X122.9Y-45.6
X123.0Y-68.1
X123.0Y-69.075
X124.1Y-64.525
X124.15Y-63.675
X125.1Y-63.675
X127.25Y-54.5
X127.3Y-61.975
X128.5Y-50.3
X128.5Y-59.0
X128.5Y-73.7
X128.9Y-51.0
X128.9Y-58.3
X129.3Y-47.6
X129.3Y-48.4
X129.76Y-41.86
X130.15Y-48.75
X130.28Y-61.3
X130.3Y-62.5
X130.9Y-73.025
X131.56Y-42.96
X131.75Y-73.05
X132.6Y-45.0
X133.7Y-44.7
X135.3Y-46.95
T3
X84.38Y-70.5
X84.38Y-73.04
X86.92Y-70.5
X86.92Y-73.04
X89.46Y-70.5
X89.46Y-73.04
X92.0Y-70.5
X92.0Y-73.04
X94.54Y-70.5
X94.54Y-73.04
X97.04Y-36.9
X97.04Y-39.44
X97.08Y-70.5
X97.08Y-73.04
X99.58Y-36.9
X99.58Y-39.44
X99.62Y-70.5
X99.62Y-73.04
X102.12Y-36.9
X102.12Y-39.44
X102.16Y-70.5
X102.16Y-73.04
X104.66Y-36.9
X104.66Y-39.44
X104.7Y-70.5
X104.7Y-73.04
X107.2Y-36.9
X107.2Y-39.44
X107.24Y-70.5
X107.24Y-73.04
X109.74Y-36.9
X109.74Y-39.44
X109.78Y-70.5
X109.78Y-73.04
X112.28Y-36.9
X112.28Y-39.44
X112.32Y-70.5
X112.32Y-73.04
X114.82Y-36.9
X114.82Y-39.44
X114.86Y-70.5
X114.86Y-73.04
X117.36Y-36.9
X117.36Y-39.44
X117.4Y-70.5
X117.4Y-73.04
X119.9Y-36.9
X119.9Y-39.44
X119.94Y-70.5
X119.94Y-73.04
X123.62Y-36.9
X126.16Y-36.9
X128.7Y-36.9
X131.24Y-36.9
X136.1Y-36.9
X136.1Y-39.44
T4
X79.75Y-43.05
X79.75Y-49.55
X79.75Y-52.7
X79.75Y-57.2
X79.8Y-60.4
X79.8Y-66.9
X84.25Y-43.05
X84.25Y-49.55
X84.3Y-60.4
X84.3Y-66.9
X86.25Y-52.7
X86.25Y-57.2
T5
X131.195Y-52.11
X131.195Y-57.89
T2
G00X130.145Y-50.68
M15
G01X131.245Y-50.68
M16
G05
G00X130.145Y-59.32
M15
G01X131.245Y-59.32
M16
G05
G00X134.575Y-50.68
M15
G01X135.175Y-50.68
M16
G05
G00X134.575Y-59.32
M15
G01X135.175Y-59.32
M16
G05
M30
