%TF.GenerationSoftware,KiCad,Pcbnew,8.0.7*%
%TF.CreationDate,2024-12-25T08:40:24+02:00*%
%TF.ProjectId,STM32F405RGT6_BlackPill,53544d33-3246-4343-9035-524754365f42,rev?*%
%TF.SameCoordinates,Original*%
%TF.FileFunction,Paste,Top*%
%TF.FilePolarity,Positive*%
%FSLAX46Y46*%
G04 Gerber Fmt 4.6, Leading zero omitted, Abs format (unit mm)*
G04 Created by KiCad (PCBNEW 8.0.7) date 2024-12-25 08:40:24*
%MOMM*%
%LPD*%
G01*
G04 APERTURE LIST*
G04 Aperture macros list*
%AMRoundRect*
0 Rectangle with rounded corners*
0 $1 Rounding radius*
0 $2 $3 $4 $5 $6 $7 $8 $9 X,Y pos of 4 corners*
0 Add a 4 corners polygon primitive as box body*
4,1,4,$2,$3,$4,$5,$6,$7,$8,$9,$2,$3,0*
0 Add four circle primitives for the rounded corners*
1,1,$1+$1,$2,$3*
1,1,$1+$1,$4,$5*
1,1,$1+$1,$6,$7*
1,1,$1+$1,$8,$9*
0 Add four rect primitives between the rounded corners*
20,1,$1+$1,$2,$3,$4,$5,0*
20,1,$1+$1,$4,$5,$6,$7,0*
20,1,$1+$1,$6,$7,$8,$9,0*
20,1,$1+$1,$8,$9,$2,$3,0*%
G04 Aperture macros list end*
%ADD10RoundRect,0.075000X-0.700000X-0.075000X0.700000X-0.075000X0.700000X0.075000X-0.700000X0.075000X0*%
%ADD11RoundRect,0.075000X-0.075000X-0.700000X0.075000X-0.700000X0.075000X0.700000X-0.075000X0.700000X0*%
%ADD12RoundRect,0.140000X-0.140000X-0.170000X0.140000X-0.170000X0.140000X0.170000X-0.140000X0.170000X0*%
%ADD13R,0.762000X0.304800*%
%ADD14R,1.400000X1.200000*%
%ADD15RoundRect,0.150000X0.150000X-0.512500X0.150000X0.512500X-0.150000X0.512500X-0.150000X-0.512500X0*%
%ADD16RoundRect,0.140000X0.170000X-0.140000X0.170000X0.140000X-0.170000X0.140000X-0.170000X-0.140000X0*%
%ADD17RoundRect,0.112500X-0.112500X0.187500X-0.112500X-0.187500X0.112500X-0.187500X0.112500X0.187500X0*%
%ADD18RoundRect,0.135000X0.185000X-0.135000X0.185000X0.135000X-0.185000X0.135000X-0.185000X-0.135000X0*%
%ADD19RoundRect,0.147500X-0.172500X0.147500X-0.172500X-0.147500X0.172500X-0.147500X0.172500X0.147500X0*%
%ADD20RoundRect,0.135000X-0.185000X0.135000X-0.185000X-0.135000X0.185000X-0.135000X0.185000X0.135000X0*%
%ADD21RoundRect,0.135000X0.135000X0.185000X-0.135000X0.185000X-0.135000X-0.185000X0.135000X-0.185000X0*%
%ADD22RoundRect,0.135000X-0.135000X-0.185000X0.135000X-0.185000X0.135000X0.185000X-0.135000X0.185000X0*%
%ADD23RoundRect,0.225000X0.225000X0.250000X-0.225000X0.250000X-0.225000X-0.250000X0.225000X-0.250000X0*%
%ADD24RoundRect,0.250000X0.475000X-0.250000X0.475000X0.250000X-0.475000X0.250000X-0.475000X-0.250000X0*%
%ADD25RoundRect,0.225000X0.250000X-0.225000X0.250000X0.225000X-0.250000X0.225000X-0.250000X-0.225000X0*%
%ADD26RoundRect,0.140000X0.140000X0.170000X-0.140000X0.170000X-0.140000X-0.170000X0.140000X-0.170000X0*%
%ADD27RoundRect,0.250000X0.250000X0.475000X-0.250000X0.475000X-0.250000X-0.475000X0.250000X-0.475000X0*%
%ADD28RoundRect,0.250000X-0.250000X-0.475000X0.250000X-0.475000X0.250000X0.475000X-0.250000X0.475000X0*%
%ADD29RoundRect,0.218750X-0.218750X-0.256250X0.218750X-0.256250X0.218750X0.256250X-0.218750X0.256250X0*%
%ADD30R,3.500000X2.350000*%
%ADD31RoundRect,0.112500X0.187500X0.112500X-0.187500X0.112500X-0.187500X-0.112500X0.187500X-0.112500X0*%
%ADD32RoundRect,0.112500X-0.187500X-0.112500X0.187500X-0.112500X0.187500X0.112500X-0.187500X0.112500X0*%
%ADD33RoundRect,0.150000X0.500000X-0.150000X0.500000X0.150000X-0.500000X0.150000X-0.500000X-0.150000X0*%
%ADD34RoundRect,0.075000X0.575000X-0.075000X0.575000X0.075000X-0.575000X0.075000X-0.575000X-0.075000X0*%
%ADD35RoundRect,0.147500X0.147500X0.172500X-0.147500X0.172500X-0.147500X-0.172500X0.147500X-0.172500X0*%
%ADD36RoundRect,0.150000X0.512500X0.150000X-0.512500X0.150000X-0.512500X-0.150000X0.512500X-0.150000X0*%
%ADD37RoundRect,0.218750X0.218750X0.256250X-0.218750X0.256250X-0.218750X-0.256250X0.218750X-0.256250X0*%
G04 APERTURE END LIST*
D10*
%TO.C,U100*%
X102425000Y-51250000D03*
X102425000Y-51750000D03*
X102425000Y-52250000D03*
X102425000Y-52750000D03*
X102425000Y-53250000D03*
X102425000Y-53750000D03*
X102425000Y-54250000D03*
X102425000Y-54750000D03*
X102425000Y-55250000D03*
X102425000Y-55750000D03*
X102425000Y-56250000D03*
X102425000Y-56750000D03*
X102425000Y-57250000D03*
X102425000Y-57750000D03*
X102425000Y-58250000D03*
X102425000Y-58750000D03*
D11*
X104350000Y-60675000D03*
X104850000Y-60675000D03*
X105350000Y-60675000D03*
X105850000Y-60675000D03*
X106350000Y-60675000D03*
X106850000Y-60675000D03*
X107350000Y-60675000D03*
X107850000Y-60675000D03*
X108350000Y-60675000D03*
X108850000Y-60675000D03*
X109350000Y-60675000D03*
X109850000Y-60675000D03*
X110350000Y-60675000D03*
X110850000Y-60675000D03*
X111350000Y-60675000D03*
X111850000Y-60675000D03*
D10*
X113775000Y-58750000D03*
X113775000Y-58250000D03*
X113775000Y-57750000D03*
X113775000Y-57250000D03*
X113775000Y-56750000D03*
X113775000Y-56250000D03*
X113775000Y-55750000D03*
X113775000Y-55250000D03*
X113775000Y-54750000D03*
X113775000Y-54250000D03*
X113775000Y-53750000D03*
X113775000Y-53250000D03*
X113775000Y-52750000D03*
X113775000Y-52250000D03*
X113775000Y-51750000D03*
X113775000Y-51250000D03*
D11*
X111850000Y-49325000D03*
X111350000Y-49325000D03*
X110850000Y-49325000D03*
X110350000Y-49325000D03*
X109850000Y-49325000D03*
X109350000Y-49325000D03*
X108850000Y-49325000D03*
X108350000Y-49325000D03*
X107850000Y-49325000D03*
X107350000Y-49325000D03*
X106850000Y-49325000D03*
X106350000Y-49325000D03*
X105850000Y-49325000D03*
X105350000Y-49325000D03*
X104850000Y-49325000D03*
X104350000Y-49325000D03*
%TD*%
D12*
%TO.C,C105*%
X113170000Y-61200000D03*
X114130000Y-61200000D03*
%TD*%
D13*
%TO.C,U201*%
X121314249Y-55000000D03*
X121314249Y-54000000D03*
X119155249Y-54000000D03*
X119155249Y-55000000D03*
%TD*%
D14*
%TO.C,Y100*%
X93700000Y-49800000D03*
X91500000Y-49800000D03*
X91500000Y-51500000D03*
X93700000Y-51500000D03*
%TD*%
D15*
%TO.C,U300*%
X126750000Y-68750000D03*
X127700000Y-68750000D03*
X128650000Y-68750000D03*
X128650000Y-66475000D03*
X126750000Y-66475000D03*
%TD*%
D16*
%TO.C,C304*%
X123900000Y-68280000D03*
X123900000Y-67320000D03*
%TD*%
%TO.C,C102*%
X100450000Y-50630000D03*
X100450000Y-49670000D03*
%TD*%
D17*
%TO.C,D100*%
X131560000Y-39610000D03*
X131560000Y-41710000D03*
%TD*%
D18*
%TO.C,R102*%
X86600000Y-66010000D03*
X86600000Y-64990000D03*
%TD*%
D19*
%TO.C,L300*%
X126100000Y-58215000D03*
X126100000Y-59185000D03*
%TD*%
D20*
%TO.C,R100*%
X86600000Y-43990000D03*
X86600000Y-45010000D03*
%TD*%
D21*
%TO.C,R101*%
X109950000Y-66950000D03*
X108930000Y-66950000D03*
%TD*%
D22*
%TO.C,R302*%
X131190000Y-62500000D03*
X132210000Y-62500000D03*
%TD*%
D12*
%TO.C,C111*%
X90920000Y-53050000D03*
X91880000Y-53050000D03*
%TD*%
D21*
%TO.C,R103*%
X91910000Y-54200000D03*
X90890000Y-54200000D03*
%TD*%
D22*
%TO.C,R105*%
X127400000Y-41860000D03*
X128420000Y-41860000D03*
%TD*%
D23*
%TO.C,C301*%
X124675000Y-59700000D03*
X123125000Y-59700000D03*
%TD*%
D20*
%TO.C,R301*%
X125200000Y-64740000D03*
X125200000Y-65760000D03*
%TD*%
D24*
%TO.C,C115*%
X117400000Y-51250000D03*
X117400000Y-49350000D03*
%TD*%
D20*
%TO.C,R107*%
X88500000Y-51600000D03*
X88500000Y-52620000D03*
%TD*%
D25*
%TO.C,C101*%
X98850000Y-50825000D03*
X98850000Y-49275000D03*
%TD*%
D16*
%TO.C,C100*%
X86600000Y-63780000D03*
X86600000Y-62820000D03*
%TD*%
D26*
%TO.C,C106*%
X104980000Y-62500000D03*
X104020000Y-62500000D03*
%TD*%
%TO.C,C200*%
X124014749Y-52150000D03*
X123054749Y-52150000D03*
%TD*%
D27*
%TO.C,C303*%
X128550000Y-71350000D03*
X126650000Y-71350000D03*
%TD*%
D21*
%TO.C,R104*%
X92010000Y-48200000D03*
X90990000Y-48200000D03*
%TD*%
%TO.C,R106*%
X126170000Y-41860000D03*
X125150000Y-41860000D03*
%TD*%
D12*
%TO.C,C104*%
X114120000Y-50100000D03*
X115080000Y-50100000D03*
%TD*%
D28*
%TO.C,C114*%
X111950000Y-63050000D03*
X113850000Y-63050000D03*
%TD*%
D22*
%TO.C,R200*%
X131220000Y-61300000D03*
X132240000Y-61300000D03*
%TD*%
%TO.C,R108*%
X131090000Y-47600000D03*
X132110000Y-47600000D03*
%TD*%
D29*
%TO.C,D300*%
X133812500Y-61800000D03*
X135387500Y-61800000D03*
%TD*%
D27*
%TO.C,C302*%
X128750000Y-64050000D03*
X126850000Y-64050000D03*
%TD*%
D23*
%TO.C,C300*%
X124675000Y-57700000D03*
X123125000Y-57700000D03*
%TD*%
D14*
%TO.C,Y1*%
X93800000Y-43900000D03*
X91600000Y-43900000D03*
X91600000Y-45600000D03*
X93800000Y-45600000D03*
%TD*%
D30*
%TO.C,L301*%
X133550000Y-64850000D03*
X133550000Y-70900000D03*
%TD*%
D12*
%TO.C,C103*%
X103620000Y-47500000D03*
X104580000Y-47500000D03*
%TD*%
D26*
%TO.C,C112*%
X95280000Y-47100000D03*
X94320000Y-47100000D03*
%TD*%
D31*
%TO.C,D102*%
X126010000Y-40060000D03*
X123910000Y-40060000D03*
%TD*%
D32*
%TO.C,D101*%
X127660000Y-40060000D03*
X129760000Y-40060000D03*
%TD*%
D33*
%TO.C,J200*%
X130055000Y-58200000D03*
X130055000Y-57400000D03*
D34*
X130055000Y-56250000D03*
X130055000Y-55250000D03*
X130055000Y-54750000D03*
X130055000Y-53750000D03*
D33*
X130055000Y-52600000D03*
X130055000Y-51800000D03*
X130055000Y-51800000D03*
X130055000Y-52600000D03*
D34*
X130055000Y-53250000D03*
X130055000Y-54250000D03*
X130055000Y-55750000D03*
X130055000Y-56750000D03*
D33*
X130055000Y-57400000D03*
X130055000Y-58200000D03*
%TD*%
D25*
%TO.C,C108*%
X97300000Y-58950000D03*
X97300000Y-57400000D03*
%TD*%
D16*
%TO.C,C107*%
X98800000Y-58630000D03*
X98800000Y-57670000D03*
%TD*%
D20*
%TO.C,R300*%
X125200000Y-67265000D03*
X125200000Y-68285000D03*
%TD*%
D12*
%TO.C,C113*%
X91020000Y-47100000D03*
X91980000Y-47100000D03*
%TD*%
D25*
%TO.C,C109*%
X95500000Y-58950000D03*
X95500000Y-57400000D03*
%TD*%
D35*
%TO.C,L100*%
X96885000Y-60350000D03*
X95915000Y-60350000D03*
%TD*%
D36*
%TO.C,U200*%
X125822249Y-55450000D03*
X125822249Y-54500000D03*
X125822249Y-53550000D03*
X123547249Y-53550000D03*
X123547249Y-54500000D03*
X123547249Y-55450000D03*
%TD*%
D37*
%TO.C,D103*%
X135287500Y-48200000D03*
X133712500Y-48200000D03*
%TD*%
D22*
%TO.C,R201*%
X131090000Y-48750000D03*
X132110000Y-48750000D03*
%TD*%
D26*
%TO.C,C110*%
X95080000Y-53050000D03*
X94120000Y-53050000D03*
%TD*%
M02*
