%TF.GenerationSoftware,KiCad,Pcbnew,8.0.7*%
%TF.CreationDate,2024-12-25T08:40:24+02:00*%
%TF.ProjectId,STM32F405RGT6_BlackPill,53544d33-3246-4343-9035-524754365f42,rev?*%
%TF.SameCoordinates,Original*%
%TF.FileFunction,Legend,Top*%
%TF.FilePolarity,Positive*%
%FSLAX46Y46*%
G04 Gerber Fmt 4.6, Leading zero omitted, Abs format (unit mm)*
G04 Created by KiCad (PCBNEW 8.0.7) date 2024-12-25 08:40:24*
%MOMM*%
%LPD*%
G01*
G04 APERTURE LIST*
%ADD10C,0.125000*%
%ADD11C,0.120000*%
%ADD12C,0.152400*%
G04 APERTURE END LIST*
D10*
X119756119Y-67836811D02*
X119732309Y-67884430D01*
X119732309Y-67884430D02*
X119732309Y-67955859D01*
X119732309Y-67955859D02*
X119756119Y-68027287D01*
X119756119Y-68027287D02*
X119803738Y-68074906D01*
X119803738Y-68074906D02*
X119851357Y-68098716D01*
X119851357Y-68098716D02*
X119946595Y-68122525D01*
X119946595Y-68122525D02*
X120018023Y-68122525D01*
X120018023Y-68122525D02*
X120113261Y-68098716D01*
X120113261Y-68098716D02*
X120160880Y-68074906D01*
X120160880Y-68074906D02*
X120208500Y-68027287D01*
X120208500Y-68027287D02*
X120232309Y-67955859D01*
X120232309Y-67955859D02*
X120232309Y-67908240D01*
X120232309Y-67908240D02*
X120208500Y-67836811D01*
X120208500Y-67836811D02*
X120184690Y-67813002D01*
X120184690Y-67813002D02*
X120018023Y-67813002D01*
X120018023Y-67813002D02*
X120018023Y-67908240D01*
X120232309Y-67598716D02*
X119732309Y-67598716D01*
X119732309Y-67598716D02*
X120232309Y-67313002D01*
X120232309Y-67313002D02*
X119732309Y-67313002D01*
X120232309Y-67074906D02*
X119732309Y-67074906D01*
X119732309Y-67074906D02*
X119732309Y-66955858D01*
X119732309Y-66955858D02*
X119756119Y-66884430D01*
X119756119Y-66884430D02*
X119803738Y-66836811D01*
X119803738Y-66836811D02*
X119851357Y-66813001D01*
X119851357Y-66813001D02*
X119946595Y-66789192D01*
X119946595Y-66789192D02*
X120018023Y-66789192D01*
X120018023Y-66789192D02*
X120113261Y-66813001D01*
X120113261Y-66813001D02*
X120160880Y-66836811D01*
X120160880Y-66836811D02*
X120208500Y-66884430D01*
X120208500Y-66884430D02*
X120232309Y-66955858D01*
X120232309Y-66955858D02*
X120232309Y-67074906D01*
X120398976Y-66455858D02*
X119684690Y-66455858D01*
X120041833Y-66098716D02*
X120041833Y-65717764D01*
X120232309Y-65908240D02*
X119851357Y-65908240D01*
X119732309Y-65241573D02*
X119732309Y-65479668D01*
X119732309Y-65479668D02*
X119970404Y-65503477D01*
X119970404Y-65503477D02*
X119946595Y-65479668D01*
X119946595Y-65479668D02*
X119922785Y-65432049D01*
X119922785Y-65432049D02*
X119922785Y-65313001D01*
X119922785Y-65313001D02*
X119946595Y-65265382D01*
X119946595Y-65265382D02*
X119970404Y-65241573D01*
X119970404Y-65241573D02*
X120018023Y-65217763D01*
X120018023Y-65217763D02*
X120137071Y-65217763D01*
X120137071Y-65217763D02*
X120184690Y-65241573D01*
X120184690Y-65241573D02*
X120208500Y-65265382D01*
X120208500Y-65265382D02*
X120232309Y-65313001D01*
X120232309Y-65313001D02*
X120232309Y-65432049D01*
X120232309Y-65432049D02*
X120208500Y-65479668D01*
X120208500Y-65479668D02*
X120184690Y-65503477D01*
X119732309Y-65074906D02*
X120232309Y-64908240D01*
X120232309Y-64908240D02*
X119732309Y-64741573D01*
X117632309Y-68298716D02*
X117132309Y-68298716D01*
X117132309Y-68298716D02*
X117132309Y-68108240D01*
X117132309Y-68108240D02*
X117156119Y-68060621D01*
X117156119Y-68060621D02*
X117179928Y-68036811D01*
X117179928Y-68036811D02*
X117227547Y-68013002D01*
X117227547Y-68013002D02*
X117298976Y-68013002D01*
X117298976Y-68013002D02*
X117346595Y-68036811D01*
X117346595Y-68036811D02*
X117370404Y-68060621D01*
X117370404Y-68060621D02*
X117394214Y-68108240D01*
X117394214Y-68108240D02*
X117394214Y-68298716D01*
X117584690Y-67513002D02*
X117608500Y-67536811D01*
X117608500Y-67536811D02*
X117632309Y-67608240D01*
X117632309Y-67608240D02*
X117632309Y-67655859D01*
X117632309Y-67655859D02*
X117608500Y-67727287D01*
X117608500Y-67727287D02*
X117560880Y-67774906D01*
X117560880Y-67774906D02*
X117513261Y-67798716D01*
X117513261Y-67798716D02*
X117418023Y-67822525D01*
X117418023Y-67822525D02*
X117346595Y-67822525D01*
X117346595Y-67822525D02*
X117251357Y-67798716D01*
X117251357Y-67798716D02*
X117203738Y-67774906D01*
X117203738Y-67774906D02*
X117156119Y-67727287D01*
X117156119Y-67727287D02*
X117132309Y-67655859D01*
X117132309Y-67655859D02*
X117132309Y-67608240D01*
X117132309Y-67608240D02*
X117156119Y-67536811D01*
X117156119Y-67536811D02*
X117179928Y-67513002D01*
X117632309Y-67274906D02*
X117632309Y-67179668D01*
X117632309Y-67179668D02*
X117608500Y-67132049D01*
X117608500Y-67132049D02*
X117584690Y-67108240D01*
X117584690Y-67108240D02*
X117513261Y-67060621D01*
X117513261Y-67060621D02*
X117418023Y-67036811D01*
X117418023Y-67036811D02*
X117227547Y-67036811D01*
X117227547Y-67036811D02*
X117179928Y-67060621D01*
X117179928Y-67060621D02*
X117156119Y-67084430D01*
X117156119Y-67084430D02*
X117132309Y-67132049D01*
X117132309Y-67132049D02*
X117132309Y-67227287D01*
X117132309Y-67227287D02*
X117156119Y-67274906D01*
X117156119Y-67274906D02*
X117179928Y-67298716D01*
X117179928Y-67298716D02*
X117227547Y-67322525D01*
X117227547Y-67322525D02*
X117346595Y-67322525D01*
X117346595Y-67322525D02*
X117394214Y-67298716D01*
X117394214Y-67298716D02*
X117418023Y-67274906D01*
X117418023Y-67274906D02*
X117441833Y-67227287D01*
X117441833Y-67227287D02*
X117441833Y-67132049D01*
X117441833Y-67132049D02*
X117418023Y-67084430D01*
X117418023Y-67084430D02*
X117394214Y-67060621D01*
X117394214Y-67060621D02*
X117346595Y-67036811D01*
X117798976Y-66703478D02*
X117084690Y-66703478D01*
X117632309Y-66346336D02*
X117132309Y-66346336D01*
X117132309Y-66346336D02*
X117132309Y-66155860D01*
X117132309Y-66155860D02*
X117156119Y-66108241D01*
X117156119Y-66108241D02*
X117179928Y-66084431D01*
X117179928Y-66084431D02*
X117227547Y-66060622D01*
X117227547Y-66060622D02*
X117298976Y-66060622D01*
X117298976Y-66060622D02*
X117346595Y-66084431D01*
X117346595Y-66084431D02*
X117370404Y-66108241D01*
X117370404Y-66108241D02*
X117394214Y-66155860D01*
X117394214Y-66155860D02*
X117394214Y-66346336D01*
X117584690Y-65560622D02*
X117608500Y-65584431D01*
X117608500Y-65584431D02*
X117632309Y-65655860D01*
X117632309Y-65655860D02*
X117632309Y-65703479D01*
X117632309Y-65703479D02*
X117608500Y-65774907D01*
X117608500Y-65774907D02*
X117560880Y-65822526D01*
X117560880Y-65822526D02*
X117513261Y-65846336D01*
X117513261Y-65846336D02*
X117418023Y-65870145D01*
X117418023Y-65870145D02*
X117346595Y-65870145D01*
X117346595Y-65870145D02*
X117251357Y-65846336D01*
X117251357Y-65846336D02*
X117203738Y-65822526D01*
X117203738Y-65822526D02*
X117156119Y-65774907D01*
X117156119Y-65774907D02*
X117132309Y-65703479D01*
X117132309Y-65703479D02*
X117132309Y-65655860D01*
X117132309Y-65655860D02*
X117156119Y-65584431D01*
X117156119Y-65584431D02*
X117179928Y-65560622D01*
X117346595Y-65274907D02*
X117322785Y-65322526D01*
X117322785Y-65322526D02*
X117298976Y-65346336D01*
X117298976Y-65346336D02*
X117251357Y-65370145D01*
X117251357Y-65370145D02*
X117227547Y-65370145D01*
X117227547Y-65370145D02*
X117179928Y-65346336D01*
X117179928Y-65346336D02*
X117156119Y-65322526D01*
X117156119Y-65322526D02*
X117132309Y-65274907D01*
X117132309Y-65274907D02*
X117132309Y-65179669D01*
X117132309Y-65179669D02*
X117156119Y-65132050D01*
X117156119Y-65132050D02*
X117179928Y-65108241D01*
X117179928Y-65108241D02*
X117227547Y-65084431D01*
X117227547Y-65084431D02*
X117251357Y-65084431D01*
X117251357Y-65084431D02*
X117298976Y-65108241D01*
X117298976Y-65108241D02*
X117322785Y-65132050D01*
X117322785Y-65132050D02*
X117346595Y-65179669D01*
X117346595Y-65179669D02*
X117346595Y-65274907D01*
X117346595Y-65274907D02*
X117370404Y-65322526D01*
X117370404Y-65322526D02*
X117394214Y-65346336D01*
X117394214Y-65346336D02*
X117441833Y-65370145D01*
X117441833Y-65370145D02*
X117537071Y-65370145D01*
X117537071Y-65370145D02*
X117584690Y-65346336D01*
X117584690Y-65346336D02*
X117608500Y-65322526D01*
X117608500Y-65322526D02*
X117632309Y-65274907D01*
X117632309Y-65274907D02*
X117632309Y-65179669D01*
X117632309Y-65179669D02*
X117608500Y-65132050D01*
X117608500Y-65132050D02*
X117584690Y-65108241D01*
X117584690Y-65108241D02*
X117537071Y-65084431D01*
X117537071Y-65084431D02*
X117441833Y-65084431D01*
X117441833Y-65084431D02*
X117394214Y-65108241D01*
X117394214Y-65108241D02*
X117370404Y-65132050D01*
X117370404Y-65132050D02*
X117346595Y-65179669D01*
X115132309Y-68198716D02*
X114632309Y-68198716D01*
X114632309Y-68198716D02*
X114632309Y-68008240D01*
X114632309Y-68008240D02*
X114656119Y-67960621D01*
X114656119Y-67960621D02*
X114679928Y-67936811D01*
X114679928Y-67936811D02*
X114727547Y-67913002D01*
X114727547Y-67913002D02*
X114798976Y-67913002D01*
X114798976Y-67913002D02*
X114846595Y-67936811D01*
X114846595Y-67936811D02*
X114870404Y-67960621D01*
X114870404Y-67960621D02*
X114894214Y-68008240D01*
X114894214Y-68008240D02*
X114894214Y-68198716D01*
X115084690Y-67413002D02*
X115108500Y-67436811D01*
X115108500Y-67436811D02*
X115132309Y-67508240D01*
X115132309Y-67508240D02*
X115132309Y-67555859D01*
X115132309Y-67555859D02*
X115108500Y-67627287D01*
X115108500Y-67627287D02*
X115060880Y-67674906D01*
X115060880Y-67674906D02*
X115013261Y-67698716D01*
X115013261Y-67698716D02*
X114918023Y-67722525D01*
X114918023Y-67722525D02*
X114846595Y-67722525D01*
X114846595Y-67722525D02*
X114751357Y-67698716D01*
X114751357Y-67698716D02*
X114703738Y-67674906D01*
X114703738Y-67674906D02*
X114656119Y-67627287D01*
X114656119Y-67627287D02*
X114632309Y-67555859D01*
X114632309Y-67555859D02*
X114632309Y-67508240D01*
X114632309Y-67508240D02*
X114656119Y-67436811D01*
X114656119Y-67436811D02*
X114679928Y-67413002D01*
X114632309Y-67246335D02*
X114632309Y-66913002D01*
X114632309Y-66913002D02*
X115132309Y-67127287D01*
X115298976Y-66603478D02*
X114584690Y-66603478D01*
X115132309Y-66246336D02*
X114632309Y-66246336D01*
X114632309Y-66246336D02*
X114632309Y-66055860D01*
X114632309Y-66055860D02*
X114656119Y-66008241D01*
X114656119Y-66008241D02*
X114679928Y-65984431D01*
X114679928Y-65984431D02*
X114727547Y-65960622D01*
X114727547Y-65960622D02*
X114798976Y-65960622D01*
X114798976Y-65960622D02*
X114846595Y-65984431D01*
X114846595Y-65984431D02*
X114870404Y-66008241D01*
X114870404Y-66008241D02*
X114894214Y-66055860D01*
X114894214Y-66055860D02*
X114894214Y-66246336D01*
X115084690Y-65460622D02*
X115108500Y-65484431D01*
X115108500Y-65484431D02*
X115132309Y-65555860D01*
X115132309Y-65555860D02*
X115132309Y-65603479D01*
X115132309Y-65603479D02*
X115108500Y-65674907D01*
X115108500Y-65674907D02*
X115060880Y-65722526D01*
X115060880Y-65722526D02*
X115013261Y-65746336D01*
X115013261Y-65746336D02*
X114918023Y-65770145D01*
X114918023Y-65770145D02*
X114846595Y-65770145D01*
X114846595Y-65770145D02*
X114751357Y-65746336D01*
X114751357Y-65746336D02*
X114703738Y-65722526D01*
X114703738Y-65722526D02*
X114656119Y-65674907D01*
X114656119Y-65674907D02*
X114632309Y-65603479D01*
X114632309Y-65603479D02*
X114632309Y-65555860D01*
X114632309Y-65555860D02*
X114656119Y-65484431D01*
X114656119Y-65484431D02*
X114679928Y-65460622D01*
X114632309Y-65032050D02*
X114632309Y-65127288D01*
X114632309Y-65127288D02*
X114656119Y-65174907D01*
X114656119Y-65174907D02*
X114679928Y-65198717D01*
X114679928Y-65198717D02*
X114751357Y-65246336D01*
X114751357Y-65246336D02*
X114846595Y-65270145D01*
X114846595Y-65270145D02*
X115037071Y-65270145D01*
X115037071Y-65270145D02*
X115084690Y-65246336D01*
X115084690Y-65246336D02*
X115108500Y-65222526D01*
X115108500Y-65222526D02*
X115132309Y-65174907D01*
X115132309Y-65174907D02*
X115132309Y-65079669D01*
X115132309Y-65079669D02*
X115108500Y-65032050D01*
X115108500Y-65032050D02*
X115084690Y-65008241D01*
X115084690Y-65008241D02*
X115037071Y-64984431D01*
X115037071Y-64984431D02*
X114918023Y-64984431D01*
X114918023Y-64984431D02*
X114870404Y-65008241D01*
X114870404Y-65008241D02*
X114846595Y-65032050D01*
X114846595Y-65032050D02*
X114822785Y-65079669D01*
X114822785Y-65079669D02*
X114822785Y-65174907D01*
X114822785Y-65174907D02*
X114846595Y-65222526D01*
X114846595Y-65222526D02*
X114870404Y-65246336D01*
X114870404Y-65246336D02*
X114918023Y-65270145D01*
X112632309Y-68298716D02*
X112132309Y-68298716D01*
X112132309Y-68298716D02*
X112132309Y-68108240D01*
X112132309Y-68108240D02*
X112156119Y-68060621D01*
X112156119Y-68060621D02*
X112179928Y-68036811D01*
X112179928Y-68036811D02*
X112227547Y-68013002D01*
X112227547Y-68013002D02*
X112298976Y-68013002D01*
X112298976Y-68013002D02*
X112346595Y-68036811D01*
X112346595Y-68036811D02*
X112370404Y-68060621D01*
X112370404Y-68060621D02*
X112394214Y-68108240D01*
X112394214Y-68108240D02*
X112394214Y-68298716D01*
X112370404Y-67632049D02*
X112394214Y-67560621D01*
X112394214Y-67560621D02*
X112418023Y-67536811D01*
X112418023Y-67536811D02*
X112465642Y-67513002D01*
X112465642Y-67513002D02*
X112537071Y-67513002D01*
X112537071Y-67513002D02*
X112584690Y-67536811D01*
X112584690Y-67536811D02*
X112608500Y-67560621D01*
X112608500Y-67560621D02*
X112632309Y-67608240D01*
X112632309Y-67608240D02*
X112632309Y-67798716D01*
X112632309Y-67798716D02*
X112132309Y-67798716D01*
X112132309Y-67798716D02*
X112132309Y-67632049D01*
X112132309Y-67632049D02*
X112156119Y-67584430D01*
X112156119Y-67584430D02*
X112179928Y-67560621D01*
X112179928Y-67560621D02*
X112227547Y-67536811D01*
X112227547Y-67536811D02*
X112275166Y-67536811D01*
X112275166Y-67536811D02*
X112322785Y-67560621D01*
X112322785Y-67560621D02*
X112346595Y-67584430D01*
X112346595Y-67584430D02*
X112370404Y-67632049D01*
X112370404Y-67632049D02*
X112370404Y-67798716D01*
X112632309Y-67036811D02*
X112632309Y-67322525D01*
X112632309Y-67179668D02*
X112132309Y-67179668D01*
X112132309Y-67179668D02*
X112203738Y-67227287D01*
X112203738Y-67227287D02*
X112251357Y-67274906D01*
X112251357Y-67274906D02*
X112275166Y-67322525D01*
X112132309Y-66584431D02*
X112132309Y-66822526D01*
X112132309Y-66822526D02*
X112370404Y-66846335D01*
X112370404Y-66846335D02*
X112346595Y-66822526D01*
X112346595Y-66822526D02*
X112322785Y-66774907D01*
X112322785Y-66774907D02*
X112322785Y-66655859D01*
X112322785Y-66655859D02*
X112346595Y-66608240D01*
X112346595Y-66608240D02*
X112370404Y-66584431D01*
X112370404Y-66584431D02*
X112418023Y-66560621D01*
X112418023Y-66560621D02*
X112537071Y-66560621D01*
X112537071Y-66560621D02*
X112584690Y-66584431D01*
X112584690Y-66584431D02*
X112608500Y-66608240D01*
X112608500Y-66608240D02*
X112632309Y-66655859D01*
X112632309Y-66655859D02*
X112632309Y-66774907D01*
X112632309Y-66774907D02*
X112608500Y-66822526D01*
X112608500Y-66822526D02*
X112584690Y-66846335D01*
X112798976Y-66227288D02*
X112084690Y-66227288D01*
X112632309Y-65870146D02*
X112132309Y-65870146D01*
X112132309Y-65870146D02*
X112132309Y-65679670D01*
X112132309Y-65679670D02*
X112156119Y-65632051D01*
X112156119Y-65632051D02*
X112179928Y-65608241D01*
X112179928Y-65608241D02*
X112227547Y-65584432D01*
X112227547Y-65584432D02*
X112298976Y-65584432D01*
X112298976Y-65584432D02*
X112346595Y-65608241D01*
X112346595Y-65608241D02*
X112370404Y-65632051D01*
X112370404Y-65632051D02*
X112394214Y-65679670D01*
X112394214Y-65679670D02*
X112394214Y-65870146D01*
X112370404Y-65203479D02*
X112394214Y-65132051D01*
X112394214Y-65132051D02*
X112418023Y-65108241D01*
X112418023Y-65108241D02*
X112465642Y-65084432D01*
X112465642Y-65084432D02*
X112537071Y-65084432D01*
X112537071Y-65084432D02*
X112584690Y-65108241D01*
X112584690Y-65108241D02*
X112608500Y-65132051D01*
X112608500Y-65132051D02*
X112632309Y-65179670D01*
X112632309Y-65179670D02*
X112632309Y-65370146D01*
X112632309Y-65370146D02*
X112132309Y-65370146D01*
X112132309Y-65370146D02*
X112132309Y-65203479D01*
X112132309Y-65203479D02*
X112156119Y-65155860D01*
X112156119Y-65155860D02*
X112179928Y-65132051D01*
X112179928Y-65132051D02*
X112227547Y-65108241D01*
X112227547Y-65108241D02*
X112275166Y-65108241D01*
X112275166Y-65108241D02*
X112322785Y-65132051D01*
X112322785Y-65132051D02*
X112346595Y-65155860D01*
X112346595Y-65155860D02*
X112370404Y-65203479D01*
X112370404Y-65203479D02*
X112370404Y-65370146D01*
X112632309Y-64608241D02*
X112632309Y-64893955D01*
X112632309Y-64751098D02*
X112132309Y-64751098D01*
X112132309Y-64751098D02*
X112203738Y-64798717D01*
X112203738Y-64798717D02*
X112251357Y-64846336D01*
X112251357Y-64846336D02*
X112275166Y-64893955D01*
X112298976Y-64179670D02*
X112632309Y-64179670D01*
X112108500Y-64298718D02*
X112465642Y-64417765D01*
X112465642Y-64417765D02*
X112465642Y-64108242D01*
X111132309Y-68298716D02*
X110632309Y-68298716D01*
X110632309Y-68298716D02*
X110632309Y-68108240D01*
X110632309Y-68108240D02*
X110656119Y-68060621D01*
X110656119Y-68060621D02*
X110679928Y-68036811D01*
X110679928Y-68036811D02*
X110727547Y-68013002D01*
X110727547Y-68013002D02*
X110798976Y-68013002D01*
X110798976Y-68013002D02*
X110846595Y-68036811D01*
X110846595Y-68036811D02*
X110870404Y-68060621D01*
X110870404Y-68060621D02*
X110894214Y-68108240D01*
X110894214Y-68108240D02*
X110894214Y-68298716D01*
X110870404Y-67632049D02*
X110894214Y-67560621D01*
X110894214Y-67560621D02*
X110918023Y-67536811D01*
X110918023Y-67536811D02*
X110965642Y-67513002D01*
X110965642Y-67513002D02*
X111037071Y-67513002D01*
X111037071Y-67513002D02*
X111084690Y-67536811D01*
X111084690Y-67536811D02*
X111108500Y-67560621D01*
X111108500Y-67560621D02*
X111132309Y-67608240D01*
X111132309Y-67608240D02*
X111132309Y-67798716D01*
X111132309Y-67798716D02*
X110632309Y-67798716D01*
X110632309Y-67798716D02*
X110632309Y-67632049D01*
X110632309Y-67632049D02*
X110656119Y-67584430D01*
X110656119Y-67584430D02*
X110679928Y-67560621D01*
X110679928Y-67560621D02*
X110727547Y-67536811D01*
X110727547Y-67536811D02*
X110775166Y-67536811D01*
X110775166Y-67536811D02*
X110822785Y-67560621D01*
X110822785Y-67560621D02*
X110846595Y-67584430D01*
X110846595Y-67584430D02*
X110870404Y-67632049D01*
X110870404Y-67632049D02*
X110870404Y-67798716D01*
X111132309Y-67036811D02*
X111132309Y-67322525D01*
X111132309Y-67179668D02*
X110632309Y-67179668D01*
X110632309Y-67179668D02*
X110703738Y-67227287D01*
X110703738Y-67227287D02*
X110751357Y-67274906D01*
X110751357Y-67274906D02*
X110775166Y-67322525D01*
X110632309Y-66870145D02*
X110632309Y-66560621D01*
X110632309Y-66560621D02*
X110822785Y-66727288D01*
X110822785Y-66727288D02*
X110822785Y-66655859D01*
X110822785Y-66655859D02*
X110846595Y-66608240D01*
X110846595Y-66608240D02*
X110870404Y-66584431D01*
X110870404Y-66584431D02*
X110918023Y-66560621D01*
X110918023Y-66560621D02*
X111037071Y-66560621D01*
X111037071Y-66560621D02*
X111084690Y-66584431D01*
X111084690Y-66584431D02*
X111108500Y-66608240D01*
X111108500Y-66608240D02*
X111132309Y-66655859D01*
X111132309Y-66655859D02*
X111132309Y-66798716D01*
X111132309Y-66798716D02*
X111108500Y-66846335D01*
X111108500Y-66846335D02*
X111084690Y-66870145D01*
X111298976Y-66227288D02*
X110584690Y-66227288D01*
X111132309Y-65870146D02*
X110632309Y-65870146D01*
X110632309Y-65870146D02*
X110632309Y-65679670D01*
X110632309Y-65679670D02*
X110656119Y-65632051D01*
X110656119Y-65632051D02*
X110679928Y-65608241D01*
X110679928Y-65608241D02*
X110727547Y-65584432D01*
X110727547Y-65584432D02*
X110798976Y-65584432D01*
X110798976Y-65584432D02*
X110846595Y-65608241D01*
X110846595Y-65608241D02*
X110870404Y-65632051D01*
X110870404Y-65632051D02*
X110894214Y-65679670D01*
X110894214Y-65679670D02*
X110894214Y-65870146D01*
X110870404Y-65203479D02*
X110894214Y-65132051D01*
X110894214Y-65132051D02*
X110918023Y-65108241D01*
X110918023Y-65108241D02*
X110965642Y-65084432D01*
X110965642Y-65084432D02*
X111037071Y-65084432D01*
X111037071Y-65084432D02*
X111084690Y-65108241D01*
X111084690Y-65108241D02*
X111108500Y-65132051D01*
X111108500Y-65132051D02*
X111132309Y-65179670D01*
X111132309Y-65179670D02*
X111132309Y-65370146D01*
X111132309Y-65370146D02*
X110632309Y-65370146D01*
X110632309Y-65370146D02*
X110632309Y-65203479D01*
X110632309Y-65203479D02*
X110656119Y-65155860D01*
X110656119Y-65155860D02*
X110679928Y-65132051D01*
X110679928Y-65132051D02*
X110727547Y-65108241D01*
X110727547Y-65108241D02*
X110775166Y-65108241D01*
X110775166Y-65108241D02*
X110822785Y-65132051D01*
X110822785Y-65132051D02*
X110846595Y-65155860D01*
X110846595Y-65155860D02*
X110870404Y-65203479D01*
X110870404Y-65203479D02*
X110870404Y-65370146D01*
X111132309Y-64608241D02*
X111132309Y-64893955D01*
X111132309Y-64751098D02*
X110632309Y-64751098D01*
X110632309Y-64751098D02*
X110703738Y-64798717D01*
X110703738Y-64798717D02*
X110751357Y-64846336D01*
X110751357Y-64846336D02*
X110775166Y-64893955D01*
X110679928Y-64417765D02*
X110656119Y-64393956D01*
X110656119Y-64393956D02*
X110632309Y-64346337D01*
X110632309Y-64346337D02*
X110632309Y-64227289D01*
X110632309Y-64227289D02*
X110656119Y-64179670D01*
X110656119Y-64179670D02*
X110679928Y-64155861D01*
X110679928Y-64155861D02*
X110727547Y-64132051D01*
X110727547Y-64132051D02*
X110775166Y-64132051D01*
X110775166Y-64132051D02*
X110846595Y-64155861D01*
X110846595Y-64155861D02*
X111132309Y-64441575D01*
X111132309Y-64441575D02*
X111132309Y-64132051D01*
X107432309Y-68198716D02*
X106932309Y-68198716D01*
X106932309Y-68198716D02*
X106932309Y-68008240D01*
X106932309Y-68008240D02*
X106956119Y-67960621D01*
X106956119Y-67960621D02*
X106979928Y-67936811D01*
X106979928Y-67936811D02*
X107027547Y-67913002D01*
X107027547Y-67913002D02*
X107098976Y-67913002D01*
X107098976Y-67913002D02*
X107146595Y-67936811D01*
X107146595Y-67936811D02*
X107170404Y-67960621D01*
X107170404Y-67960621D02*
X107194214Y-68008240D01*
X107194214Y-68008240D02*
X107194214Y-68198716D01*
X107170404Y-67532049D02*
X107194214Y-67460621D01*
X107194214Y-67460621D02*
X107218023Y-67436811D01*
X107218023Y-67436811D02*
X107265642Y-67413002D01*
X107265642Y-67413002D02*
X107337071Y-67413002D01*
X107337071Y-67413002D02*
X107384690Y-67436811D01*
X107384690Y-67436811D02*
X107408500Y-67460621D01*
X107408500Y-67460621D02*
X107432309Y-67508240D01*
X107432309Y-67508240D02*
X107432309Y-67698716D01*
X107432309Y-67698716D02*
X106932309Y-67698716D01*
X106932309Y-67698716D02*
X106932309Y-67532049D01*
X106932309Y-67532049D02*
X106956119Y-67484430D01*
X106956119Y-67484430D02*
X106979928Y-67460621D01*
X106979928Y-67460621D02*
X107027547Y-67436811D01*
X107027547Y-67436811D02*
X107075166Y-67436811D01*
X107075166Y-67436811D02*
X107122785Y-67460621D01*
X107122785Y-67460621D02*
X107146595Y-67484430D01*
X107146595Y-67484430D02*
X107170404Y-67532049D01*
X107170404Y-67532049D02*
X107170404Y-67698716D01*
X107432309Y-66936811D02*
X107432309Y-67222525D01*
X107432309Y-67079668D02*
X106932309Y-67079668D01*
X106932309Y-67079668D02*
X107003738Y-67127287D01*
X107003738Y-67127287D02*
X107051357Y-67174906D01*
X107051357Y-67174906D02*
X107075166Y-67222525D01*
X107432309Y-66460621D02*
X107432309Y-66746335D01*
X107432309Y-66603478D02*
X106932309Y-66603478D01*
X106932309Y-66603478D02*
X107003738Y-66651097D01*
X107003738Y-66651097D02*
X107051357Y-66698716D01*
X107051357Y-66698716D02*
X107075166Y-66746335D01*
X107598976Y-66127288D02*
X106884690Y-66127288D01*
X107432309Y-65770146D02*
X106932309Y-65770146D01*
X106932309Y-65770146D02*
X106932309Y-65579670D01*
X106932309Y-65579670D02*
X106956119Y-65532051D01*
X106956119Y-65532051D02*
X106979928Y-65508241D01*
X106979928Y-65508241D02*
X107027547Y-65484432D01*
X107027547Y-65484432D02*
X107098976Y-65484432D01*
X107098976Y-65484432D02*
X107146595Y-65508241D01*
X107146595Y-65508241D02*
X107170404Y-65532051D01*
X107170404Y-65532051D02*
X107194214Y-65579670D01*
X107194214Y-65579670D02*
X107194214Y-65770146D01*
X107170404Y-65103479D02*
X107194214Y-65032051D01*
X107194214Y-65032051D02*
X107218023Y-65008241D01*
X107218023Y-65008241D02*
X107265642Y-64984432D01*
X107265642Y-64984432D02*
X107337071Y-64984432D01*
X107337071Y-64984432D02*
X107384690Y-65008241D01*
X107384690Y-65008241D02*
X107408500Y-65032051D01*
X107408500Y-65032051D02*
X107432309Y-65079670D01*
X107432309Y-65079670D02*
X107432309Y-65270146D01*
X107432309Y-65270146D02*
X106932309Y-65270146D01*
X106932309Y-65270146D02*
X106932309Y-65103479D01*
X106932309Y-65103479D02*
X106956119Y-65055860D01*
X106956119Y-65055860D02*
X106979928Y-65032051D01*
X106979928Y-65032051D02*
X107027547Y-65008241D01*
X107027547Y-65008241D02*
X107075166Y-65008241D01*
X107075166Y-65008241D02*
X107122785Y-65032051D01*
X107122785Y-65032051D02*
X107146595Y-65055860D01*
X107146595Y-65055860D02*
X107170404Y-65103479D01*
X107170404Y-65103479D02*
X107170404Y-65270146D01*
X107432309Y-64508241D02*
X107432309Y-64793955D01*
X107432309Y-64651098D02*
X106932309Y-64651098D01*
X106932309Y-64651098D02*
X107003738Y-64698717D01*
X107003738Y-64698717D02*
X107051357Y-64746336D01*
X107051357Y-64746336D02*
X107075166Y-64793955D01*
X106932309Y-64198718D02*
X106932309Y-64151099D01*
X106932309Y-64151099D02*
X106956119Y-64103480D01*
X106956119Y-64103480D02*
X106979928Y-64079670D01*
X106979928Y-64079670D02*
X107027547Y-64055861D01*
X107027547Y-64055861D02*
X107122785Y-64032051D01*
X107122785Y-64032051D02*
X107241833Y-64032051D01*
X107241833Y-64032051D02*
X107337071Y-64055861D01*
X107337071Y-64055861D02*
X107384690Y-64079670D01*
X107384690Y-64079670D02*
X107408500Y-64103480D01*
X107408500Y-64103480D02*
X107432309Y-64151099D01*
X107432309Y-64151099D02*
X107432309Y-64198718D01*
X107432309Y-64198718D02*
X107408500Y-64246337D01*
X107408500Y-64246337D02*
X107384690Y-64270146D01*
X107384690Y-64270146D02*
X107337071Y-64293956D01*
X107337071Y-64293956D02*
X107241833Y-64317765D01*
X107241833Y-64317765D02*
X107122785Y-64317765D01*
X107122785Y-64317765D02*
X107027547Y-64293956D01*
X107027547Y-64293956D02*
X106979928Y-64270146D01*
X106979928Y-64270146D02*
X106956119Y-64246337D01*
X106956119Y-64246337D02*
X106932309Y-64198718D01*
X104932309Y-68198716D02*
X104432309Y-68198716D01*
X104432309Y-68198716D02*
X104432309Y-68008240D01*
X104432309Y-68008240D02*
X104456119Y-67960621D01*
X104456119Y-67960621D02*
X104479928Y-67936811D01*
X104479928Y-67936811D02*
X104527547Y-67913002D01*
X104527547Y-67913002D02*
X104598976Y-67913002D01*
X104598976Y-67913002D02*
X104646595Y-67936811D01*
X104646595Y-67936811D02*
X104670404Y-67960621D01*
X104670404Y-67960621D02*
X104694214Y-68008240D01*
X104694214Y-68008240D02*
X104694214Y-68198716D01*
X104670404Y-67532049D02*
X104694214Y-67460621D01*
X104694214Y-67460621D02*
X104718023Y-67436811D01*
X104718023Y-67436811D02*
X104765642Y-67413002D01*
X104765642Y-67413002D02*
X104837071Y-67413002D01*
X104837071Y-67413002D02*
X104884690Y-67436811D01*
X104884690Y-67436811D02*
X104908500Y-67460621D01*
X104908500Y-67460621D02*
X104932309Y-67508240D01*
X104932309Y-67508240D02*
X104932309Y-67698716D01*
X104932309Y-67698716D02*
X104432309Y-67698716D01*
X104432309Y-67698716D02*
X104432309Y-67532049D01*
X104432309Y-67532049D02*
X104456119Y-67484430D01*
X104456119Y-67484430D02*
X104479928Y-67460621D01*
X104479928Y-67460621D02*
X104527547Y-67436811D01*
X104527547Y-67436811D02*
X104575166Y-67436811D01*
X104575166Y-67436811D02*
X104622785Y-67460621D01*
X104622785Y-67460621D02*
X104646595Y-67484430D01*
X104646595Y-67484430D02*
X104670404Y-67532049D01*
X104670404Y-67532049D02*
X104670404Y-67698716D01*
X104932309Y-66936811D02*
X104932309Y-67222525D01*
X104932309Y-67079668D02*
X104432309Y-67079668D01*
X104432309Y-67079668D02*
X104503738Y-67127287D01*
X104503738Y-67127287D02*
X104551357Y-67174906D01*
X104551357Y-67174906D02*
X104575166Y-67222525D01*
X105098976Y-66603478D02*
X104384690Y-66603478D01*
X104932309Y-66246336D02*
X104432309Y-66246336D01*
X104432309Y-66246336D02*
X104432309Y-66055860D01*
X104432309Y-66055860D02*
X104456119Y-66008241D01*
X104456119Y-66008241D02*
X104479928Y-65984431D01*
X104479928Y-65984431D02*
X104527547Y-65960622D01*
X104527547Y-65960622D02*
X104598976Y-65960622D01*
X104598976Y-65960622D02*
X104646595Y-65984431D01*
X104646595Y-65984431D02*
X104670404Y-66008241D01*
X104670404Y-66008241D02*
X104694214Y-66055860D01*
X104694214Y-66055860D02*
X104694214Y-66246336D01*
X104670404Y-65579669D02*
X104694214Y-65508241D01*
X104694214Y-65508241D02*
X104718023Y-65484431D01*
X104718023Y-65484431D02*
X104765642Y-65460622D01*
X104765642Y-65460622D02*
X104837071Y-65460622D01*
X104837071Y-65460622D02*
X104884690Y-65484431D01*
X104884690Y-65484431D02*
X104908500Y-65508241D01*
X104908500Y-65508241D02*
X104932309Y-65555860D01*
X104932309Y-65555860D02*
X104932309Y-65746336D01*
X104932309Y-65746336D02*
X104432309Y-65746336D01*
X104432309Y-65746336D02*
X104432309Y-65579669D01*
X104432309Y-65579669D02*
X104456119Y-65532050D01*
X104456119Y-65532050D02*
X104479928Y-65508241D01*
X104479928Y-65508241D02*
X104527547Y-65484431D01*
X104527547Y-65484431D02*
X104575166Y-65484431D01*
X104575166Y-65484431D02*
X104622785Y-65508241D01*
X104622785Y-65508241D02*
X104646595Y-65532050D01*
X104646595Y-65532050D02*
X104670404Y-65579669D01*
X104670404Y-65579669D02*
X104670404Y-65746336D01*
X104432309Y-65151098D02*
X104432309Y-65103479D01*
X104432309Y-65103479D02*
X104456119Y-65055860D01*
X104456119Y-65055860D02*
X104479928Y-65032050D01*
X104479928Y-65032050D02*
X104527547Y-65008241D01*
X104527547Y-65008241D02*
X104622785Y-64984431D01*
X104622785Y-64984431D02*
X104741833Y-64984431D01*
X104741833Y-64984431D02*
X104837071Y-65008241D01*
X104837071Y-65008241D02*
X104884690Y-65032050D01*
X104884690Y-65032050D02*
X104908500Y-65055860D01*
X104908500Y-65055860D02*
X104932309Y-65103479D01*
X104932309Y-65103479D02*
X104932309Y-65151098D01*
X104932309Y-65151098D02*
X104908500Y-65198717D01*
X104908500Y-65198717D02*
X104884690Y-65222526D01*
X104884690Y-65222526D02*
X104837071Y-65246336D01*
X104837071Y-65246336D02*
X104741833Y-65270145D01*
X104741833Y-65270145D02*
X104622785Y-65270145D01*
X104622785Y-65270145D02*
X104527547Y-65246336D01*
X104527547Y-65246336D02*
X104479928Y-65222526D01*
X104479928Y-65222526D02*
X104456119Y-65198717D01*
X104456119Y-65198717D02*
X104432309Y-65151098D01*
X102332309Y-68298716D02*
X101832309Y-68298716D01*
X101832309Y-68298716D02*
X101832309Y-68108240D01*
X101832309Y-68108240D02*
X101856119Y-68060621D01*
X101856119Y-68060621D02*
X101879928Y-68036811D01*
X101879928Y-68036811D02*
X101927547Y-68013002D01*
X101927547Y-68013002D02*
X101998976Y-68013002D01*
X101998976Y-68013002D02*
X102046595Y-68036811D01*
X102046595Y-68036811D02*
X102070404Y-68060621D01*
X102070404Y-68060621D02*
X102094214Y-68108240D01*
X102094214Y-68108240D02*
X102094214Y-68298716D01*
X102284690Y-67513002D02*
X102308500Y-67536811D01*
X102308500Y-67536811D02*
X102332309Y-67608240D01*
X102332309Y-67608240D02*
X102332309Y-67655859D01*
X102332309Y-67655859D02*
X102308500Y-67727287D01*
X102308500Y-67727287D02*
X102260880Y-67774906D01*
X102260880Y-67774906D02*
X102213261Y-67798716D01*
X102213261Y-67798716D02*
X102118023Y-67822525D01*
X102118023Y-67822525D02*
X102046595Y-67822525D01*
X102046595Y-67822525D02*
X101951357Y-67798716D01*
X101951357Y-67798716D02*
X101903738Y-67774906D01*
X101903738Y-67774906D02*
X101856119Y-67727287D01*
X101856119Y-67727287D02*
X101832309Y-67655859D01*
X101832309Y-67655859D02*
X101832309Y-67608240D01*
X101832309Y-67608240D02*
X101856119Y-67536811D01*
X101856119Y-67536811D02*
X101879928Y-67513002D01*
X101832309Y-67060621D02*
X101832309Y-67298716D01*
X101832309Y-67298716D02*
X102070404Y-67322525D01*
X102070404Y-67322525D02*
X102046595Y-67298716D01*
X102046595Y-67298716D02*
X102022785Y-67251097D01*
X102022785Y-67251097D02*
X102022785Y-67132049D01*
X102022785Y-67132049D02*
X102046595Y-67084430D01*
X102046595Y-67084430D02*
X102070404Y-67060621D01*
X102070404Y-67060621D02*
X102118023Y-67036811D01*
X102118023Y-67036811D02*
X102237071Y-67036811D01*
X102237071Y-67036811D02*
X102284690Y-67060621D01*
X102284690Y-67060621D02*
X102308500Y-67084430D01*
X102308500Y-67084430D02*
X102332309Y-67132049D01*
X102332309Y-67132049D02*
X102332309Y-67251097D01*
X102332309Y-67251097D02*
X102308500Y-67298716D01*
X102308500Y-67298716D02*
X102284690Y-67322525D01*
X102498976Y-66703478D02*
X101784690Y-66703478D01*
X102332309Y-66346336D02*
X101832309Y-66346336D01*
X101832309Y-66346336D02*
X101832309Y-66155860D01*
X101832309Y-66155860D02*
X101856119Y-66108241D01*
X101856119Y-66108241D02*
X101879928Y-66084431D01*
X101879928Y-66084431D02*
X101927547Y-66060622D01*
X101927547Y-66060622D02*
X101998976Y-66060622D01*
X101998976Y-66060622D02*
X102046595Y-66084431D01*
X102046595Y-66084431D02*
X102070404Y-66108241D01*
X102070404Y-66108241D02*
X102094214Y-66155860D01*
X102094214Y-66155860D02*
X102094214Y-66346336D01*
X102284690Y-65560622D02*
X102308500Y-65584431D01*
X102308500Y-65584431D02*
X102332309Y-65655860D01*
X102332309Y-65655860D02*
X102332309Y-65703479D01*
X102332309Y-65703479D02*
X102308500Y-65774907D01*
X102308500Y-65774907D02*
X102260880Y-65822526D01*
X102260880Y-65822526D02*
X102213261Y-65846336D01*
X102213261Y-65846336D02*
X102118023Y-65870145D01*
X102118023Y-65870145D02*
X102046595Y-65870145D01*
X102046595Y-65870145D02*
X101951357Y-65846336D01*
X101951357Y-65846336D02*
X101903738Y-65822526D01*
X101903738Y-65822526D02*
X101856119Y-65774907D01*
X101856119Y-65774907D02*
X101832309Y-65703479D01*
X101832309Y-65703479D02*
X101832309Y-65655860D01*
X101832309Y-65655860D02*
X101856119Y-65584431D01*
X101856119Y-65584431D02*
X101879928Y-65560622D01*
X101998976Y-65132050D02*
X102332309Y-65132050D01*
X101808500Y-65251098D02*
X102165642Y-65370145D01*
X102165642Y-65370145D02*
X102165642Y-65060622D01*
X99932309Y-68198716D02*
X99432309Y-68198716D01*
X99432309Y-68198716D02*
X99432309Y-68008240D01*
X99432309Y-68008240D02*
X99456119Y-67960621D01*
X99456119Y-67960621D02*
X99479928Y-67936811D01*
X99479928Y-67936811D02*
X99527547Y-67913002D01*
X99527547Y-67913002D02*
X99598976Y-67913002D01*
X99598976Y-67913002D02*
X99646595Y-67936811D01*
X99646595Y-67936811D02*
X99670404Y-67960621D01*
X99670404Y-67960621D02*
X99694214Y-68008240D01*
X99694214Y-68008240D02*
X99694214Y-68198716D01*
X99789452Y-67722525D02*
X99789452Y-67484430D01*
X99932309Y-67770144D02*
X99432309Y-67603478D01*
X99432309Y-67603478D02*
X99932309Y-67436811D01*
X99432309Y-67317764D02*
X99432309Y-66984431D01*
X99432309Y-66984431D02*
X99932309Y-67198716D01*
X100098976Y-66674907D02*
X99384690Y-66674907D01*
X99932309Y-66317765D02*
X99432309Y-66317765D01*
X99432309Y-66317765D02*
X99432309Y-66127289D01*
X99432309Y-66127289D02*
X99456119Y-66079670D01*
X99456119Y-66079670D02*
X99479928Y-66055860D01*
X99479928Y-66055860D02*
X99527547Y-66032051D01*
X99527547Y-66032051D02*
X99598976Y-66032051D01*
X99598976Y-66032051D02*
X99646595Y-66055860D01*
X99646595Y-66055860D02*
X99670404Y-66079670D01*
X99670404Y-66079670D02*
X99694214Y-66127289D01*
X99694214Y-66127289D02*
X99694214Y-66317765D01*
X99789452Y-65841574D02*
X99789452Y-65603479D01*
X99932309Y-65889193D02*
X99432309Y-65722527D01*
X99432309Y-65722527D02*
X99932309Y-65555860D01*
X99432309Y-65174908D02*
X99432309Y-65270146D01*
X99432309Y-65270146D02*
X99456119Y-65317765D01*
X99456119Y-65317765D02*
X99479928Y-65341575D01*
X99479928Y-65341575D02*
X99551357Y-65389194D01*
X99551357Y-65389194D02*
X99646595Y-65413003D01*
X99646595Y-65413003D02*
X99837071Y-65413003D01*
X99837071Y-65413003D02*
X99884690Y-65389194D01*
X99884690Y-65389194D02*
X99908500Y-65365384D01*
X99908500Y-65365384D02*
X99932309Y-65317765D01*
X99932309Y-65317765D02*
X99932309Y-65222527D01*
X99932309Y-65222527D02*
X99908500Y-65174908D01*
X99908500Y-65174908D02*
X99884690Y-65151099D01*
X99884690Y-65151099D02*
X99837071Y-65127289D01*
X99837071Y-65127289D02*
X99718023Y-65127289D01*
X99718023Y-65127289D02*
X99670404Y-65151099D01*
X99670404Y-65151099D02*
X99646595Y-65174908D01*
X99646595Y-65174908D02*
X99622785Y-65222527D01*
X99622785Y-65222527D02*
X99622785Y-65317765D01*
X99622785Y-65317765D02*
X99646595Y-65365384D01*
X99646595Y-65365384D02*
X99670404Y-65389194D01*
X99670404Y-65389194D02*
X99718023Y-65413003D01*
X97332309Y-68198716D02*
X96832309Y-68198716D01*
X96832309Y-68198716D02*
X96832309Y-68008240D01*
X96832309Y-68008240D02*
X96856119Y-67960621D01*
X96856119Y-67960621D02*
X96879928Y-67936811D01*
X96879928Y-67936811D02*
X96927547Y-67913002D01*
X96927547Y-67913002D02*
X96998976Y-67913002D01*
X96998976Y-67913002D02*
X97046595Y-67936811D01*
X97046595Y-67936811D02*
X97070404Y-67960621D01*
X97070404Y-67960621D02*
X97094214Y-68008240D01*
X97094214Y-68008240D02*
X97094214Y-68198716D01*
X97189452Y-67722525D02*
X97189452Y-67484430D01*
X97332309Y-67770144D02*
X96832309Y-67603478D01*
X96832309Y-67603478D02*
X97332309Y-67436811D01*
X96832309Y-67032050D02*
X96832309Y-67270145D01*
X96832309Y-67270145D02*
X97070404Y-67293954D01*
X97070404Y-67293954D02*
X97046595Y-67270145D01*
X97046595Y-67270145D02*
X97022785Y-67222526D01*
X97022785Y-67222526D02*
X97022785Y-67103478D01*
X97022785Y-67103478D02*
X97046595Y-67055859D01*
X97046595Y-67055859D02*
X97070404Y-67032050D01*
X97070404Y-67032050D02*
X97118023Y-67008240D01*
X97118023Y-67008240D02*
X97237071Y-67008240D01*
X97237071Y-67008240D02*
X97284690Y-67032050D01*
X97284690Y-67032050D02*
X97308500Y-67055859D01*
X97308500Y-67055859D02*
X97332309Y-67103478D01*
X97332309Y-67103478D02*
X97332309Y-67222526D01*
X97332309Y-67222526D02*
X97308500Y-67270145D01*
X97308500Y-67270145D02*
X97284690Y-67293954D01*
X97498976Y-66674907D02*
X96784690Y-66674907D01*
X97332309Y-66317765D02*
X96832309Y-66317765D01*
X96832309Y-66317765D02*
X96832309Y-66127289D01*
X96832309Y-66127289D02*
X96856119Y-66079670D01*
X96856119Y-66079670D02*
X96879928Y-66055860D01*
X96879928Y-66055860D02*
X96927547Y-66032051D01*
X96927547Y-66032051D02*
X96998976Y-66032051D01*
X96998976Y-66032051D02*
X97046595Y-66055860D01*
X97046595Y-66055860D02*
X97070404Y-66079670D01*
X97070404Y-66079670D02*
X97094214Y-66127289D01*
X97094214Y-66127289D02*
X97094214Y-66317765D01*
X97189452Y-65841574D02*
X97189452Y-65603479D01*
X97332309Y-65889193D02*
X96832309Y-65722527D01*
X96832309Y-65722527D02*
X97332309Y-65555860D01*
X96998976Y-65174908D02*
X97332309Y-65174908D01*
X96808500Y-65293956D02*
X97165642Y-65413003D01*
X97165642Y-65413003D02*
X97165642Y-65103480D01*
X94832309Y-68198716D02*
X94332309Y-68198716D01*
X94332309Y-68198716D02*
X94332309Y-68008240D01*
X94332309Y-68008240D02*
X94356119Y-67960621D01*
X94356119Y-67960621D02*
X94379928Y-67936811D01*
X94379928Y-67936811D02*
X94427547Y-67913002D01*
X94427547Y-67913002D02*
X94498976Y-67913002D01*
X94498976Y-67913002D02*
X94546595Y-67936811D01*
X94546595Y-67936811D02*
X94570404Y-67960621D01*
X94570404Y-67960621D02*
X94594214Y-68008240D01*
X94594214Y-68008240D02*
X94594214Y-68198716D01*
X94689452Y-67722525D02*
X94689452Y-67484430D01*
X94832309Y-67770144D02*
X94332309Y-67603478D01*
X94332309Y-67603478D02*
X94832309Y-67436811D01*
X94332309Y-67317764D02*
X94332309Y-67008240D01*
X94332309Y-67008240D02*
X94522785Y-67174907D01*
X94522785Y-67174907D02*
X94522785Y-67103478D01*
X94522785Y-67103478D02*
X94546595Y-67055859D01*
X94546595Y-67055859D02*
X94570404Y-67032050D01*
X94570404Y-67032050D02*
X94618023Y-67008240D01*
X94618023Y-67008240D02*
X94737071Y-67008240D01*
X94737071Y-67008240D02*
X94784690Y-67032050D01*
X94784690Y-67032050D02*
X94808500Y-67055859D01*
X94808500Y-67055859D02*
X94832309Y-67103478D01*
X94832309Y-67103478D02*
X94832309Y-67246335D01*
X94832309Y-67246335D02*
X94808500Y-67293954D01*
X94808500Y-67293954D02*
X94784690Y-67317764D01*
X94998976Y-66674907D02*
X94284690Y-66674907D01*
X94832309Y-66317765D02*
X94332309Y-66317765D01*
X94332309Y-66317765D02*
X94332309Y-66127289D01*
X94332309Y-66127289D02*
X94356119Y-66079670D01*
X94356119Y-66079670D02*
X94379928Y-66055860D01*
X94379928Y-66055860D02*
X94427547Y-66032051D01*
X94427547Y-66032051D02*
X94498976Y-66032051D01*
X94498976Y-66032051D02*
X94546595Y-66055860D01*
X94546595Y-66055860D02*
X94570404Y-66079670D01*
X94570404Y-66079670D02*
X94594214Y-66127289D01*
X94594214Y-66127289D02*
X94594214Y-66317765D01*
X94689452Y-65841574D02*
X94689452Y-65603479D01*
X94832309Y-65889193D02*
X94332309Y-65722527D01*
X94332309Y-65722527D02*
X94832309Y-65555860D01*
X94379928Y-65413003D02*
X94356119Y-65389194D01*
X94356119Y-65389194D02*
X94332309Y-65341575D01*
X94332309Y-65341575D02*
X94332309Y-65222527D01*
X94332309Y-65222527D02*
X94356119Y-65174908D01*
X94356119Y-65174908D02*
X94379928Y-65151099D01*
X94379928Y-65151099D02*
X94427547Y-65127289D01*
X94427547Y-65127289D02*
X94475166Y-65127289D01*
X94475166Y-65127289D02*
X94546595Y-65151099D01*
X94546595Y-65151099D02*
X94832309Y-65436813D01*
X94832309Y-65436813D02*
X94832309Y-65127289D01*
X92232309Y-68198716D02*
X91732309Y-68198716D01*
X91732309Y-68198716D02*
X91732309Y-68008240D01*
X91732309Y-68008240D02*
X91756119Y-67960621D01*
X91756119Y-67960621D02*
X91779928Y-67936811D01*
X91779928Y-67936811D02*
X91827547Y-67913002D01*
X91827547Y-67913002D02*
X91898976Y-67913002D01*
X91898976Y-67913002D02*
X91946595Y-67936811D01*
X91946595Y-67936811D02*
X91970404Y-67960621D01*
X91970404Y-67960621D02*
X91994214Y-68008240D01*
X91994214Y-68008240D02*
X91994214Y-68198716D01*
X92089452Y-67722525D02*
X92089452Y-67484430D01*
X92232309Y-67770144D02*
X91732309Y-67603478D01*
X91732309Y-67603478D02*
X92232309Y-67436811D01*
X92232309Y-67008240D02*
X92232309Y-67293954D01*
X92232309Y-67151097D02*
X91732309Y-67151097D01*
X91732309Y-67151097D02*
X91803738Y-67198716D01*
X91803738Y-67198716D02*
X91851357Y-67246335D01*
X91851357Y-67246335D02*
X91875166Y-67293954D01*
X92398976Y-66674907D02*
X91684690Y-66674907D01*
X92232309Y-66317765D02*
X91732309Y-66317765D01*
X91732309Y-66317765D02*
X91732309Y-66127289D01*
X91732309Y-66127289D02*
X91756119Y-66079670D01*
X91756119Y-66079670D02*
X91779928Y-66055860D01*
X91779928Y-66055860D02*
X91827547Y-66032051D01*
X91827547Y-66032051D02*
X91898976Y-66032051D01*
X91898976Y-66032051D02*
X91946595Y-66055860D01*
X91946595Y-66055860D02*
X91970404Y-66079670D01*
X91970404Y-66079670D02*
X91994214Y-66127289D01*
X91994214Y-66127289D02*
X91994214Y-66317765D01*
X92089452Y-65841574D02*
X92089452Y-65603479D01*
X92232309Y-65889193D02*
X91732309Y-65722527D01*
X91732309Y-65722527D02*
X92232309Y-65555860D01*
X91732309Y-65293956D02*
X91732309Y-65246337D01*
X91732309Y-65246337D02*
X91756119Y-65198718D01*
X91756119Y-65198718D02*
X91779928Y-65174908D01*
X91779928Y-65174908D02*
X91827547Y-65151099D01*
X91827547Y-65151099D02*
X91922785Y-65127289D01*
X91922785Y-65127289D02*
X92041833Y-65127289D01*
X92041833Y-65127289D02*
X92137071Y-65151099D01*
X92137071Y-65151099D02*
X92184690Y-65174908D01*
X92184690Y-65174908D02*
X92208500Y-65198718D01*
X92208500Y-65198718D02*
X92232309Y-65246337D01*
X92232309Y-65246337D02*
X92232309Y-65293956D01*
X92232309Y-65293956D02*
X92208500Y-65341575D01*
X92208500Y-65341575D02*
X92184690Y-65365384D01*
X92184690Y-65365384D02*
X92137071Y-65389194D01*
X92137071Y-65389194D02*
X92041833Y-65413003D01*
X92041833Y-65413003D02*
X91922785Y-65413003D01*
X91922785Y-65413003D02*
X91827547Y-65389194D01*
X91827547Y-65389194D02*
X91779928Y-65365384D01*
X91779928Y-65365384D02*
X91756119Y-65341575D01*
X91756119Y-65341575D02*
X91732309Y-65293956D01*
X89632309Y-68198716D02*
X89132309Y-68198716D01*
X89132309Y-68198716D02*
X89132309Y-68008240D01*
X89132309Y-68008240D02*
X89156119Y-67960621D01*
X89156119Y-67960621D02*
X89179928Y-67936811D01*
X89179928Y-67936811D02*
X89227547Y-67913002D01*
X89227547Y-67913002D02*
X89298976Y-67913002D01*
X89298976Y-67913002D02*
X89346595Y-67936811D01*
X89346595Y-67936811D02*
X89370404Y-67960621D01*
X89370404Y-67960621D02*
X89394214Y-68008240D01*
X89394214Y-68008240D02*
X89394214Y-68198716D01*
X89584690Y-67413002D02*
X89608500Y-67436811D01*
X89608500Y-67436811D02*
X89632309Y-67508240D01*
X89632309Y-67508240D02*
X89632309Y-67555859D01*
X89632309Y-67555859D02*
X89608500Y-67627287D01*
X89608500Y-67627287D02*
X89560880Y-67674906D01*
X89560880Y-67674906D02*
X89513261Y-67698716D01*
X89513261Y-67698716D02*
X89418023Y-67722525D01*
X89418023Y-67722525D02*
X89346595Y-67722525D01*
X89346595Y-67722525D02*
X89251357Y-67698716D01*
X89251357Y-67698716D02*
X89203738Y-67674906D01*
X89203738Y-67674906D02*
X89156119Y-67627287D01*
X89156119Y-67627287D02*
X89132309Y-67555859D01*
X89132309Y-67555859D02*
X89132309Y-67508240D01*
X89132309Y-67508240D02*
X89156119Y-67436811D01*
X89156119Y-67436811D02*
X89179928Y-67413002D01*
X89132309Y-67246335D02*
X89132309Y-66936811D01*
X89132309Y-66936811D02*
X89322785Y-67103478D01*
X89322785Y-67103478D02*
X89322785Y-67032049D01*
X89322785Y-67032049D02*
X89346595Y-66984430D01*
X89346595Y-66984430D02*
X89370404Y-66960621D01*
X89370404Y-66960621D02*
X89418023Y-66936811D01*
X89418023Y-66936811D02*
X89537071Y-66936811D01*
X89537071Y-66936811D02*
X89584690Y-66960621D01*
X89584690Y-66960621D02*
X89608500Y-66984430D01*
X89608500Y-66984430D02*
X89632309Y-67032049D01*
X89632309Y-67032049D02*
X89632309Y-67174906D01*
X89632309Y-67174906D02*
X89608500Y-67222525D01*
X89608500Y-67222525D02*
X89584690Y-67246335D01*
X89798976Y-66603478D02*
X89084690Y-66603478D01*
X89632309Y-66246336D02*
X89132309Y-66246336D01*
X89132309Y-66246336D02*
X89132309Y-66055860D01*
X89132309Y-66055860D02*
X89156119Y-66008241D01*
X89156119Y-66008241D02*
X89179928Y-65984431D01*
X89179928Y-65984431D02*
X89227547Y-65960622D01*
X89227547Y-65960622D02*
X89298976Y-65960622D01*
X89298976Y-65960622D02*
X89346595Y-65984431D01*
X89346595Y-65984431D02*
X89370404Y-66008241D01*
X89370404Y-66008241D02*
X89394214Y-66055860D01*
X89394214Y-66055860D02*
X89394214Y-66246336D01*
X89584690Y-65460622D02*
X89608500Y-65484431D01*
X89608500Y-65484431D02*
X89632309Y-65555860D01*
X89632309Y-65555860D02*
X89632309Y-65603479D01*
X89632309Y-65603479D02*
X89608500Y-65674907D01*
X89608500Y-65674907D02*
X89560880Y-65722526D01*
X89560880Y-65722526D02*
X89513261Y-65746336D01*
X89513261Y-65746336D02*
X89418023Y-65770145D01*
X89418023Y-65770145D02*
X89346595Y-65770145D01*
X89346595Y-65770145D02*
X89251357Y-65746336D01*
X89251357Y-65746336D02*
X89203738Y-65722526D01*
X89203738Y-65722526D02*
X89156119Y-65674907D01*
X89156119Y-65674907D02*
X89132309Y-65603479D01*
X89132309Y-65603479D02*
X89132309Y-65555860D01*
X89132309Y-65555860D02*
X89156119Y-65484431D01*
X89156119Y-65484431D02*
X89179928Y-65460622D01*
X89179928Y-65270145D02*
X89156119Y-65246336D01*
X89156119Y-65246336D02*
X89132309Y-65198717D01*
X89132309Y-65198717D02*
X89132309Y-65079669D01*
X89132309Y-65079669D02*
X89156119Y-65032050D01*
X89156119Y-65032050D02*
X89179928Y-65008241D01*
X89179928Y-65008241D02*
X89227547Y-64984431D01*
X89227547Y-64984431D02*
X89275166Y-64984431D01*
X89275166Y-64984431D02*
X89346595Y-65008241D01*
X89346595Y-65008241D02*
X89632309Y-65293955D01*
X89632309Y-65293955D02*
X89632309Y-64984431D01*
X80332309Y-73398716D02*
X79832309Y-73398716D01*
X79832309Y-73398716D02*
X79832309Y-73208240D01*
X79832309Y-73208240D02*
X79856119Y-73160621D01*
X79856119Y-73160621D02*
X79879928Y-73136811D01*
X79879928Y-73136811D02*
X79927547Y-73113002D01*
X79927547Y-73113002D02*
X79998976Y-73113002D01*
X79998976Y-73113002D02*
X80046595Y-73136811D01*
X80046595Y-73136811D02*
X80070404Y-73160621D01*
X80070404Y-73160621D02*
X80094214Y-73208240D01*
X80094214Y-73208240D02*
X80094214Y-73398716D01*
X80284690Y-72613002D02*
X80308500Y-72636811D01*
X80308500Y-72636811D02*
X80332309Y-72708240D01*
X80332309Y-72708240D02*
X80332309Y-72755859D01*
X80332309Y-72755859D02*
X80308500Y-72827287D01*
X80308500Y-72827287D02*
X80260880Y-72874906D01*
X80260880Y-72874906D02*
X80213261Y-72898716D01*
X80213261Y-72898716D02*
X80118023Y-72922525D01*
X80118023Y-72922525D02*
X80046595Y-72922525D01*
X80046595Y-72922525D02*
X79951357Y-72898716D01*
X79951357Y-72898716D02*
X79903738Y-72874906D01*
X79903738Y-72874906D02*
X79856119Y-72827287D01*
X79856119Y-72827287D02*
X79832309Y-72755859D01*
X79832309Y-72755859D02*
X79832309Y-72708240D01*
X79832309Y-72708240D02*
X79856119Y-72636811D01*
X79856119Y-72636811D02*
X79879928Y-72613002D01*
X80332309Y-72136811D02*
X80332309Y-72422525D01*
X80332309Y-72279668D02*
X79832309Y-72279668D01*
X79832309Y-72279668D02*
X79903738Y-72327287D01*
X79903738Y-72327287D02*
X79951357Y-72374906D01*
X79951357Y-72374906D02*
X79975166Y-72422525D01*
X80498976Y-71803478D02*
X79784690Y-71803478D01*
X80332309Y-71446336D02*
X79832309Y-71446336D01*
X79832309Y-71446336D02*
X79832309Y-71255860D01*
X79832309Y-71255860D02*
X79856119Y-71208241D01*
X79856119Y-71208241D02*
X79879928Y-71184431D01*
X79879928Y-71184431D02*
X79927547Y-71160622D01*
X79927547Y-71160622D02*
X79998976Y-71160622D01*
X79998976Y-71160622D02*
X80046595Y-71184431D01*
X80046595Y-71184431D02*
X80070404Y-71208241D01*
X80070404Y-71208241D02*
X80094214Y-71255860D01*
X80094214Y-71255860D02*
X80094214Y-71446336D01*
X80284690Y-70660622D02*
X80308500Y-70684431D01*
X80308500Y-70684431D02*
X80332309Y-70755860D01*
X80332309Y-70755860D02*
X80332309Y-70803479D01*
X80332309Y-70803479D02*
X80308500Y-70874907D01*
X80308500Y-70874907D02*
X80260880Y-70922526D01*
X80260880Y-70922526D02*
X80213261Y-70946336D01*
X80213261Y-70946336D02*
X80118023Y-70970145D01*
X80118023Y-70970145D02*
X80046595Y-70970145D01*
X80046595Y-70970145D02*
X79951357Y-70946336D01*
X79951357Y-70946336D02*
X79903738Y-70922526D01*
X79903738Y-70922526D02*
X79856119Y-70874907D01*
X79856119Y-70874907D02*
X79832309Y-70803479D01*
X79832309Y-70803479D02*
X79832309Y-70755860D01*
X79832309Y-70755860D02*
X79856119Y-70684431D01*
X79856119Y-70684431D02*
X79879928Y-70660622D01*
X79832309Y-70351098D02*
X79832309Y-70303479D01*
X79832309Y-70303479D02*
X79856119Y-70255860D01*
X79856119Y-70255860D02*
X79879928Y-70232050D01*
X79879928Y-70232050D02*
X79927547Y-70208241D01*
X79927547Y-70208241D02*
X80022785Y-70184431D01*
X80022785Y-70184431D02*
X80141833Y-70184431D01*
X80141833Y-70184431D02*
X80237071Y-70208241D01*
X80237071Y-70208241D02*
X80284690Y-70232050D01*
X80284690Y-70232050D02*
X80308500Y-70255860D01*
X80308500Y-70255860D02*
X80332309Y-70303479D01*
X80332309Y-70303479D02*
X80332309Y-70351098D01*
X80332309Y-70351098D02*
X80308500Y-70398717D01*
X80308500Y-70398717D02*
X80284690Y-70422526D01*
X80284690Y-70422526D02*
X80237071Y-70446336D01*
X80237071Y-70446336D02*
X80141833Y-70470145D01*
X80141833Y-70470145D02*
X80022785Y-70470145D01*
X80022785Y-70470145D02*
X79927547Y-70446336D01*
X79927547Y-70446336D02*
X79879928Y-70422526D01*
X79879928Y-70422526D02*
X79856119Y-70398717D01*
X79856119Y-70398717D02*
X79832309Y-70351098D01*
X78856119Y-73136811D02*
X78832309Y-73184430D01*
X78832309Y-73184430D02*
X78832309Y-73255859D01*
X78832309Y-73255859D02*
X78856119Y-73327287D01*
X78856119Y-73327287D02*
X78903738Y-73374906D01*
X78903738Y-73374906D02*
X78951357Y-73398716D01*
X78951357Y-73398716D02*
X79046595Y-73422525D01*
X79046595Y-73422525D02*
X79118023Y-73422525D01*
X79118023Y-73422525D02*
X79213261Y-73398716D01*
X79213261Y-73398716D02*
X79260880Y-73374906D01*
X79260880Y-73374906D02*
X79308500Y-73327287D01*
X79308500Y-73327287D02*
X79332309Y-73255859D01*
X79332309Y-73255859D02*
X79332309Y-73208240D01*
X79332309Y-73208240D02*
X79308500Y-73136811D01*
X79308500Y-73136811D02*
X79284690Y-73113002D01*
X79284690Y-73113002D02*
X79118023Y-73113002D01*
X79118023Y-73113002D02*
X79118023Y-73208240D01*
X79332309Y-72898716D02*
X78832309Y-72898716D01*
X78832309Y-72898716D02*
X79332309Y-72613002D01*
X79332309Y-72613002D02*
X78832309Y-72613002D01*
X79332309Y-72374906D02*
X78832309Y-72374906D01*
X78832309Y-72374906D02*
X78832309Y-72255858D01*
X78832309Y-72255858D02*
X78856119Y-72184430D01*
X78856119Y-72184430D02*
X78903738Y-72136811D01*
X78903738Y-72136811D02*
X78951357Y-72113001D01*
X78951357Y-72113001D02*
X79046595Y-72089192D01*
X79046595Y-72089192D02*
X79118023Y-72089192D01*
X79118023Y-72089192D02*
X79213261Y-72113001D01*
X79213261Y-72113001D02*
X79260880Y-72136811D01*
X79260880Y-72136811D02*
X79308500Y-72184430D01*
X79308500Y-72184430D02*
X79332309Y-72255858D01*
X79332309Y-72255858D02*
X79332309Y-72374906D01*
X79498976Y-71755858D02*
X78784690Y-71755858D01*
X79141833Y-71398716D02*
X79141833Y-71017764D01*
X79332309Y-71208240D02*
X78951357Y-71208240D01*
X78832309Y-70827287D02*
X78832309Y-70517763D01*
X78832309Y-70517763D02*
X79022785Y-70684430D01*
X79022785Y-70684430D02*
X79022785Y-70613001D01*
X79022785Y-70613001D02*
X79046595Y-70565382D01*
X79046595Y-70565382D02*
X79070404Y-70541573D01*
X79070404Y-70541573D02*
X79118023Y-70517763D01*
X79118023Y-70517763D02*
X79237071Y-70517763D01*
X79237071Y-70517763D02*
X79284690Y-70541573D01*
X79284690Y-70541573D02*
X79308500Y-70565382D01*
X79308500Y-70565382D02*
X79332309Y-70613001D01*
X79332309Y-70613001D02*
X79332309Y-70755858D01*
X79332309Y-70755858D02*
X79308500Y-70803477D01*
X79308500Y-70803477D02*
X79284690Y-70827287D01*
X78998976Y-70351097D02*
X79332309Y-70232049D01*
X79332309Y-70232049D02*
X78998976Y-70113002D01*
X78832309Y-69970145D02*
X78832309Y-69660621D01*
X78832309Y-69660621D02*
X79022785Y-69827288D01*
X79022785Y-69827288D02*
X79022785Y-69755859D01*
X79022785Y-69755859D02*
X79046595Y-69708240D01*
X79046595Y-69708240D02*
X79070404Y-69684431D01*
X79070404Y-69684431D02*
X79118023Y-69660621D01*
X79118023Y-69660621D02*
X79237071Y-69660621D01*
X79237071Y-69660621D02*
X79284690Y-69684431D01*
X79284690Y-69684431D02*
X79308500Y-69708240D01*
X79308500Y-69708240D02*
X79332309Y-69755859D01*
X79332309Y-69755859D02*
X79332309Y-69898716D01*
X79332309Y-69898716D02*
X79308500Y-69946335D01*
X79308500Y-69946335D02*
X79284690Y-69970145D01*
X137232309Y-62298716D02*
X136732309Y-62298716D01*
X136732309Y-62298716D02*
X136732309Y-62108240D01*
X136732309Y-62108240D02*
X136756119Y-62060621D01*
X136756119Y-62060621D02*
X136779928Y-62036811D01*
X136779928Y-62036811D02*
X136827547Y-62013002D01*
X136827547Y-62013002D02*
X136898976Y-62013002D01*
X136898976Y-62013002D02*
X136946595Y-62036811D01*
X136946595Y-62036811D02*
X136970404Y-62060621D01*
X136970404Y-62060621D02*
X136994214Y-62108240D01*
X136994214Y-62108240D02*
X136994214Y-62298716D01*
X136732309Y-61846335D02*
X137232309Y-61727287D01*
X137232309Y-61727287D02*
X136875166Y-61632049D01*
X136875166Y-61632049D02*
X137232309Y-61536811D01*
X137232309Y-61536811D02*
X136732309Y-61417764D01*
X137232309Y-60941573D02*
X136994214Y-61108239D01*
X137232309Y-61227287D02*
X136732309Y-61227287D01*
X136732309Y-61227287D02*
X136732309Y-61036811D01*
X136732309Y-61036811D02*
X136756119Y-60989192D01*
X136756119Y-60989192D02*
X136779928Y-60965382D01*
X136779928Y-60965382D02*
X136827547Y-60941573D01*
X136827547Y-60941573D02*
X136898976Y-60941573D01*
X136898976Y-60941573D02*
X136946595Y-60965382D01*
X136946595Y-60965382D02*
X136970404Y-60989192D01*
X136970404Y-60989192D02*
X136994214Y-61036811D01*
X136994214Y-61036811D02*
X136994214Y-61227287D01*
X137232309Y-48798716D02*
X136732309Y-48798716D01*
X136732309Y-48798716D02*
X136732309Y-48608240D01*
X136732309Y-48608240D02*
X136756119Y-48560621D01*
X136756119Y-48560621D02*
X136779928Y-48536811D01*
X136779928Y-48536811D02*
X136827547Y-48513002D01*
X136827547Y-48513002D02*
X136898976Y-48513002D01*
X136898976Y-48513002D02*
X136946595Y-48536811D01*
X136946595Y-48536811D02*
X136970404Y-48560621D01*
X136970404Y-48560621D02*
X136994214Y-48608240D01*
X136994214Y-48608240D02*
X136994214Y-48798716D01*
X136970404Y-48132049D02*
X136994214Y-48060621D01*
X136994214Y-48060621D02*
X137018023Y-48036811D01*
X137018023Y-48036811D02*
X137065642Y-48013002D01*
X137065642Y-48013002D02*
X137137071Y-48013002D01*
X137137071Y-48013002D02*
X137184690Y-48036811D01*
X137184690Y-48036811D02*
X137208500Y-48060621D01*
X137208500Y-48060621D02*
X137232309Y-48108240D01*
X137232309Y-48108240D02*
X137232309Y-48298716D01*
X137232309Y-48298716D02*
X136732309Y-48298716D01*
X136732309Y-48298716D02*
X136732309Y-48132049D01*
X136732309Y-48132049D02*
X136756119Y-48084430D01*
X136756119Y-48084430D02*
X136779928Y-48060621D01*
X136779928Y-48060621D02*
X136827547Y-48036811D01*
X136827547Y-48036811D02*
X136875166Y-48036811D01*
X136875166Y-48036811D02*
X136922785Y-48060621D01*
X136922785Y-48060621D02*
X136946595Y-48084430D01*
X136946595Y-48084430D02*
X136970404Y-48132049D01*
X136970404Y-48132049D02*
X136970404Y-48298716D01*
X136779928Y-47822525D02*
X136756119Y-47798716D01*
X136756119Y-47798716D02*
X136732309Y-47751097D01*
X136732309Y-47751097D02*
X136732309Y-47632049D01*
X136732309Y-47632049D02*
X136756119Y-47584430D01*
X136756119Y-47584430D02*
X136779928Y-47560621D01*
X136779928Y-47560621D02*
X136827547Y-47536811D01*
X136827547Y-47536811D02*
X136875166Y-47536811D01*
X136875166Y-47536811D02*
X136946595Y-47560621D01*
X136946595Y-47560621D02*
X137232309Y-47846335D01*
X137232309Y-47846335D02*
X137232309Y-47536811D01*
X133456119Y-37236811D02*
X133432309Y-37284430D01*
X133432309Y-37284430D02*
X133432309Y-37355859D01*
X133432309Y-37355859D02*
X133456119Y-37427287D01*
X133456119Y-37427287D02*
X133503738Y-37474906D01*
X133503738Y-37474906D02*
X133551357Y-37498716D01*
X133551357Y-37498716D02*
X133646595Y-37522525D01*
X133646595Y-37522525D02*
X133718023Y-37522525D01*
X133718023Y-37522525D02*
X133813261Y-37498716D01*
X133813261Y-37498716D02*
X133860880Y-37474906D01*
X133860880Y-37474906D02*
X133908500Y-37427287D01*
X133908500Y-37427287D02*
X133932309Y-37355859D01*
X133932309Y-37355859D02*
X133932309Y-37308240D01*
X133932309Y-37308240D02*
X133908500Y-37236811D01*
X133908500Y-37236811D02*
X133884690Y-37213002D01*
X133884690Y-37213002D02*
X133718023Y-37213002D01*
X133718023Y-37213002D02*
X133718023Y-37308240D01*
X133932309Y-36998716D02*
X133432309Y-36998716D01*
X133432309Y-36998716D02*
X133932309Y-36713002D01*
X133932309Y-36713002D02*
X133432309Y-36713002D01*
X133932309Y-36474906D02*
X133432309Y-36474906D01*
X133432309Y-36474906D02*
X133432309Y-36355858D01*
X133432309Y-36355858D02*
X133456119Y-36284430D01*
X133456119Y-36284430D02*
X133503738Y-36236811D01*
X133503738Y-36236811D02*
X133551357Y-36213001D01*
X133551357Y-36213001D02*
X133646595Y-36189192D01*
X133646595Y-36189192D02*
X133718023Y-36189192D01*
X133718023Y-36189192D02*
X133813261Y-36213001D01*
X133813261Y-36213001D02*
X133860880Y-36236811D01*
X133860880Y-36236811D02*
X133908500Y-36284430D01*
X133908500Y-36284430D02*
X133932309Y-36355858D01*
X133932309Y-36355858D02*
X133932309Y-36474906D01*
X133432309Y-40370144D02*
X133932309Y-40203478D01*
X133932309Y-40203478D02*
X133432309Y-40036811D01*
X133670404Y-39703478D02*
X133694214Y-39632050D01*
X133694214Y-39632050D02*
X133718023Y-39608240D01*
X133718023Y-39608240D02*
X133765642Y-39584431D01*
X133765642Y-39584431D02*
X133837071Y-39584431D01*
X133837071Y-39584431D02*
X133884690Y-39608240D01*
X133884690Y-39608240D02*
X133908500Y-39632050D01*
X133908500Y-39632050D02*
X133932309Y-39679669D01*
X133932309Y-39679669D02*
X133932309Y-39870145D01*
X133932309Y-39870145D02*
X133432309Y-39870145D01*
X133432309Y-39870145D02*
X133432309Y-39703478D01*
X133432309Y-39703478D02*
X133456119Y-39655859D01*
X133456119Y-39655859D02*
X133479928Y-39632050D01*
X133479928Y-39632050D02*
X133527547Y-39608240D01*
X133527547Y-39608240D02*
X133575166Y-39608240D01*
X133575166Y-39608240D02*
X133622785Y-39632050D01*
X133622785Y-39632050D02*
X133646595Y-39655859D01*
X133646595Y-39655859D02*
X133670404Y-39703478D01*
X133670404Y-39703478D02*
X133670404Y-39870145D01*
X133432309Y-39370145D02*
X133837071Y-39370145D01*
X133837071Y-39370145D02*
X133884690Y-39346335D01*
X133884690Y-39346335D02*
X133908500Y-39322526D01*
X133908500Y-39322526D02*
X133932309Y-39274907D01*
X133932309Y-39274907D02*
X133932309Y-39179669D01*
X133932309Y-39179669D02*
X133908500Y-39132050D01*
X133908500Y-39132050D02*
X133884690Y-39108240D01*
X133884690Y-39108240D02*
X133837071Y-39084431D01*
X133837071Y-39084431D02*
X133432309Y-39084431D01*
X133908500Y-38870144D02*
X133932309Y-38798716D01*
X133932309Y-38798716D02*
X133932309Y-38679668D01*
X133932309Y-38679668D02*
X133908500Y-38632049D01*
X133908500Y-38632049D02*
X133884690Y-38608240D01*
X133884690Y-38608240D02*
X133837071Y-38584430D01*
X133837071Y-38584430D02*
X133789452Y-38584430D01*
X133789452Y-38584430D02*
X133741833Y-38608240D01*
X133741833Y-38608240D02*
X133718023Y-38632049D01*
X133718023Y-38632049D02*
X133694214Y-38679668D01*
X133694214Y-38679668D02*
X133670404Y-38774906D01*
X133670404Y-38774906D02*
X133646595Y-38822525D01*
X133646595Y-38822525D02*
X133622785Y-38846335D01*
X133622785Y-38846335D02*
X133575166Y-38870144D01*
X133575166Y-38870144D02*
X133527547Y-38870144D01*
X133527547Y-38870144D02*
X133479928Y-38846335D01*
X133479928Y-38846335D02*
X133456119Y-38822525D01*
X133456119Y-38822525D02*
X133432309Y-38774906D01*
X133432309Y-38774906D02*
X133432309Y-38655859D01*
X133432309Y-38655859D02*
X133456119Y-38584430D01*
X130901283Y-43641833D02*
X131282236Y-43641833D01*
X131091759Y-43832309D02*
X131091759Y-43451357D01*
X131472712Y-43332309D02*
X131782236Y-43332309D01*
X131782236Y-43332309D02*
X131615569Y-43522785D01*
X131615569Y-43522785D02*
X131686998Y-43522785D01*
X131686998Y-43522785D02*
X131734617Y-43546595D01*
X131734617Y-43546595D02*
X131758426Y-43570404D01*
X131758426Y-43570404D02*
X131782236Y-43618023D01*
X131782236Y-43618023D02*
X131782236Y-43737071D01*
X131782236Y-43737071D02*
X131758426Y-43784690D01*
X131758426Y-43784690D02*
X131734617Y-43808500D01*
X131734617Y-43808500D02*
X131686998Y-43832309D01*
X131686998Y-43832309D02*
X131544141Y-43832309D01*
X131544141Y-43832309D02*
X131496522Y-43808500D01*
X131496522Y-43808500D02*
X131472712Y-43784690D01*
X131925093Y-43332309D02*
X132091759Y-43832309D01*
X132091759Y-43832309D02*
X132258426Y-43332309D01*
X132377473Y-43332309D02*
X132686997Y-43332309D01*
X132686997Y-43332309D02*
X132520330Y-43522785D01*
X132520330Y-43522785D02*
X132591759Y-43522785D01*
X132591759Y-43522785D02*
X132639378Y-43546595D01*
X132639378Y-43546595D02*
X132663187Y-43570404D01*
X132663187Y-43570404D02*
X132686997Y-43618023D01*
X132686997Y-43618023D02*
X132686997Y-43737071D01*
X132686997Y-43737071D02*
X132663187Y-43784690D01*
X132663187Y-43784690D02*
X132639378Y-43808500D01*
X132639378Y-43808500D02*
X132591759Y-43832309D01*
X132591759Y-43832309D02*
X132448902Y-43832309D01*
X132448902Y-43832309D02*
X132401283Y-43808500D01*
X132401283Y-43808500D02*
X132377473Y-43784690D01*
X127977474Y-43408500D02*
X128048902Y-43432309D01*
X128048902Y-43432309D02*
X128167950Y-43432309D01*
X128167950Y-43432309D02*
X128215569Y-43408500D01*
X128215569Y-43408500D02*
X128239378Y-43384690D01*
X128239378Y-43384690D02*
X128263188Y-43337071D01*
X128263188Y-43337071D02*
X128263188Y-43289452D01*
X128263188Y-43289452D02*
X128239378Y-43241833D01*
X128239378Y-43241833D02*
X128215569Y-43218023D01*
X128215569Y-43218023D02*
X128167950Y-43194214D01*
X128167950Y-43194214D02*
X128072712Y-43170404D01*
X128072712Y-43170404D02*
X128025093Y-43146595D01*
X128025093Y-43146595D02*
X128001283Y-43122785D01*
X128001283Y-43122785D02*
X127977474Y-43075166D01*
X127977474Y-43075166D02*
X127977474Y-43027547D01*
X127977474Y-43027547D02*
X128001283Y-42979928D01*
X128001283Y-42979928D02*
X128025093Y-42956119D01*
X128025093Y-42956119D02*
X128072712Y-42932309D01*
X128072712Y-42932309D02*
X128191759Y-42932309D01*
X128191759Y-42932309D02*
X128263188Y-42956119D01*
X128429854Y-42932309D02*
X128548902Y-43432309D01*
X128548902Y-43432309D02*
X128644140Y-43075166D01*
X128644140Y-43075166D02*
X128739378Y-43432309D01*
X128739378Y-43432309D02*
X128858426Y-42932309D01*
X129048902Y-43432309D02*
X129048902Y-42932309D01*
X129048902Y-42932309D02*
X129167950Y-42932309D01*
X129167950Y-42932309D02*
X129239378Y-42956119D01*
X129239378Y-42956119D02*
X129286997Y-43003738D01*
X129286997Y-43003738D02*
X129310807Y-43051357D01*
X129310807Y-43051357D02*
X129334616Y-43146595D01*
X129334616Y-43146595D02*
X129334616Y-43218023D01*
X129334616Y-43218023D02*
X129310807Y-43313261D01*
X129310807Y-43313261D02*
X129286997Y-43360880D01*
X129286997Y-43360880D02*
X129239378Y-43408500D01*
X129239378Y-43408500D02*
X129167950Y-43432309D01*
X129167950Y-43432309D02*
X129048902Y-43432309D01*
X129548902Y-43432309D02*
X129548902Y-42932309D01*
X129882235Y-42932309D02*
X129977473Y-42932309D01*
X129977473Y-42932309D02*
X130025092Y-42956119D01*
X130025092Y-42956119D02*
X130072711Y-43003738D01*
X130072711Y-43003738D02*
X130096521Y-43098976D01*
X130096521Y-43098976D02*
X130096521Y-43265642D01*
X130096521Y-43265642D02*
X130072711Y-43360880D01*
X130072711Y-43360880D02*
X130025092Y-43408500D01*
X130025092Y-43408500D02*
X129977473Y-43432309D01*
X129977473Y-43432309D02*
X129882235Y-43432309D01*
X129882235Y-43432309D02*
X129834616Y-43408500D01*
X129834616Y-43408500D02*
X129786997Y-43360880D01*
X129786997Y-43360880D02*
X129763188Y-43265642D01*
X129763188Y-43265642D02*
X129763188Y-43098976D01*
X129763188Y-43098976D02*
X129786997Y-43003738D01*
X129786997Y-43003738D02*
X129834616Y-42956119D01*
X129834616Y-42956119D02*
X129882235Y-42932309D01*
X125077474Y-43408500D02*
X125148902Y-43432309D01*
X125148902Y-43432309D02*
X125267950Y-43432309D01*
X125267950Y-43432309D02*
X125315569Y-43408500D01*
X125315569Y-43408500D02*
X125339378Y-43384690D01*
X125339378Y-43384690D02*
X125363188Y-43337071D01*
X125363188Y-43337071D02*
X125363188Y-43289452D01*
X125363188Y-43289452D02*
X125339378Y-43241833D01*
X125339378Y-43241833D02*
X125315569Y-43218023D01*
X125315569Y-43218023D02*
X125267950Y-43194214D01*
X125267950Y-43194214D02*
X125172712Y-43170404D01*
X125172712Y-43170404D02*
X125125093Y-43146595D01*
X125125093Y-43146595D02*
X125101283Y-43122785D01*
X125101283Y-43122785D02*
X125077474Y-43075166D01*
X125077474Y-43075166D02*
X125077474Y-43027547D01*
X125077474Y-43027547D02*
X125101283Y-42979928D01*
X125101283Y-42979928D02*
X125125093Y-42956119D01*
X125125093Y-42956119D02*
X125172712Y-42932309D01*
X125172712Y-42932309D02*
X125291759Y-42932309D01*
X125291759Y-42932309D02*
X125363188Y-42956119D01*
X125529854Y-42932309D02*
X125648902Y-43432309D01*
X125648902Y-43432309D02*
X125744140Y-43075166D01*
X125744140Y-43075166D02*
X125839378Y-43432309D01*
X125839378Y-43432309D02*
X125958426Y-42932309D01*
X126434616Y-43384690D02*
X126410807Y-43408500D01*
X126410807Y-43408500D02*
X126339378Y-43432309D01*
X126339378Y-43432309D02*
X126291759Y-43432309D01*
X126291759Y-43432309D02*
X126220331Y-43408500D01*
X126220331Y-43408500D02*
X126172712Y-43360880D01*
X126172712Y-43360880D02*
X126148902Y-43313261D01*
X126148902Y-43313261D02*
X126125093Y-43218023D01*
X126125093Y-43218023D02*
X126125093Y-43146595D01*
X126125093Y-43146595D02*
X126148902Y-43051357D01*
X126148902Y-43051357D02*
X126172712Y-43003738D01*
X126172712Y-43003738D02*
X126220331Y-42956119D01*
X126220331Y-42956119D02*
X126291759Y-42932309D01*
X126291759Y-42932309D02*
X126339378Y-42932309D01*
X126339378Y-42932309D02*
X126410807Y-42956119D01*
X126410807Y-42956119D02*
X126434616Y-42979928D01*
X126886997Y-43432309D02*
X126648902Y-43432309D01*
X126648902Y-43432309D02*
X126648902Y-42932309D01*
X127053664Y-43432309D02*
X127053664Y-42932309D01*
X127339378Y-43432309D02*
X127125093Y-43146595D01*
X127339378Y-42932309D02*
X127053664Y-43218023D01*
X122663188Y-42856119D02*
X122615569Y-42832309D01*
X122615569Y-42832309D02*
X122544140Y-42832309D01*
X122544140Y-42832309D02*
X122472712Y-42856119D01*
X122472712Y-42856119D02*
X122425093Y-42903738D01*
X122425093Y-42903738D02*
X122401283Y-42951357D01*
X122401283Y-42951357D02*
X122377474Y-43046595D01*
X122377474Y-43046595D02*
X122377474Y-43118023D01*
X122377474Y-43118023D02*
X122401283Y-43213261D01*
X122401283Y-43213261D02*
X122425093Y-43260880D01*
X122425093Y-43260880D02*
X122472712Y-43308500D01*
X122472712Y-43308500D02*
X122544140Y-43332309D01*
X122544140Y-43332309D02*
X122591759Y-43332309D01*
X122591759Y-43332309D02*
X122663188Y-43308500D01*
X122663188Y-43308500D02*
X122686997Y-43284690D01*
X122686997Y-43284690D02*
X122686997Y-43118023D01*
X122686997Y-43118023D02*
X122591759Y-43118023D01*
X122901283Y-43332309D02*
X122901283Y-42832309D01*
X122901283Y-42832309D02*
X123186997Y-43332309D01*
X123186997Y-43332309D02*
X123186997Y-42832309D01*
X123425093Y-43332309D02*
X123425093Y-42832309D01*
X123425093Y-42832309D02*
X123544141Y-42832309D01*
X123544141Y-42832309D02*
X123615569Y-42856119D01*
X123615569Y-42856119D02*
X123663188Y-42903738D01*
X123663188Y-42903738D02*
X123686998Y-42951357D01*
X123686998Y-42951357D02*
X123710807Y-43046595D01*
X123710807Y-43046595D02*
X123710807Y-43118023D01*
X123710807Y-43118023D02*
X123686998Y-43213261D01*
X123686998Y-43213261D02*
X123663188Y-43260880D01*
X123663188Y-43260880D02*
X123615569Y-43308500D01*
X123615569Y-43308500D02*
X123544141Y-43332309D01*
X123544141Y-43332309D02*
X123425093Y-43332309D01*
X119656119Y-44636811D02*
X119632309Y-44684430D01*
X119632309Y-44684430D02*
X119632309Y-44755859D01*
X119632309Y-44755859D02*
X119656119Y-44827287D01*
X119656119Y-44827287D02*
X119703738Y-44874906D01*
X119703738Y-44874906D02*
X119751357Y-44898716D01*
X119751357Y-44898716D02*
X119846595Y-44922525D01*
X119846595Y-44922525D02*
X119918023Y-44922525D01*
X119918023Y-44922525D02*
X120013261Y-44898716D01*
X120013261Y-44898716D02*
X120060880Y-44874906D01*
X120060880Y-44874906D02*
X120108500Y-44827287D01*
X120108500Y-44827287D02*
X120132309Y-44755859D01*
X120132309Y-44755859D02*
X120132309Y-44708240D01*
X120132309Y-44708240D02*
X120108500Y-44636811D01*
X120108500Y-44636811D02*
X120084690Y-44613002D01*
X120084690Y-44613002D02*
X119918023Y-44613002D01*
X119918023Y-44613002D02*
X119918023Y-44708240D01*
X120132309Y-44398716D02*
X119632309Y-44398716D01*
X119632309Y-44398716D02*
X120132309Y-44113002D01*
X120132309Y-44113002D02*
X119632309Y-44113002D01*
X120132309Y-43874906D02*
X119632309Y-43874906D01*
X119632309Y-43874906D02*
X119632309Y-43755858D01*
X119632309Y-43755858D02*
X119656119Y-43684430D01*
X119656119Y-43684430D02*
X119703738Y-43636811D01*
X119703738Y-43636811D02*
X119751357Y-43613001D01*
X119751357Y-43613001D02*
X119846595Y-43589192D01*
X119846595Y-43589192D02*
X119918023Y-43589192D01*
X119918023Y-43589192D02*
X120013261Y-43613001D01*
X120013261Y-43613001D02*
X120060880Y-43636811D01*
X120060880Y-43636811D02*
X120108500Y-43684430D01*
X120108500Y-43684430D02*
X120132309Y-43755858D01*
X120132309Y-43755858D02*
X120132309Y-43874906D01*
X120298976Y-43255858D02*
X119584690Y-43255858D01*
X119941833Y-42898716D02*
X119941833Y-42517764D01*
X120132309Y-42708240D02*
X119751357Y-42708240D01*
X119632309Y-42041573D02*
X119632309Y-42279668D01*
X119632309Y-42279668D02*
X119870404Y-42303477D01*
X119870404Y-42303477D02*
X119846595Y-42279668D01*
X119846595Y-42279668D02*
X119822785Y-42232049D01*
X119822785Y-42232049D02*
X119822785Y-42113001D01*
X119822785Y-42113001D02*
X119846595Y-42065382D01*
X119846595Y-42065382D02*
X119870404Y-42041573D01*
X119870404Y-42041573D02*
X119918023Y-42017763D01*
X119918023Y-42017763D02*
X120037071Y-42017763D01*
X120037071Y-42017763D02*
X120084690Y-42041573D01*
X120084690Y-42041573D02*
X120108500Y-42065382D01*
X120108500Y-42065382D02*
X120132309Y-42113001D01*
X120132309Y-42113001D02*
X120132309Y-42232049D01*
X120132309Y-42232049D02*
X120108500Y-42279668D01*
X120108500Y-42279668D02*
X120084690Y-42303477D01*
X119632309Y-41874906D02*
X120132309Y-41708240D01*
X120132309Y-41708240D02*
X119632309Y-41541573D01*
X117632309Y-44598716D02*
X117132309Y-44598716D01*
X117132309Y-44598716D02*
X117132309Y-44408240D01*
X117132309Y-44408240D02*
X117156119Y-44360621D01*
X117156119Y-44360621D02*
X117179928Y-44336811D01*
X117179928Y-44336811D02*
X117227547Y-44313002D01*
X117227547Y-44313002D02*
X117298976Y-44313002D01*
X117298976Y-44313002D02*
X117346595Y-44336811D01*
X117346595Y-44336811D02*
X117370404Y-44360621D01*
X117370404Y-44360621D02*
X117394214Y-44408240D01*
X117394214Y-44408240D02*
X117394214Y-44598716D01*
X117489452Y-44122525D02*
X117489452Y-43884430D01*
X117632309Y-44170144D02*
X117132309Y-44003478D01*
X117132309Y-44003478D02*
X117632309Y-43836811D01*
X117632309Y-43646335D02*
X117632309Y-43551097D01*
X117632309Y-43551097D02*
X117608500Y-43503478D01*
X117608500Y-43503478D02*
X117584690Y-43479669D01*
X117584690Y-43479669D02*
X117513261Y-43432050D01*
X117513261Y-43432050D02*
X117418023Y-43408240D01*
X117418023Y-43408240D02*
X117227547Y-43408240D01*
X117227547Y-43408240D02*
X117179928Y-43432050D01*
X117179928Y-43432050D02*
X117156119Y-43455859D01*
X117156119Y-43455859D02*
X117132309Y-43503478D01*
X117132309Y-43503478D02*
X117132309Y-43598716D01*
X117132309Y-43598716D02*
X117156119Y-43646335D01*
X117156119Y-43646335D02*
X117179928Y-43670145D01*
X117179928Y-43670145D02*
X117227547Y-43693954D01*
X117227547Y-43693954D02*
X117346595Y-43693954D01*
X117346595Y-43693954D02*
X117394214Y-43670145D01*
X117394214Y-43670145D02*
X117418023Y-43646335D01*
X117418023Y-43646335D02*
X117441833Y-43598716D01*
X117441833Y-43598716D02*
X117441833Y-43503478D01*
X117441833Y-43503478D02*
X117418023Y-43455859D01*
X117418023Y-43455859D02*
X117394214Y-43432050D01*
X117394214Y-43432050D02*
X117346595Y-43408240D01*
X117798976Y-43074907D02*
X117084690Y-43074907D01*
X117632309Y-42717765D02*
X117132309Y-42717765D01*
X117132309Y-42717765D02*
X117132309Y-42527289D01*
X117132309Y-42527289D02*
X117156119Y-42479670D01*
X117156119Y-42479670D02*
X117179928Y-42455860D01*
X117179928Y-42455860D02*
X117227547Y-42432051D01*
X117227547Y-42432051D02*
X117298976Y-42432051D01*
X117298976Y-42432051D02*
X117346595Y-42455860D01*
X117346595Y-42455860D02*
X117370404Y-42479670D01*
X117370404Y-42479670D02*
X117394214Y-42527289D01*
X117394214Y-42527289D02*
X117394214Y-42717765D01*
X117489452Y-42241574D02*
X117489452Y-42003479D01*
X117632309Y-42289193D02*
X117132309Y-42122527D01*
X117132309Y-42122527D02*
X117632309Y-41955860D01*
X117346595Y-41717765D02*
X117322785Y-41765384D01*
X117322785Y-41765384D02*
X117298976Y-41789194D01*
X117298976Y-41789194D02*
X117251357Y-41813003D01*
X117251357Y-41813003D02*
X117227547Y-41813003D01*
X117227547Y-41813003D02*
X117179928Y-41789194D01*
X117179928Y-41789194D02*
X117156119Y-41765384D01*
X117156119Y-41765384D02*
X117132309Y-41717765D01*
X117132309Y-41717765D02*
X117132309Y-41622527D01*
X117132309Y-41622527D02*
X117156119Y-41574908D01*
X117156119Y-41574908D02*
X117179928Y-41551099D01*
X117179928Y-41551099D02*
X117227547Y-41527289D01*
X117227547Y-41527289D02*
X117251357Y-41527289D01*
X117251357Y-41527289D02*
X117298976Y-41551099D01*
X117298976Y-41551099D02*
X117322785Y-41574908D01*
X117322785Y-41574908D02*
X117346595Y-41622527D01*
X117346595Y-41622527D02*
X117346595Y-41717765D01*
X117346595Y-41717765D02*
X117370404Y-41765384D01*
X117370404Y-41765384D02*
X117394214Y-41789194D01*
X117394214Y-41789194D02*
X117441833Y-41813003D01*
X117441833Y-41813003D02*
X117537071Y-41813003D01*
X117537071Y-41813003D02*
X117584690Y-41789194D01*
X117584690Y-41789194D02*
X117608500Y-41765384D01*
X117608500Y-41765384D02*
X117632309Y-41717765D01*
X117632309Y-41717765D02*
X117632309Y-41622527D01*
X117632309Y-41622527D02*
X117608500Y-41574908D01*
X117608500Y-41574908D02*
X117584690Y-41551099D01*
X117584690Y-41551099D02*
X117537071Y-41527289D01*
X117537071Y-41527289D02*
X117441833Y-41527289D01*
X117441833Y-41527289D02*
X117394214Y-41551099D01*
X117394214Y-41551099D02*
X117370404Y-41574908D01*
X117370404Y-41574908D02*
X117346595Y-41622527D01*
X115232309Y-45498716D02*
X114732309Y-45498716D01*
X114732309Y-45498716D02*
X114732309Y-45308240D01*
X114732309Y-45308240D02*
X114756119Y-45260621D01*
X114756119Y-45260621D02*
X114779928Y-45236811D01*
X114779928Y-45236811D02*
X114827547Y-45213002D01*
X114827547Y-45213002D02*
X114898976Y-45213002D01*
X114898976Y-45213002D02*
X114946595Y-45236811D01*
X114946595Y-45236811D02*
X114970404Y-45260621D01*
X114970404Y-45260621D02*
X114994214Y-45308240D01*
X114994214Y-45308240D02*
X114994214Y-45498716D01*
X115089452Y-45022525D02*
X115089452Y-44784430D01*
X115232309Y-45070144D02*
X114732309Y-44903478D01*
X114732309Y-44903478D02*
X115232309Y-44736811D01*
X115232309Y-44308240D02*
X115232309Y-44593954D01*
X115232309Y-44451097D02*
X114732309Y-44451097D01*
X114732309Y-44451097D02*
X114803738Y-44498716D01*
X114803738Y-44498716D02*
X114851357Y-44546335D01*
X114851357Y-44546335D02*
X114875166Y-44593954D01*
X114732309Y-43855860D02*
X114732309Y-44093955D01*
X114732309Y-44093955D02*
X114970404Y-44117764D01*
X114970404Y-44117764D02*
X114946595Y-44093955D01*
X114946595Y-44093955D02*
X114922785Y-44046336D01*
X114922785Y-44046336D02*
X114922785Y-43927288D01*
X114922785Y-43927288D02*
X114946595Y-43879669D01*
X114946595Y-43879669D02*
X114970404Y-43855860D01*
X114970404Y-43855860D02*
X115018023Y-43832050D01*
X115018023Y-43832050D02*
X115137071Y-43832050D01*
X115137071Y-43832050D02*
X115184690Y-43855860D01*
X115184690Y-43855860D02*
X115208500Y-43879669D01*
X115208500Y-43879669D02*
X115232309Y-43927288D01*
X115232309Y-43927288D02*
X115232309Y-44046336D01*
X115232309Y-44046336D02*
X115208500Y-44093955D01*
X115208500Y-44093955D02*
X115184690Y-44117764D01*
X115398976Y-43498717D02*
X114684690Y-43498717D01*
X115232309Y-43141575D02*
X114732309Y-43141575D01*
X114732309Y-43141575D02*
X114732309Y-42951099D01*
X114732309Y-42951099D02*
X114756119Y-42903480D01*
X114756119Y-42903480D02*
X114779928Y-42879670D01*
X114779928Y-42879670D02*
X114827547Y-42855861D01*
X114827547Y-42855861D02*
X114898976Y-42855861D01*
X114898976Y-42855861D02*
X114946595Y-42879670D01*
X114946595Y-42879670D02*
X114970404Y-42903480D01*
X114970404Y-42903480D02*
X114994214Y-42951099D01*
X114994214Y-42951099D02*
X114994214Y-43141575D01*
X115089452Y-42665384D02*
X115089452Y-42427289D01*
X115232309Y-42713003D02*
X114732309Y-42546337D01*
X114732309Y-42546337D02*
X115232309Y-42379670D01*
X115232309Y-41951099D02*
X115232309Y-42236813D01*
X115232309Y-42093956D02*
X114732309Y-42093956D01*
X114732309Y-42093956D02*
X114803738Y-42141575D01*
X114803738Y-42141575D02*
X114851357Y-42189194D01*
X114851357Y-42189194D02*
X114875166Y-42236813D01*
X114732309Y-41641576D02*
X114732309Y-41593957D01*
X114732309Y-41593957D02*
X114756119Y-41546338D01*
X114756119Y-41546338D02*
X114779928Y-41522528D01*
X114779928Y-41522528D02*
X114827547Y-41498719D01*
X114827547Y-41498719D02*
X114922785Y-41474909D01*
X114922785Y-41474909D02*
X115041833Y-41474909D01*
X115041833Y-41474909D02*
X115137071Y-41498719D01*
X115137071Y-41498719D02*
X115184690Y-41522528D01*
X115184690Y-41522528D02*
X115208500Y-41546338D01*
X115208500Y-41546338D02*
X115232309Y-41593957D01*
X115232309Y-41593957D02*
X115232309Y-41641576D01*
X115232309Y-41641576D02*
X115208500Y-41689195D01*
X115208500Y-41689195D02*
X115184690Y-41713004D01*
X115184690Y-41713004D02*
X115137071Y-41736814D01*
X115137071Y-41736814D02*
X115041833Y-41760623D01*
X115041833Y-41760623D02*
X114922785Y-41760623D01*
X114922785Y-41760623D02*
X114827547Y-41736814D01*
X114827547Y-41736814D02*
X114779928Y-41713004D01*
X114779928Y-41713004D02*
X114756119Y-41689195D01*
X114756119Y-41689195D02*
X114732309Y-41641576D01*
X112432309Y-45598716D02*
X111932309Y-45598716D01*
X111932309Y-45598716D02*
X111932309Y-45408240D01*
X111932309Y-45408240D02*
X111956119Y-45360621D01*
X111956119Y-45360621D02*
X111979928Y-45336811D01*
X111979928Y-45336811D02*
X112027547Y-45313002D01*
X112027547Y-45313002D02*
X112098976Y-45313002D01*
X112098976Y-45313002D02*
X112146595Y-45336811D01*
X112146595Y-45336811D02*
X112170404Y-45360621D01*
X112170404Y-45360621D02*
X112194214Y-45408240D01*
X112194214Y-45408240D02*
X112194214Y-45598716D01*
X112384690Y-44813002D02*
X112408500Y-44836811D01*
X112408500Y-44836811D02*
X112432309Y-44908240D01*
X112432309Y-44908240D02*
X112432309Y-44955859D01*
X112432309Y-44955859D02*
X112408500Y-45027287D01*
X112408500Y-45027287D02*
X112360880Y-45074906D01*
X112360880Y-45074906D02*
X112313261Y-45098716D01*
X112313261Y-45098716D02*
X112218023Y-45122525D01*
X112218023Y-45122525D02*
X112146595Y-45122525D01*
X112146595Y-45122525D02*
X112051357Y-45098716D01*
X112051357Y-45098716D02*
X112003738Y-45074906D01*
X112003738Y-45074906D02*
X111956119Y-45027287D01*
X111956119Y-45027287D02*
X111932309Y-44955859D01*
X111932309Y-44955859D02*
X111932309Y-44908240D01*
X111932309Y-44908240D02*
X111956119Y-44836811D01*
X111956119Y-44836811D02*
X111979928Y-44813002D01*
X112432309Y-44336811D02*
X112432309Y-44622525D01*
X112432309Y-44479668D02*
X111932309Y-44479668D01*
X111932309Y-44479668D02*
X112003738Y-44527287D01*
X112003738Y-44527287D02*
X112051357Y-44574906D01*
X112051357Y-44574906D02*
X112075166Y-44622525D01*
X112432309Y-43860621D02*
X112432309Y-44146335D01*
X112432309Y-44003478D02*
X111932309Y-44003478D01*
X111932309Y-44003478D02*
X112003738Y-44051097D01*
X112003738Y-44051097D02*
X112051357Y-44098716D01*
X112051357Y-44098716D02*
X112075166Y-44146335D01*
X112598976Y-43527288D02*
X111884690Y-43527288D01*
X112432309Y-43170146D02*
X111932309Y-43170146D01*
X111932309Y-43170146D02*
X111932309Y-42979670D01*
X111932309Y-42979670D02*
X111956119Y-42932051D01*
X111956119Y-42932051D02*
X111979928Y-42908241D01*
X111979928Y-42908241D02*
X112027547Y-42884432D01*
X112027547Y-42884432D02*
X112098976Y-42884432D01*
X112098976Y-42884432D02*
X112146595Y-42908241D01*
X112146595Y-42908241D02*
X112170404Y-42932051D01*
X112170404Y-42932051D02*
X112194214Y-42979670D01*
X112194214Y-42979670D02*
X112194214Y-43170146D01*
X112384690Y-42384432D02*
X112408500Y-42408241D01*
X112408500Y-42408241D02*
X112432309Y-42479670D01*
X112432309Y-42479670D02*
X112432309Y-42527289D01*
X112432309Y-42527289D02*
X112408500Y-42598717D01*
X112408500Y-42598717D02*
X112360880Y-42646336D01*
X112360880Y-42646336D02*
X112313261Y-42670146D01*
X112313261Y-42670146D02*
X112218023Y-42693955D01*
X112218023Y-42693955D02*
X112146595Y-42693955D01*
X112146595Y-42693955D02*
X112051357Y-42670146D01*
X112051357Y-42670146D02*
X112003738Y-42646336D01*
X112003738Y-42646336D02*
X111956119Y-42598717D01*
X111956119Y-42598717D02*
X111932309Y-42527289D01*
X111932309Y-42527289D02*
X111932309Y-42479670D01*
X111932309Y-42479670D02*
X111956119Y-42408241D01*
X111956119Y-42408241D02*
X111979928Y-42384432D01*
X112432309Y-41908241D02*
X112432309Y-42193955D01*
X112432309Y-42051098D02*
X111932309Y-42051098D01*
X111932309Y-42051098D02*
X112003738Y-42098717D01*
X112003738Y-42098717D02*
X112051357Y-42146336D01*
X112051357Y-42146336D02*
X112075166Y-42193955D01*
X111932309Y-41598718D02*
X111932309Y-41551099D01*
X111932309Y-41551099D02*
X111956119Y-41503480D01*
X111956119Y-41503480D02*
X111979928Y-41479670D01*
X111979928Y-41479670D02*
X112027547Y-41455861D01*
X112027547Y-41455861D02*
X112122785Y-41432051D01*
X112122785Y-41432051D02*
X112241833Y-41432051D01*
X112241833Y-41432051D02*
X112337071Y-41455861D01*
X112337071Y-41455861D02*
X112384690Y-41479670D01*
X112384690Y-41479670D02*
X112408500Y-41503480D01*
X112408500Y-41503480D02*
X112432309Y-41551099D01*
X112432309Y-41551099D02*
X112432309Y-41598718D01*
X112432309Y-41598718D02*
X112408500Y-41646337D01*
X112408500Y-41646337D02*
X112384690Y-41670146D01*
X112384690Y-41670146D02*
X112337071Y-41693956D01*
X112337071Y-41693956D02*
X112241833Y-41717765D01*
X112241833Y-41717765D02*
X112122785Y-41717765D01*
X112122785Y-41717765D02*
X112027547Y-41693956D01*
X112027547Y-41693956D02*
X111979928Y-41670146D01*
X111979928Y-41670146D02*
X111956119Y-41646337D01*
X111956119Y-41646337D02*
X111932309Y-41598718D01*
X109456119Y-44936811D02*
X109432309Y-44984430D01*
X109432309Y-44984430D02*
X109432309Y-45055859D01*
X109432309Y-45055859D02*
X109456119Y-45127287D01*
X109456119Y-45127287D02*
X109503738Y-45174906D01*
X109503738Y-45174906D02*
X109551357Y-45198716D01*
X109551357Y-45198716D02*
X109646595Y-45222525D01*
X109646595Y-45222525D02*
X109718023Y-45222525D01*
X109718023Y-45222525D02*
X109813261Y-45198716D01*
X109813261Y-45198716D02*
X109860880Y-45174906D01*
X109860880Y-45174906D02*
X109908500Y-45127287D01*
X109908500Y-45127287D02*
X109932309Y-45055859D01*
X109932309Y-45055859D02*
X109932309Y-45008240D01*
X109932309Y-45008240D02*
X109908500Y-44936811D01*
X109908500Y-44936811D02*
X109884690Y-44913002D01*
X109884690Y-44913002D02*
X109718023Y-44913002D01*
X109718023Y-44913002D02*
X109718023Y-45008240D01*
X109932309Y-44698716D02*
X109432309Y-44698716D01*
X109432309Y-44698716D02*
X109932309Y-44413002D01*
X109932309Y-44413002D02*
X109432309Y-44413002D01*
X109932309Y-44174906D02*
X109432309Y-44174906D01*
X109432309Y-44174906D02*
X109432309Y-44055858D01*
X109432309Y-44055858D02*
X109456119Y-43984430D01*
X109456119Y-43984430D02*
X109503738Y-43936811D01*
X109503738Y-43936811D02*
X109551357Y-43913001D01*
X109551357Y-43913001D02*
X109646595Y-43889192D01*
X109646595Y-43889192D02*
X109718023Y-43889192D01*
X109718023Y-43889192D02*
X109813261Y-43913001D01*
X109813261Y-43913001D02*
X109860880Y-43936811D01*
X109860880Y-43936811D02*
X109908500Y-43984430D01*
X109908500Y-43984430D02*
X109932309Y-44055858D01*
X109932309Y-44055858D02*
X109932309Y-44174906D01*
X110098976Y-43555858D02*
X109384690Y-43555858D01*
X109932309Y-43198716D02*
X109432309Y-43198716D01*
X109432309Y-43198716D02*
X109432309Y-43008240D01*
X109432309Y-43008240D02*
X109456119Y-42960621D01*
X109456119Y-42960621D02*
X109479928Y-42936811D01*
X109479928Y-42936811D02*
X109527547Y-42913002D01*
X109527547Y-42913002D02*
X109598976Y-42913002D01*
X109598976Y-42913002D02*
X109646595Y-42936811D01*
X109646595Y-42936811D02*
X109670404Y-42960621D01*
X109670404Y-42960621D02*
X109694214Y-43008240D01*
X109694214Y-43008240D02*
X109694214Y-43198716D01*
X109884690Y-42413002D02*
X109908500Y-42436811D01*
X109908500Y-42436811D02*
X109932309Y-42508240D01*
X109932309Y-42508240D02*
X109932309Y-42555859D01*
X109932309Y-42555859D02*
X109908500Y-42627287D01*
X109908500Y-42627287D02*
X109860880Y-42674906D01*
X109860880Y-42674906D02*
X109813261Y-42698716D01*
X109813261Y-42698716D02*
X109718023Y-42722525D01*
X109718023Y-42722525D02*
X109646595Y-42722525D01*
X109646595Y-42722525D02*
X109551357Y-42698716D01*
X109551357Y-42698716D02*
X109503738Y-42674906D01*
X109503738Y-42674906D02*
X109456119Y-42627287D01*
X109456119Y-42627287D02*
X109432309Y-42555859D01*
X109432309Y-42555859D02*
X109432309Y-42508240D01*
X109432309Y-42508240D02*
X109456119Y-42436811D01*
X109456119Y-42436811D02*
X109479928Y-42413002D01*
X109932309Y-41936811D02*
X109932309Y-42222525D01*
X109932309Y-42079668D02*
X109432309Y-42079668D01*
X109432309Y-42079668D02*
X109503738Y-42127287D01*
X109503738Y-42127287D02*
X109551357Y-42174906D01*
X109551357Y-42174906D02*
X109575166Y-42222525D01*
X109479928Y-41746335D02*
X109456119Y-41722526D01*
X109456119Y-41722526D02*
X109432309Y-41674907D01*
X109432309Y-41674907D02*
X109432309Y-41555859D01*
X109432309Y-41555859D02*
X109456119Y-41508240D01*
X109456119Y-41508240D02*
X109479928Y-41484431D01*
X109479928Y-41484431D02*
X109527547Y-41460621D01*
X109527547Y-41460621D02*
X109575166Y-41460621D01*
X109575166Y-41460621D02*
X109646595Y-41484431D01*
X109646595Y-41484431D02*
X109932309Y-41770145D01*
X109932309Y-41770145D02*
X109932309Y-41460621D01*
X107532309Y-44698716D02*
X107032309Y-44698716D01*
X107032309Y-44698716D02*
X107032309Y-44508240D01*
X107032309Y-44508240D02*
X107056119Y-44460621D01*
X107056119Y-44460621D02*
X107079928Y-44436811D01*
X107079928Y-44436811D02*
X107127547Y-44413002D01*
X107127547Y-44413002D02*
X107198976Y-44413002D01*
X107198976Y-44413002D02*
X107246595Y-44436811D01*
X107246595Y-44436811D02*
X107270404Y-44460621D01*
X107270404Y-44460621D02*
X107294214Y-44508240D01*
X107294214Y-44508240D02*
X107294214Y-44698716D01*
X107270404Y-44032049D02*
X107294214Y-43960621D01*
X107294214Y-43960621D02*
X107318023Y-43936811D01*
X107318023Y-43936811D02*
X107365642Y-43913002D01*
X107365642Y-43913002D02*
X107437071Y-43913002D01*
X107437071Y-43913002D02*
X107484690Y-43936811D01*
X107484690Y-43936811D02*
X107508500Y-43960621D01*
X107508500Y-43960621D02*
X107532309Y-44008240D01*
X107532309Y-44008240D02*
X107532309Y-44198716D01*
X107532309Y-44198716D02*
X107032309Y-44198716D01*
X107032309Y-44198716D02*
X107032309Y-44032049D01*
X107032309Y-44032049D02*
X107056119Y-43984430D01*
X107056119Y-43984430D02*
X107079928Y-43960621D01*
X107079928Y-43960621D02*
X107127547Y-43936811D01*
X107127547Y-43936811D02*
X107175166Y-43936811D01*
X107175166Y-43936811D02*
X107222785Y-43960621D01*
X107222785Y-43960621D02*
X107246595Y-43984430D01*
X107246595Y-43984430D02*
X107270404Y-44032049D01*
X107270404Y-44032049D02*
X107270404Y-44198716D01*
X107032309Y-43746335D02*
X107032309Y-43436811D01*
X107032309Y-43436811D02*
X107222785Y-43603478D01*
X107222785Y-43603478D02*
X107222785Y-43532049D01*
X107222785Y-43532049D02*
X107246595Y-43484430D01*
X107246595Y-43484430D02*
X107270404Y-43460621D01*
X107270404Y-43460621D02*
X107318023Y-43436811D01*
X107318023Y-43436811D02*
X107437071Y-43436811D01*
X107437071Y-43436811D02*
X107484690Y-43460621D01*
X107484690Y-43460621D02*
X107508500Y-43484430D01*
X107508500Y-43484430D02*
X107532309Y-43532049D01*
X107532309Y-43532049D02*
X107532309Y-43674906D01*
X107532309Y-43674906D02*
X107508500Y-43722525D01*
X107508500Y-43722525D02*
X107484690Y-43746335D01*
X107698976Y-43103478D02*
X106984690Y-43103478D01*
X107532309Y-42746336D02*
X107032309Y-42746336D01*
X107032309Y-42746336D02*
X107032309Y-42555860D01*
X107032309Y-42555860D02*
X107056119Y-42508241D01*
X107056119Y-42508241D02*
X107079928Y-42484431D01*
X107079928Y-42484431D02*
X107127547Y-42460622D01*
X107127547Y-42460622D02*
X107198976Y-42460622D01*
X107198976Y-42460622D02*
X107246595Y-42484431D01*
X107246595Y-42484431D02*
X107270404Y-42508241D01*
X107270404Y-42508241D02*
X107294214Y-42555860D01*
X107294214Y-42555860D02*
X107294214Y-42746336D01*
X107270404Y-42079669D02*
X107294214Y-42008241D01*
X107294214Y-42008241D02*
X107318023Y-41984431D01*
X107318023Y-41984431D02*
X107365642Y-41960622D01*
X107365642Y-41960622D02*
X107437071Y-41960622D01*
X107437071Y-41960622D02*
X107484690Y-41984431D01*
X107484690Y-41984431D02*
X107508500Y-42008241D01*
X107508500Y-42008241D02*
X107532309Y-42055860D01*
X107532309Y-42055860D02*
X107532309Y-42246336D01*
X107532309Y-42246336D02*
X107032309Y-42246336D01*
X107032309Y-42246336D02*
X107032309Y-42079669D01*
X107032309Y-42079669D02*
X107056119Y-42032050D01*
X107056119Y-42032050D02*
X107079928Y-42008241D01*
X107079928Y-42008241D02*
X107127547Y-41984431D01*
X107127547Y-41984431D02*
X107175166Y-41984431D01*
X107175166Y-41984431D02*
X107222785Y-42008241D01*
X107222785Y-42008241D02*
X107246595Y-42032050D01*
X107246595Y-42032050D02*
X107270404Y-42079669D01*
X107270404Y-42079669D02*
X107270404Y-42246336D01*
X107079928Y-41770145D02*
X107056119Y-41746336D01*
X107056119Y-41746336D02*
X107032309Y-41698717D01*
X107032309Y-41698717D02*
X107032309Y-41579669D01*
X107032309Y-41579669D02*
X107056119Y-41532050D01*
X107056119Y-41532050D02*
X107079928Y-41508241D01*
X107079928Y-41508241D02*
X107127547Y-41484431D01*
X107127547Y-41484431D02*
X107175166Y-41484431D01*
X107175166Y-41484431D02*
X107246595Y-41508241D01*
X107246595Y-41508241D02*
X107532309Y-41793955D01*
X107532309Y-41793955D02*
X107532309Y-41484431D01*
X104732309Y-44698716D02*
X104232309Y-44698716D01*
X104232309Y-44698716D02*
X104232309Y-44508240D01*
X104232309Y-44508240D02*
X104256119Y-44460621D01*
X104256119Y-44460621D02*
X104279928Y-44436811D01*
X104279928Y-44436811D02*
X104327547Y-44413002D01*
X104327547Y-44413002D02*
X104398976Y-44413002D01*
X104398976Y-44413002D02*
X104446595Y-44436811D01*
X104446595Y-44436811D02*
X104470404Y-44460621D01*
X104470404Y-44460621D02*
X104494214Y-44508240D01*
X104494214Y-44508240D02*
X104494214Y-44698716D01*
X104470404Y-44032049D02*
X104494214Y-43960621D01*
X104494214Y-43960621D02*
X104518023Y-43936811D01*
X104518023Y-43936811D02*
X104565642Y-43913002D01*
X104565642Y-43913002D02*
X104637071Y-43913002D01*
X104637071Y-43913002D02*
X104684690Y-43936811D01*
X104684690Y-43936811D02*
X104708500Y-43960621D01*
X104708500Y-43960621D02*
X104732309Y-44008240D01*
X104732309Y-44008240D02*
X104732309Y-44198716D01*
X104732309Y-44198716D02*
X104232309Y-44198716D01*
X104232309Y-44198716D02*
X104232309Y-44032049D01*
X104232309Y-44032049D02*
X104256119Y-43984430D01*
X104256119Y-43984430D02*
X104279928Y-43960621D01*
X104279928Y-43960621D02*
X104327547Y-43936811D01*
X104327547Y-43936811D02*
X104375166Y-43936811D01*
X104375166Y-43936811D02*
X104422785Y-43960621D01*
X104422785Y-43960621D02*
X104446595Y-43984430D01*
X104446595Y-43984430D02*
X104470404Y-44032049D01*
X104470404Y-44032049D02*
X104470404Y-44198716D01*
X104232309Y-43460621D02*
X104232309Y-43698716D01*
X104232309Y-43698716D02*
X104470404Y-43722525D01*
X104470404Y-43722525D02*
X104446595Y-43698716D01*
X104446595Y-43698716D02*
X104422785Y-43651097D01*
X104422785Y-43651097D02*
X104422785Y-43532049D01*
X104422785Y-43532049D02*
X104446595Y-43484430D01*
X104446595Y-43484430D02*
X104470404Y-43460621D01*
X104470404Y-43460621D02*
X104518023Y-43436811D01*
X104518023Y-43436811D02*
X104637071Y-43436811D01*
X104637071Y-43436811D02*
X104684690Y-43460621D01*
X104684690Y-43460621D02*
X104708500Y-43484430D01*
X104708500Y-43484430D02*
X104732309Y-43532049D01*
X104732309Y-43532049D02*
X104732309Y-43651097D01*
X104732309Y-43651097D02*
X104708500Y-43698716D01*
X104708500Y-43698716D02*
X104684690Y-43722525D01*
X104898976Y-43103478D02*
X104184690Y-43103478D01*
X104732309Y-42746336D02*
X104232309Y-42746336D01*
X104232309Y-42746336D02*
X104232309Y-42555860D01*
X104232309Y-42555860D02*
X104256119Y-42508241D01*
X104256119Y-42508241D02*
X104279928Y-42484431D01*
X104279928Y-42484431D02*
X104327547Y-42460622D01*
X104327547Y-42460622D02*
X104398976Y-42460622D01*
X104398976Y-42460622D02*
X104446595Y-42484431D01*
X104446595Y-42484431D02*
X104470404Y-42508241D01*
X104470404Y-42508241D02*
X104494214Y-42555860D01*
X104494214Y-42555860D02*
X104494214Y-42746336D01*
X104470404Y-42079669D02*
X104494214Y-42008241D01*
X104494214Y-42008241D02*
X104518023Y-41984431D01*
X104518023Y-41984431D02*
X104565642Y-41960622D01*
X104565642Y-41960622D02*
X104637071Y-41960622D01*
X104637071Y-41960622D02*
X104684690Y-41984431D01*
X104684690Y-41984431D02*
X104708500Y-42008241D01*
X104708500Y-42008241D02*
X104732309Y-42055860D01*
X104732309Y-42055860D02*
X104732309Y-42246336D01*
X104732309Y-42246336D02*
X104232309Y-42246336D01*
X104232309Y-42246336D02*
X104232309Y-42079669D01*
X104232309Y-42079669D02*
X104256119Y-42032050D01*
X104256119Y-42032050D02*
X104279928Y-42008241D01*
X104279928Y-42008241D02*
X104327547Y-41984431D01*
X104327547Y-41984431D02*
X104375166Y-41984431D01*
X104375166Y-41984431D02*
X104422785Y-42008241D01*
X104422785Y-42008241D02*
X104446595Y-42032050D01*
X104446595Y-42032050D02*
X104470404Y-42079669D01*
X104470404Y-42079669D02*
X104470404Y-42246336D01*
X104398976Y-41532050D02*
X104732309Y-41532050D01*
X104208500Y-41651098D02*
X104565642Y-41770145D01*
X104565642Y-41770145D02*
X104565642Y-41460622D01*
X102432309Y-44698716D02*
X101932309Y-44698716D01*
X101932309Y-44698716D02*
X101932309Y-44508240D01*
X101932309Y-44508240D02*
X101956119Y-44460621D01*
X101956119Y-44460621D02*
X101979928Y-44436811D01*
X101979928Y-44436811D02*
X102027547Y-44413002D01*
X102027547Y-44413002D02*
X102098976Y-44413002D01*
X102098976Y-44413002D02*
X102146595Y-44436811D01*
X102146595Y-44436811D02*
X102170404Y-44460621D01*
X102170404Y-44460621D02*
X102194214Y-44508240D01*
X102194214Y-44508240D02*
X102194214Y-44698716D01*
X102170404Y-44032049D02*
X102194214Y-43960621D01*
X102194214Y-43960621D02*
X102218023Y-43936811D01*
X102218023Y-43936811D02*
X102265642Y-43913002D01*
X102265642Y-43913002D02*
X102337071Y-43913002D01*
X102337071Y-43913002D02*
X102384690Y-43936811D01*
X102384690Y-43936811D02*
X102408500Y-43960621D01*
X102408500Y-43960621D02*
X102432309Y-44008240D01*
X102432309Y-44008240D02*
X102432309Y-44198716D01*
X102432309Y-44198716D02*
X101932309Y-44198716D01*
X101932309Y-44198716D02*
X101932309Y-44032049D01*
X101932309Y-44032049D02*
X101956119Y-43984430D01*
X101956119Y-43984430D02*
X101979928Y-43960621D01*
X101979928Y-43960621D02*
X102027547Y-43936811D01*
X102027547Y-43936811D02*
X102075166Y-43936811D01*
X102075166Y-43936811D02*
X102122785Y-43960621D01*
X102122785Y-43960621D02*
X102146595Y-43984430D01*
X102146595Y-43984430D02*
X102170404Y-44032049D01*
X102170404Y-44032049D02*
X102170404Y-44198716D01*
X101932309Y-43746335D02*
X101932309Y-43413002D01*
X101932309Y-43413002D02*
X102432309Y-43627287D01*
X102598976Y-43103478D02*
X101884690Y-43103478D01*
X102432309Y-42746336D02*
X101932309Y-42746336D01*
X101932309Y-42746336D02*
X101932309Y-42555860D01*
X101932309Y-42555860D02*
X101956119Y-42508241D01*
X101956119Y-42508241D02*
X101979928Y-42484431D01*
X101979928Y-42484431D02*
X102027547Y-42460622D01*
X102027547Y-42460622D02*
X102098976Y-42460622D01*
X102098976Y-42460622D02*
X102146595Y-42484431D01*
X102146595Y-42484431D02*
X102170404Y-42508241D01*
X102170404Y-42508241D02*
X102194214Y-42555860D01*
X102194214Y-42555860D02*
X102194214Y-42746336D01*
X102170404Y-42079669D02*
X102194214Y-42008241D01*
X102194214Y-42008241D02*
X102218023Y-41984431D01*
X102218023Y-41984431D02*
X102265642Y-41960622D01*
X102265642Y-41960622D02*
X102337071Y-41960622D01*
X102337071Y-41960622D02*
X102384690Y-41984431D01*
X102384690Y-41984431D02*
X102408500Y-42008241D01*
X102408500Y-42008241D02*
X102432309Y-42055860D01*
X102432309Y-42055860D02*
X102432309Y-42246336D01*
X102432309Y-42246336D02*
X101932309Y-42246336D01*
X101932309Y-42246336D02*
X101932309Y-42079669D01*
X101932309Y-42079669D02*
X101956119Y-42032050D01*
X101956119Y-42032050D02*
X101979928Y-42008241D01*
X101979928Y-42008241D02*
X102027547Y-41984431D01*
X102027547Y-41984431D02*
X102075166Y-41984431D01*
X102075166Y-41984431D02*
X102122785Y-42008241D01*
X102122785Y-42008241D02*
X102146595Y-42032050D01*
X102146595Y-42032050D02*
X102170404Y-42079669D01*
X102170404Y-42079669D02*
X102170404Y-42246336D01*
X101932309Y-41532050D02*
X101932309Y-41627288D01*
X101932309Y-41627288D02*
X101956119Y-41674907D01*
X101956119Y-41674907D02*
X101979928Y-41698717D01*
X101979928Y-41698717D02*
X102051357Y-41746336D01*
X102051357Y-41746336D02*
X102146595Y-41770145D01*
X102146595Y-41770145D02*
X102337071Y-41770145D01*
X102337071Y-41770145D02*
X102384690Y-41746336D01*
X102384690Y-41746336D02*
X102408500Y-41722526D01*
X102408500Y-41722526D02*
X102432309Y-41674907D01*
X102432309Y-41674907D02*
X102432309Y-41579669D01*
X102432309Y-41579669D02*
X102408500Y-41532050D01*
X102408500Y-41532050D02*
X102384690Y-41508241D01*
X102384690Y-41508241D02*
X102337071Y-41484431D01*
X102337071Y-41484431D02*
X102218023Y-41484431D01*
X102218023Y-41484431D02*
X102170404Y-41508241D01*
X102170404Y-41508241D02*
X102146595Y-41532050D01*
X102146595Y-41532050D02*
X102122785Y-41579669D01*
X102122785Y-41579669D02*
X102122785Y-41674907D01*
X102122785Y-41674907D02*
X102146595Y-41722526D01*
X102146595Y-41722526D02*
X102170404Y-41746336D01*
X102170404Y-41746336D02*
X102218023Y-41770145D01*
X99732309Y-44698716D02*
X99232309Y-44698716D01*
X99232309Y-44698716D02*
X99232309Y-44508240D01*
X99232309Y-44508240D02*
X99256119Y-44460621D01*
X99256119Y-44460621D02*
X99279928Y-44436811D01*
X99279928Y-44436811D02*
X99327547Y-44413002D01*
X99327547Y-44413002D02*
X99398976Y-44413002D01*
X99398976Y-44413002D02*
X99446595Y-44436811D01*
X99446595Y-44436811D02*
X99470404Y-44460621D01*
X99470404Y-44460621D02*
X99494214Y-44508240D01*
X99494214Y-44508240D02*
X99494214Y-44698716D01*
X99470404Y-44032049D02*
X99494214Y-43960621D01*
X99494214Y-43960621D02*
X99518023Y-43936811D01*
X99518023Y-43936811D02*
X99565642Y-43913002D01*
X99565642Y-43913002D02*
X99637071Y-43913002D01*
X99637071Y-43913002D02*
X99684690Y-43936811D01*
X99684690Y-43936811D02*
X99708500Y-43960621D01*
X99708500Y-43960621D02*
X99732309Y-44008240D01*
X99732309Y-44008240D02*
X99732309Y-44198716D01*
X99732309Y-44198716D02*
X99232309Y-44198716D01*
X99232309Y-44198716D02*
X99232309Y-44032049D01*
X99232309Y-44032049D02*
X99256119Y-43984430D01*
X99256119Y-43984430D02*
X99279928Y-43960621D01*
X99279928Y-43960621D02*
X99327547Y-43936811D01*
X99327547Y-43936811D02*
X99375166Y-43936811D01*
X99375166Y-43936811D02*
X99422785Y-43960621D01*
X99422785Y-43960621D02*
X99446595Y-43984430D01*
X99446595Y-43984430D02*
X99470404Y-44032049D01*
X99470404Y-44032049D02*
X99470404Y-44198716D01*
X99732309Y-43674906D02*
X99732309Y-43579668D01*
X99732309Y-43579668D02*
X99708500Y-43532049D01*
X99708500Y-43532049D02*
X99684690Y-43508240D01*
X99684690Y-43508240D02*
X99613261Y-43460621D01*
X99613261Y-43460621D02*
X99518023Y-43436811D01*
X99518023Y-43436811D02*
X99327547Y-43436811D01*
X99327547Y-43436811D02*
X99279928Y-43460621D01*
X99279928Y-43460621D02*
X99256119Y-43484430D01*
X99256119Y-43484430D02*
X99232309Y-43532049D01*
X99232309Y-43532049D02*
X99232309Y-43627287D01*
X99232309Y-43627287D02*
X99256119Y-43674906D01*
X99256119Y-43674906D02*
X99279928Y-43698716D01*
X99279928Y-43698716D02*
X99327547Y-43722525D01*
X99327547Y-43722525D02*
X99446595Y-43722525D01*
X99446595Y-43722525D02*
X99494214Y-43698716D01*
X99494214Y-43698716D02*
X99518023Y-43674906D01*
X99518023Y-43674906D02*
X99541833Y-43627287D01*
X99541833Y-43627287D02*
X99541833Y-43532049D01*
X99541833Y-43532049D02*
X99518023Y-43484430D01*
X99518023Y-43484430D02*
X99494214Y-43460621D01*
X99494214Y-43460621D02*
X99446595Y-43436811D01*
X99898976Y-43103478D02*
X99184690Y-43103478D01*
X99732309Y-42746336D02*
X99232309Y-42746336D01*
X99232309Y-42746336D02*
X99232309Y-42555860D01*
X99232309Y-42555860D02*
X99256119Y-42508241D01*
X99256119Y-42508241D02*
X99279928Y-42484431D01*
X99279928Y-42484431D02*
X99327547Y-42460622D01*
X99327547Y-42460622D02*
X99398976Y-42460622D01*
X99398976Y-42460622D02*
X99446595Y-42484431D01*
X99446595Y-42484431D02*
X99470404Y-42508241D01*
X99470404Y-42508241D02*
X99494214Y-42555860D01*
X99494214Y-42555860D02*
X99494214Y-42746336D01*
X99470404Y-42079669D02*
X99494214Y-42008241D01*
X99494214Y-42008241D02*
X99518023Y-41984431D01*
X99518023Y-41984431D02*
X99565642Y-41960622D01*
X99565642Y-41960622D02*
X99637071Y-41960622D01*
X99637071Y-41960622D02*
X99684690Y-41984431D01*
X99684690Y-41984431D02*
X99708500Y-42008241D01*
X99708500Y-42008241D02*
X99732309Y-42055860D01*
X99732309Y-42055860D02*
X99732309Y-42246336D01*
X99732309Y-42246336D02*
X99232309Y-42246336D01*
X99232309Y-42246336D02*
X99232309Y-42079669D01*
X99232309Y-42079669D02*
X99256119Y-42032050D01*
X99256119Y-42032050D02*
X99279928Y-42008241D01*
X99279928Y-42008241D02*
X99327547Y-41984431D01*
X99327547Y-41984431D02*
X99375166Y-41984431D01*
X99375166Y-41984431D02*
X99422785Y-42008241D01*
X99422785Y-42008241D02*
X99446595Y-42032050D01*
X99446595Y-42032050D02*
X99470404Y-42079669D01*
X99470404Y-42079669D02*
X99470404Y-42246336D01*
X99446595Y-41674907D02*
X99422785Y-41722526D01*
X99422785Y-41722526D02*
X99398976Y-41746336D01*
X99398976Y-41746336D02*
X99351357Y-41770145D01*
X99351357Y-41770145D02*
X99327547Y-41770145D01*
X99327547Y-41770145D02*
X99279928Y-41746336D01*
X99279928Y-41746336D02*
X99256119Y-41722526D01*
X99256119Y-41722526D02*
X99232309Y-41674907D01*
X99232309Y-41674907D02*
X99232309Y-41579669D01*
X99232309Y-41579669D02*
X99256119Y-41532050D01*
X99256119Y-41532050D02*
X99279928Y-41508241D01*
X99279928Y-41508241D02*
X99327547Y-41484431D01*
X99327547Y-41484431D02*
X99351357Y-41484431D01*
X99351357Y-41484431D02*
X99398976Y-41508241D01*
X99398976Y-41508241D02*
X99422785Y-41532050D01*
X99422785Y-41532050D02*
X99446595Y-41579669D01*
X99446595Y-41579669D02*
X99446595Y-41674907D01*
X99446595Y-41674907D02*
X99470404Y-41722526D01*
X99470404Y-41722526D02*
X99494214Y-41746336D01*
X99494214Y-41746336D02*
X99541833Y-41770145D01*
X99541833Y-41770145D02*
X99637071Y-41770145D01*
X99637071Y-41770145D02*
X99684690Y-41746336D01*
X99684690Y-41746336D02*
X99708500Y-41722526D01*
X99708500Y-41722526D02*
X99732309Y-41674907D01*
X99732309Y-41674907D02*
X99732309Y-41579669D01*
X99732309Y-41579669D02*
X99708500Y-41532050D01*
X99708500Y-41532050D02*
X99684690Y-41508241D01*
X99684690Y-41508241D02*
X99637071Y-41484431D01*
X99637071Y-41484431D02*
X99541833Y-41484431D01*
X99541833Y-41484431D02*
X99494214Y-41508241D01*
X99494214Y-41508241D02*
X99470404Y-41532050D01*
X99470404Y-41532050D02*
X99446595Y-41579669D01*
X96756119Y-44936811D02*
X96732309Y-44984430D01*
X96732309Y-44984430D02*
X96732309Y-45055859D01*
X96732309Y-45055859D02*
X96756119Y-45127287D01*
X96756119Y-45127287D02*
X96803738Y-45174906D01*
X96803738Y-45174906D02*
X96851357Y-45198716D01*
X96851357Y-45198716D02*
X96946595Y-45222525D01*
X96946595Y-45222525D02*
X97018023Y-45222525D01*
X97018023Y-45222525D02*
X97113261Y-45198716D01*
X97113261Y-45198716D02*
X97160880Y-45174906D01*
X97160880Y-45174906D02*
X97208500Y-45127287D01*
X97208500Y-45127287D02*
X97232309Y-45055859D01*
X97232309Y-45055859D02*
X97232309Y-45008240D01*
X97232309Y-45008240D02*
X97208500Y-44936811D01*
X97208500Y-44936811D02*
X97184690Y-44913002D01*
X97184690Y-44913002D02*
X97018023Y-44913002D01*
X97018023Y-44913002D02*
X97018023Y-45008240D01*
X97232309Y-44698716D02*
X96732309Y-44698716D01*
X96732309Y-44698716D02*
X97232309Y-44413002D01*
X97232309Y-44413002D02*
X96732309Y-44413002D01*
X97232309Y-44174906D02*
X96732309Y-44174906D01*
X96732309Y-44174906D02*
X96732309Y-44055858D01*
X96732309Y-44055858D02*
X96756119Y-43984430D01*
X96756119Y-43984430D02*
X96803738Y-43936811D01*
X96803738Y-43936811D02*
X96851357Y-43913001D01*
X96851357Y-43913001D02*
X96946595Y-43889192D01*
X96946595Y-43889192D02*
X97018023Y-43889192D01*
X97018023Y-43889192D02*
X97113261Y-43913001D01*
X97113261Y-43913001D02*
X97160880Y-43936811D01*
X97160880Y-43936811D02*
X97208500Y-43984430D01*
X97208500Y-43984430D02*
X97232309Y-44055858D01*
X97232309Y-44055858D02*
X97232309Y-44174906D01*
X97398976Y-43555858D02*
X96684690Y-43555858D01*
X97041833Y-43198716D02*
X97041833Y-42817764D01*
X97232309Y-43008240D02*
X96851357Y-43008240D01*
X96732309Y-42627287D02*
X96732309Y-42317763D01*
X96732309Y-42317763D02*
X96922785Y-42484430D01*
X96922785Y-42484430D02*
X96922785Y-42413001D01*
X96922785Y-42413001D02*
X96946595Y-42365382D01*
X96946595Y-42365382D02*
X96970404Y-42341573D01*
X96970404Y-42341573D02*
X97018023Y-42317763D01*
X97018023Y-42317763D02*
X97137071Y-42317763D01*
X97137071Y-42317763D02*
X97184690Y-42341573D01*
X97184690Y-42341573D02*
X97208500Y-42365382D01*
X97208500Y-42365382D02*
X97232309Y-42413001D01*
X97232309Y-42413001D02*
X97232309Y-42555858D01*
X97232309Y-42555858D02*
X97208500Y-42603477D01*
X97208500Y-42603477D02*
X97184690Y-42627287D01*
X96898976Y-42151097D02*
X97232309Y-42032049D01*
X97232309Y-42032049D02*
X96898976Y-41913002D01*
X96732309Y-41770145D02*
X96732309Y-41460621D01*
X96732309Y-41460621D02*
X96922785Y-41627288D01*
X96922785Y-41627288D02*
X96922785Y-41555859D01*
X96922785Y-41555859D02*
X96946595Y-41508240D01*
X96946595Y-41508240D02*
X96970404Y-41484431D01*
X96970404Y-41484431D02*
X97018023Y-41460621D01*
X97018023Y-41460621D02*
X97137071Y-41460621D01*
X97137071Y-41460621D02*
X97184690Y-41484431D01*
X97184690Y-41484431D02*
X97208500Y-41508240D01*
X97208500Y-41508240D02*
X97232309Y-41555859D01*
X97232309Y-41555859D02*
X97232309Y-41698716D01*
X97232309Y-41698716D02*
X97208500Y-41746335D01*
X97208500Y-41746335D02*
X97184690Y-41770145D01*
X86562904Y-48516666D02*
X86586714Y-48445238D01*
X86586714Y-48445238D02*
X86610523Y-48421428D01*
X86610523Y-48421428D02*
X86658142Y-48397619D01*
X86658142Y-48397619D02*
X86729571Y-48397619D01*
X86729571Y-48397619D02*
X86777190Y-48421428D01*
X86777190Y-48421428D02*
X86801000Y-48445238D01*
X86801000Y-48445238D02*
X86824809Y-48492857D01*
X86824809Y-48492857D02*
X86824809Y-48683333D01*
X86824809Y-48683333D02*
X86324809Y-48683333D01*
X86324809Y-48683333D02*
X86324809Y-48516666D01*
X86324809Y-48516666D02*
X86348619Y-48469047D01*
X86348619Y-48469047D02*
X86372428Y-48445238D01*
X86372428Y-48445238D02*
X86420047Y-48421428D01*
X86420047Y-48421428D02*
X86467666Y-48421428D01*
X86467666Y-48421428D02*
X86515285Y-48445238D01*
X86515285Y-48445238D02*
X86539095Y-48469047D01*
X86539095Y-48469047D02*
X86562904Y-48516666D01*
X86562904Y-48516666D02*
X86562904Y-48683333D01*
X86324809Y-48088095D02*
X86324809Y-47992857D01*
X86324809Y-47992857D02*
X86348619Y-47945238D01*
X86348619Y-47945238D02*
X86396238Y-47897619D01*
X86396238Y-47897619D02*
X86491476Y-47873809D01*
X86491476Y-47873809D02*
X86658142Y-47873809D01*
X86658142Y-47873809D02*
X86753380Y-47897619D01*
X86753380Y-47897619D02*
X86801000Y-47945238D01*
X86801000Y-47945238D02*
X86824809Y-47992857D01*
X86824809Y-47992857D02*
X86824809Y-48088095D01*
X86824809Y-48088095D02*
X86801000Y-48135714D01*
X86801000Y-48135714D02*
X86753380Y-48183333D01*
X86753380Y-48183333D02*
X86658142Y-48207142D01*
X86658142Y-48207142D02*
X86491476Y-48207142D01*
X86491476Y-48207142D02*
X86396238Y-48183333D01*
X86396238Y-48183333D02*
X86348619Y-48135714D01*
X86348619Y-48135714D02*
X86324809Y-48088095D01*
X86324809Y-47564285D02*
X86324809Y-47469047D01*
X86324809Y-47469047D02*
X86348619Y-47421428D01*
X86348619Y-47421428D02*
X86396238Y-47373809D01*
X86396238Y-47373809D02*
X86491476Y-47349999D01*
X86491476Y-47349999D02*
X86658142Y-47349999D01*
X86658142Y-47349999D02*
X86753380Y-47373809D01*
X86753380Y-47373809D02*
X86801000Y-47421428D01*
X86801000Y-47421428D02*
X86824809Y-47469047D01*
X86824809Y-47469047D02*
X86824809Y-47564285D01*
X86824809Y-47564285D02*
X86801000Y-47611904D01*
X86801000Y-47611904D02*
X86753380Y-47659523D01*
X86753380Y-47659523D02*
X86658142Y-47683332D01*
X86658142Y-47683332D02*
X86491476Y-47683332D01*
X86491476Y-47683332D02*
X86396238Y-47659523D01*
X86396238Y-47659523D02*
X86348619Y-47611904D01*
X86348619Y-47611904D02*
X86324809Y-47564285D01*
X86324809Y-47207141D02*
X86324809Y-46921427D01*
X86824809Y-47064284D02*
X86324809Y-47064284D01*
X86324809Y-46659523D02*
X86324809Y-46611904D01*
X86324809Y-46611904D02*
X86348619Y-46564285D01*
X86348619Y-46564285D02*
X86372428Y-46540475D01*
X86372428Y-46540475D02*
X86420047Y-46516666D01*
X86420047Y-46516666D02*
X86515285Y-46492856D01*
X86515285Y-46492856D02*
X86634333Y-46492856D01*
X86634333Y-46492856D02*
X86729571Y-46516666D01*
X86729571Y-46516666D02*
X86777190Y-46540475D01*
X86777190Y-46540475D02*
X86801000Y-46564285D01*
X86801000Y-46564285D02*
X86824809Y-46611904D01*
X86824809Y-46611904D02*
X86824809Y-46659523D01*
X86824809Y-46659523D02*
X86801000Y-46707142D01*
X86801000Y-46707142D02*
X86777190Y-46730951D01*
X86777190Y-46730951D02*
X86729571Y-46754761D01*
X86729571Y-46754761D02*
X86634333Y-46778570D01*
X86634333Y-46778570D02*
X86515285Y-46778570D01*
X86515285Y-46778570D02*
X86420047Y-46754761D01*
X86420047Y-46754761D02*
X86372428Y-46730951D01*
X86372428Y-46730951D02*
X86348619Y-46707142D01*
X86348619Y-46707142D02*
X86324809Y-46659523D01*
X86844809Y-61321428D02*
X86344809Y-61321428D01*
X86344809Y-61321428D02*
X86844809Y-61035714D01*
X86844809Y-61035714D02*
X86344809Y-61035714D01*
X86844809Y-60511904D02*
X86606714Y-60678570D01*
X86844809Y-60797618D02*
X86344809Y-60797618D01*
X86344809Y-60797618D02*
X86344809Y-60607142D01*
X86344809Y-60607142D02*
X86368619Y-60559523D01*
X86368619Y-60559523D02*
X86392428Y-60535713D01*
X86392428Y-60535713D02*
X86440047Y-60511904D01*
X86440047Y-60511904D02*
X86511476Y-60511904D01*
X86511476Y-60511904D02*
X86559095Y-60535713D01*
X86559095Y-60535713D02*
X86582904Y-60559523D01*
X86582904Y-60559523D02*
X86606714Y-60607142D01*
X86606714Y-60607142D02*
X86606714Y-60797618D01*
X86821000Y-60321427D02*
X86844809Y-60249999D01*
X86844809Y-60249999D02*
X86844809Y-60130951D01*
X86844809Y-60130951D02*
X86821000Y-60083332D01*
X86821000Y-60083332D02*
X86797190Y-60059523D01*
X86797190Y-60059523D02*
X86749571Y-60035713D01*
X86749571Y-60035713D02*
X86701952Y-60035713D01*
X86701952Y-60035713D02*
X86654333Y-60059523D01*
X86654333Y-60059523D02*
X86630523Y-60083332D01*
X86630523Y-60083332D02*
X86606714Y-60130951D01*
X86606714Y-60130951D02*
X86582904Y-60226189D01*
X86582904Y-60226189D02*
X86559095Y-60273808D01*
X86559095Y-60273808D02*
X86535285Y-60297618D01*
X86535285Y-60297618D02*
X86487666Y-60321427D01*
X86487666Y-60321427D02*
X86440047Y-60321427D01*
X86440047Y-60321427D02*
X86392428Y-60297618D01*
X86392428Y-60297618D02*
X86368619Y-60273808D01*
X86368619Y-60273808D02*
X86344809Y-60226189D01*
X86344809Y-60226189D02*
X86344809Y-60107142D01*
X86344809Y-60107142D02*
X86368619Y-60035713D01*
X86344809Y-59892856D02*
X86344809Y-59607142D01*
X86844809Y-59749999D02*
X86344809Y-59749999D01*
X88462904Y-57583332D02*
X88486714Y-57511904D01*
X88486714Y-57511904D02*
X88510523Y-57488094D01*
X88510523Y-57488094D02*
X88558142Y-57464285D01*
X88558142Y-57464285D02*
X88629571Y-57464285D01*
X88629571Y-57464285D02*
X88677190Y-57488094D01*
X88677190Y-57488094D02*
X88701000Y-57511904D01*
X88701000Y-57511904D02*
X88724809Y-57559523D01*
X88724809Y-57559523D02*
X88724809Y-57749999D01*
X88724809Y-57749999D02*
X88224809Y-57749999D01*
X88224809Y-57749999D02*
X88224809Y-57583332D01*
X88224809Y-57583332D02*
X88248619Y-57535713D01*
X88248619Y-57535713D02*
X88272428Y-57511904D01*
X88272428Y-57511904D02*
X88320047Y-57488094D01*
X88320047Y-57488094D02*
X88367666Y-57488094D01*
X88367666Y-57488094D02*
X88415285Y-57511904D01*
X88415285Y-57511904D02*
X88439095Y-57535713D01*
X88439095Y-57535713D02*
X88462904Y-57583332D01*
X88462904Y-57583332D02*
X88462904Y-57749999D01*
X88224809Y-57321427D02*
X88224809Y-57035713D01*
X88724809Y-57178570D02*
X88224809Y-57178570D01*
X88724809Y-56869047D02*
X88224809Y-56869047D01*
X88224809Y-56869047D02*
X88724809Y-56583333D01*
X88724809Y-56583333D02*
X88224809Y-56583333D01*
X88724809Y-55964285D02*
X88224809Y-55964285D01*
X88224809Y-55964285D02*
X88224809Y-55773809D01*
X88224809Y-55773809D02*
X88248619Y-55726190D01*
X88248619Y-55726190D02*
X88272428Y-55702380D01*
X88272428Y-55702380D02*
X88320047Y-55678571D01*
X88320047Y-55678571D02*
X88391476Y-55678571D01*
X88391476Y-55678571D02*
X88439095Y-55702380D01*
X88439095Y-55702380D02*
X88462904Y-55726190D01*
X88462904Y-55726190D02*
X88486714Y-55773809D01*
X88486714Y-55773809D02*
X88486714Y-55964285D01*
X88677190Y-55178571D02*
X88701000Y-55202380D01*
X88701000Y-55202380D02*
X88724809Y-55273809D01*
X88724809Y-55273809D02*
X88724809Y-55321428D01*
X88724809Y-55321428D02*
X88701000Y-55392856D01*
X88701000Y-55392856D02*
X88653380Y-55440475D01*
X88653380Y-55440475D02*
X88605761Y-55464285D01*
X88605761Y-55464285D02*
X88510523Y-55488094D01*
X88510523Y-55488094D02*
X88439095Y-55488094D01*
X88439095Y-55488094D02*
X88343857Y-55464285D01*
X88343857Y-55464285D02*
X88296238Y-55440475D01*
X88296238Y-55440475D02*
X88248619Y-55392856D01*
X88248619Y-55392856D02*
X88224809Y-55321428D01*
X88224809Y-55321428D02*
X88224809Y-55273809D01*
X88224809Y-55273809D02*
X88248619Y-55202380D01*
X88248619Y-55202380D02*
X88272428Y-55178571D01*
X88724809Y-54702380D02*
X88724809Y-54988094D01*
X88724809Y-54845237D02*
X88224809Y-54845237D01*
X88224809Y-54845237D02*
X88296238Y-54892856D01*
X88296238Y-54892856D02*
X88343857Y-54940475D01*
X88343857Y-54940475D02*
X88367666Y-54988094D01*
X88224809Y-54535714D02*
X88224809Y-54226190D01*
X88224809Y-54226190D02*
X88415285Y-54392857D01*
X88415285Y-54392857D02*
X88415285Y-54321428D01*
X88415285Y-54321428D02*
X88439095Y-54273809D01*
X88439095Y-54273809D02*
X88462904Y-54250000D01*
X88462904Y-54250000D02*
X88510523Y-54226190D01*
X88510523Y-54226190D02*
X88629571Y-54226190D01*
X88629571Y-54226190D02*
X88677190Y-54250000D01*
X88677190Y-54250000D02*
X88701000Y-54273809D01*
X88701000Y-54273809D02*
X88724809Y-54321428D01*
X88724809Y-54321428D02*
X88724809Y-54464285D01*
X88724809Y-54464285D02*
X88701000Y-54511904D01*
X88701000Y-54511904D02*
X88677190Y-54535714D01*
D11*
%TO.C,J103*%
X134770000Y-35570000D02*
X136100000Y-35570000D01*
X134770000Y-36900000D02*
X134770000Y-35570000D01*
X134770000Y-38170000D02*
X134770000Y-40770000D01*
X134770000Y-38170000D02*
X137430000Y-38170000D01*
X134770000Y-40770000D02*
X137430000Y-40770000D01*
X137430000Y-38170000D02*
X137430000Y-40770000D01*
%TO.C,U100*%
X102990000Y-49890000D02*
X102990000Y-50840000D01*
X102990000Y-60110000D02*
X102990000Y-59160000D01*
X103940000Y-49890000D02*
X102990000Y-49890000D01*
X103940000Y-60110000D02*
X102990000Y-60110000D01*
X112260000Y-49890000D02*
X113210000Y-49890000D01*
X112260000Y-60110000D02*
X113210000Y-60110000D01*
X113210000Y-49890000D02*
X113210000Y-50840000D01*
X113210000Y-60110000D02*
X113210000Y-59160000D01*
X102375000Y-50840000D02*
X102035000Y-50370000D01*
X102715000Y-50370000D01*
X102375000Y-50840000D01*
G36*
X102375000Y-50840000D02*
G01*
X102035000Y-50370000D01*
X102715000Y-50370000D01*
X102375000Y-50840000D01*
G37*
%TO.C,C105*%
X113542164Y-60840000D02*
X113757836Y-60840000D01*
X113542164Y-61560000D02*
X113757836Y-61560000D01*
%TO.C,SW102*%
X79500000Y-54200000D02*
X79500000Y-55700000D01*
X80750000Y-58200000D02*
X85250000Y-58200000D01*
X85250000Y-51700000D02*
X80750000Y-51700000D01*
X86500000Y-55700000D02*
X86500000Y-54200000D01*
D12*
%TO.C,U201*%
X119820419Y-55325500D02*
X120649079Y-55325500D01*
X120649079Y-53674500D02*
X119820419Y-53674500D01*
D11*
%TO.C,Y100*%
X94600000Y-49000000D02*
X90600000Y-49000000D01*
X94600000Y-52300000D02*
X94600000Y-49000000D01*
%TO.C,U300*%
X126140000Y-67612500D02*
X126140000Y-66812500D01*
X126140000Y-67612500D02*
X126140000Y-68412500D01*
X129260000Y-67612500D02*
X129260000Y-66812500D01*
X129260000Y-67612500D02*
X129260000Y-68412500D01*
X126190000Y-68912500D02*
X125860000Y-69152500D01*
X125860000Y-68672500D01*
X126190000Y-68912500D01*
G36*
X126190000Y-68912500D02*
G01*
X125860000Y-69152500D01*
X125860000Y-68672500D01*
X126190000Y-68912500D01*
G37*
%TO.C,C304*%
X123540000Y-67907836D02*
X123540000Y-67692164D01*
X124260000Y-67907836D02*
X124260000Y-67692164D01*
%TO.C,SW100*%
X78750000Y-44050000D02*
X78750000Y-48550000D01*
X81250000Y-49800000D02*
X82750000Y-49800000D01*
X82750000Y-42800000D02*
X81250000Y-42800000D01*
X85250000Y-48550000D02*
X85250000Y-44050000D01*
%TO.C,C102*%
X100090000Y-50257836D02*
X100090000Y-50042164D01*
X100810000Y-50257836D02*
X100810000Y-50042164D01*
%TO.C,D100*%
X130710000Y-39050000D02*
X130710000Y-41710000D01*
X132410000Y-39050000D02*
X130710000Y-39050000D01*
X132410000Y-39050000D02*
X132410000Y-41710000D01*
%TO.C,R102*%
X86220000Y-65653641D02*
X86220000Y-65346359D01*
X86980000Y-65653641D02*
X86980000Y-65346359D01*
%TO.C,R100*%
X86220000Y-44346359D02*
X86220000Y-44653641D01*
X86980000Y-44346359D02*
X86980000Y-44653641D01*
%TO.C,R101*%
X109593641Y-66570000D02*
X109286359Y-66570000D01*
X109593641Y-67330000D02*
X109286359Y-67330000D01*
%TO.C,R302*%
X131546359Y-62120000D02*
X131853641Y-62120000D01*
X131546359Y-62880000D02*
X131853641Y-62880000D01*
%TO.C,SW101*%
X78800000Y-61400000D02*
X78800000Y-65900000D01*
X81300000Y-67150000D02*
X82800000Y-67150000D01*
X82800000Y-60150000D02*
X81300000Y-60150000D01*
X85300000Y-65900000D02*
X85300000Y-61400000D01*
%TO.C,C111*%
X91292164Y-52690000D02*
X91507836Y-52690000D01*
X91292164Y-53410000D02*
X91507836Y-53410000D01*
%TO.C,R103*%
X91553641Y-53820000D02*
X91246359Y-53820000D01*
X91553641Y-54580000D02*
X91246359Y-54580000D01*
%TO.C,R105*%
X127756359Y-41480000D02*
X128063641Y-41480000D01*
X127756359Y-42240000D02*
X128063641Y-42240000D01*
%TO.C,C301*%
X124040580Y-59190000D02*
X123759420Y-59190000D01*
X124040580Y-60210000D02*
X123759420Y-60210000D01*
%TO.C,R301*%
X124820000Y-65096359D02*
X124820000Y-65403641D01*
X125580000Y-65096359D02*
X125580000Y-65403641D01*
%TO.C,C115*%
X116665000Y-50561252D02*
X116665000Y-50038748D01*
X118135000Y-50561252D02*
X118135000Y-50038748D01*
%TO.C,R107*%
X88120000Y-51956359D02*
X88120000Y-52263641D01*
X88880000Y-51956359D02*
X88880000Y-52263641D01*
%TO.C,C101*%
X98340000Y-50190580D02*
X98340000Y-49909420D01*
X99360000Y-50190580D02*
X99360000Y-49909420D01*
%TO.C,C100*%
X86240000Y-63407836D02*
X86240000Y-63192164D01*
X86960000Y-63407836D02*
X86960000Y-63192164D01*
%TO.C,C106*%
X104607836Y-62140000D02*
X104392164Y-62140000D01*
X104607836Y-62860000D02*
X104392164Y-62860000D01*
%TO.C,C200*%
X123642585Y-51790000D02*
X123426913Y-51790000D01*
X123642585Y-52510000D02*
X123426913Y-52510000D01*
%TO.C,C303*%
X127861252Y-70615000D02*
X127338748Y-70615000D01*
X127861252Y-72085000D02*
X127338748Y-72085000D01*
%TO.C,J100*%
X122290000Y-38230000D02*
X122290000Y-36900000D01*
X123620000Y-38230000D02*
X122290000Y-38230000D01*
X124890000Y-35570000D02*
X132570000Y-35570000D01*
X124890000Y-38230000D02*
X124890000Y-35570000D01*
X124890000Y-38230000D02*
X132570000Y-38230000D01*
X132570000Y-38230000D02*
X132570000Y-35570000D01*
%TO.C,R104*%
X91653641Y-47820000D02*
X91346359Y-47820000D01*
X91653641Y-48580000D02*
X91346359Y-48580000D01*
%TO.C,R106*%
X125813641Y-41480000D02*
X125506359Y-41480000D01*
X125813641Y-42240000D02*
X125506359Y-42240000D01*
%TO.C,C104*%
X114492164Y-49740000D02*
X114707836Y-49740000D01*
X114492164Y-50460000D02*
X114707836Y-50460000D01*
%TO.C,C114*%
X112638748Y-62315000D02*
X113161252Y-62315000D01*
X112638748Y-63785000D02*
X113161252Y-63785000D01*
%TO.C,R200*%
X131576359Y-60920000D02*
X131883641Y-60920000D01*
X131576359Y-61680000D02*
X131883641Y-61680000D01*
%TO.C,R108*%
X131446359Y-47220000D02*
X131753641Y-47220000D01*
X131446359Y-47980000D02*
X131753641Y-47980000D01*
%TO.C,D300*%
X133115000Y-61065000D02*
X133115000Y-62535000D01*
X133115000Y-62535000D02*
X135400000Y-62535000D01*
X135400000Y-61065000D02*
X133115000Y-61065000D01*
%TO.C,C302*%
X128061252Y-63315000D02*
X127538748Y-63315000D01*
X128061252Y-64785000D02*
X127538748Y-64785000D01*
%TO.C,C300*%
X124040580Y-57190000D02*
X123759420Y-57190000D01*
X124040580Y-58210000D02*
X123759420Y-58210000D01*
%TO.C,Y1*%
X94700000Y-43100000D02*
X90700000Y-43100000D01*
X94700000Y-46400000D02*
X94700000Y-43100000D01*
%TO.C,L301*%
X130050000Y-64375000D02*
X130050000Y-71375000D01*
X130050000Y-71375000D02*
X131550000Y-71375000D01*
X131550000Y-64375000D02*
X130050000Y-64375000D01*
X132050000Y-66375000D02*
X132050000Y-69375000D01*
X132050000Y-69375000D02*
X135050000Y-69375000D01*
X135050000Y-66375000D02*
X132050000Y-66375000D01*
X135050000Y-69375000D02*
X135050000Y-66375000D01*
X135550000Y-64375000D02*
X137050000Y-64375000D01*
X137050000Y-64375000D02*
X137050000Y-71375000D01*
X137050000Y-71375000D02*
X135550000Y-71375000D01*
%TO.C,C103*%
X103992164Y-47140000D02*
X104207836Y-47140000D01*
X103992164Y-47860000D02*
X104207836Y-47860000D01*
%TO.C,C112*%
X94907836Y-46740000D02*
X94692164Y-46740000D01*
X94907836Y-47460000D02*
X94692164Y-47460000D01*
%TO.C,D102*%
X126570000Y-39210000D02*
X123910000Y-39210000D01*
X126570000Y-40910000D02*
X123910000Y-40910000D01*
X126570000Y-40910000D02*
X126570000Y-39210000D01*
%TO.C,D101*%
X127100000Y-39210000D02*
X127100000Y-40910000D01*
X127100000Y-39210000D02*
X129760000Y-39210000D01*
X127100000Y-40910000D02*
X129760000Y-40910000D01*
%TO.C,J200*%
X129100000Y-57800000D02*
X129100000Y-58600000D01*
X132020000Y-50300000D02*
X133800000Y-50300000D01*
X132020000Y-59700000D02*
X133800000Y-59700000D01*
%TO.C,C108*%
X96790000Y-58315580D02*
X96790000Y-58034420D01*
X97810000Y-58315580D02*
X97810000Y-58034420D01*
%TO.C,C107*%
X98440000Y-58257836D02*
X98440000Y-58042164D01*
X99160000Y-58257836D02*
X99160000Y-58042164D01*
%TO.C,R300*%
X124820000Y-67621359D02*
X124820000Y-67928641D01*
X125580000Y-67621359D02*
X125580000Y-67928641D01*
%TO.C,C113*%
X91392164Y-46740000D02*
X91607836Y-46740000D01*
X91392164Y-47460000D02*
X91607836Y-47460000D01*
%TO.C,C109*%
X94990000Y-58315580D02*
X94990000Y-58034420D01*
X96010000Y-58315580D02*
X96010000Y-58034420D01*
%TO.C,U200*%
X124684749Y-52940000D02*
X123884749Y-52940000D01*
X124684749Y-52940000D02*
X125484749Y-52940000D01*
X124684749Y-56060000D02*
X123884749Y-56060000D01*
X124684749Y-56060000D02*
X125484749Y-56060000D01*
X126224749Y-56340000D02*
X125744749Y-56340000D01*
X125984749Y-56010000D01*
X126224749Y-56340000D01*
G36*
X126224749Y-56340000D02*
G01*
X125744749Y-56340000D01*
X125984749Y-56010000D01*
X126224749Y-56340000D01*
G37*
%TO.C,D103*%
X133700000Y-48935000D02*
X135985000Y-48935000D01*
X135985000Y-47465000D02*
X133700000Y-47465000D01*
X135985000Y-48935000D02*
X135985000Y-47465000D01*
%TO.C,J102*%
X95710000Y-35570000D02*
X121230000Y-35570000D01*
X95710000Y-38170000D02*
X95710000Y-35570000D01*
X95710000Y-40770000D02*
X95710000Y-39440000D01*
X97040000Y-40770000D02*
X95710000Y-40770000D01*
X98310000Y-38170000D02*
X95710000Y-38170000D01*
X98310000Y-40770000D02*
X98310000Y-38170000D01*
X98310000Y-40770000D02*
X121230000Y-40770000D01*
X121230000Y-40770000D02*
X121230000Y-35570000D01*
%TO.C,R201*%
X131446359Y-48370000D02*
X131753641Y-48370000D01*
X131446359Y-49130000D02*
X131753641Y-49130000D01*
%TO.C,C110*%
X94707836Y-52690000D02*
X94492164Y-52690000D01*
X94707836Y-53410000D02*
X94492164Y-53410000D01*
%TO.C,J101*%
X83050000Y-69170000D02*
X121270000Y-69170000D01*
X83050000Y-71770000D02*
X83050000Y-69170000D01*
X83050000Y-74370000D02*
X83050000Y-73040000D01*
X84380000Y-74370000D02*
X83050000Y-74370000D01*
X85650000Y-71770000D02*
X83050000Y-71770000D01*
X85650000Y-74370000D02*
X85650000Y-71770000D01*
X85650000Y-74370000D02*
X121270000Y-74370000D01*
X121270000Y-74370000D02*
X121270000Y-69170000D01*
%TD*%
M02*
