%TF.GenerationSoftware,KiCad,Pcbnew,8.0.7*%
%TF.CreationDate,2024-12-25T08:40:24+02:00*%
%TF.ProjectId,STM32F405RGT6_BlackPill,53544d33-3246-4343-9035-524754365f42,rev?*%
%TF.SameCoordinates,Original*%
%TF.FileFunction,Soldermask,Bot*%
%TF.FilePolarity,Negative*%
%FSLAX46Y46*%
G04 Gerber Fmt 4.6, Leading zero omitted, Abs format (unit mm)*
G04 Created by KiCad (PCBNEW 8.0.7) date 2024-12-25 08:40:24*
%MOMM*%
%LPD*%
G01*
G04 APERTURE LIST*
G04 Aperture macros list*
%AMRoundRect*
0 Rectangle with rounded corners*
0 $1 Rounding radius*
0 $2 $3 $4 $5 $6 $7 $8 $9 X,Y pos of 4 corners*
0 Add a 4 corners polygon primitive as box body*
4,1,4,$2,$3,$4,$5,$6,$7,$8,$9,$2,$3,0*
0 Add four circle primitives for the rounded corners*
1,1,$1+$1,$2,$3*
1,1,$1+$1,$4,$5*
1,1,$1+$1,$6,$7*
1,1,$1+$1,$8,$9*
0 Add four rect primitives between the rounded corners*
20,1,$1+$1,$2,$3,$4,$5,0*
20,1,$1+$1,$4,$5,$6,$7,0*
20,1,$1+$1,$6,$7,$8,$9,0*
20,1,$1+$1,$8,$9,$2,$3,0*%
G04 Aperture macros list end*
%ADD10RoundRect,0.038000X-0.850000X-0.850000X0.850000X-0.850000X0.850000X0.850000X-0.850000X0.850000X0*%
%ADD11O,1.776000X1.776000*%
%ADD12C,2.076000*%
%ADD13RoundRect,0.038000X0.850000X-0.850000X0.850000X0.850000X-0.850000X0.850000X-0.850000X-0.850000X0*%
%ADD14C,0.650000*%
%ADD15O,2.176000X1.076000*%
%ADD16O,1.676000X1.076000*%
G04 APERTURE END LIST*
D10*
%TO.C,J103*%
X136100000Y-36900000D03*
D11*
X136100000Y-39440000D03*
%TD*%
D12*
%TO.C,SW102*%
X79750000Y-52700000D03*
X86250000Y-52700000D03*
X79750000Y-57200000D03*
X86250000Y-57200000D03*
%TD*%
%TO.C,SW100*%
X84250000Y-43050000D03*
X84250000Y-49550000D03*
X79750000Y-43050000D03*
X79750000Y-49550000D03*
%TD*%
%TO.C,SW101*%
X79800000Y-66900000D03*
X79800000Y-60400000D03*
X84300000Y-66900000D03*
X84300000Y-60400000D03*
%TD*%
D13*
%TO.C,J100*%
X123620000Y-36900000D03*
D11*
X126160000Y-36900000D03*
X128700000Y-36900000D03*
X131240000Y-36900000D03*
%TD*%
D14*
%TO.C,J200*%
X131195000Y-57890000D03*
X131195000Y-52110000D03*
D15*
X130695000Y-59320000D03*
D16*
X134875000Y-59320000D03*
D15*
X130695000Y-50680000D03*
D16*
X134875000Y-50680000D03*
%TD*%
D13*
%TO.C,J102*%
X97040000Y-39440000D03*
D11*
X97040000Y-36900000D03*
X99580000Y-39440000D03*
X99580000Y-36900000D03*
X102120000Y-39440000D03*
X102120000Y-36900000D03*
X104660000Y-39440000D03*
X104660000Y-36900000D03*
X107200000Y-39440000D03*
X107200000Y-36900000D03*
X109740000Y-39440000D03*
X109740000Y-36900000D03*
X112280000Y-39440000D03*
X112280000Y-36900000D03*
X114820000Y-39440000D03*
X114820000Y-36900000D03*
X117360000Y-39440000D03*
X117360000Y-36900000D03*
X119900000Y-39440000D03*
X119900000Y-36900000D03*
%TD*%
D13*
%TO.C,J101*%
X84380000Y-73040000D03*
D11*
X84380000Y-70500000D03*
X86920000Y-73040000D03*
X86920000Y-70500000D03*
X89460000Y-73040000D03*
X89460000Y-70500000D03*
X92000000Y-73040000D03*
X92000000Y-70500000D03*
X94540000Y-73040000D03*
X94540000Y-70500000D03*
X97080000Y-73040000D03*
X97080000Y-70500000D03*
X99620000Y-73040000D03*
X99620000Y-70500000D03*
X102160000Y-73040000D03*
X102160000Y-70500000D03*
X104700000Y-73040000D03*
X104700000Y-70500000D03*
X107240000Y-73040000D03*
X107240000Y-70500000D03*
X109780000Y-73040000D03*
X109780000Y-70500000D03*
X112320000Y-73040000D03*
X112320000Y-70500000D03*
X114860000Y-73040000D03*
X114860000Y-70500000D03*
X117400000Y-73040000D03*
X117400000Y-70500000D03*
X119940000Y-73040000D03*
X119940000Y-70500000D03*
%TD*%
M02*
